{"glyphs":{"0":{"ha":829,"x_min":75,"x_max":765,"o":"m 444 994 q 689 860 613 994 q 765 533 765 725 q 764 486 765 501 q 717 244 757 360 q 597 53 676 128 q 399 -22 517 -22 q 149 108 224 -22 q 75 429 75 238 q 76 486 75 467 q 123 728 82 613 q 245 919 164 844 q 444 994 326 994 m 447 942 q 278 815 338 942 q 210 511 219 689 q 208 440 208 489 q 253 151 208 271 q 404 32 297 32 q 566 156 513 32 q 629 460 619 279 q 632 542 632 515 q 590 828 632 715 q 447 942 547 942 z "},"1":{"ha":492,"x_min":43,"x_max":426,"o":"m 318 151 q 310 56 315 82 l 426 61 l 424 0 l 79 0 l 81 46 q 178 88 149 49 q 210 204 207 128 l 240 860 l 238 860 l 68 753 l 43 794 l 314 994 l 361 994 l 318 151 z "},"2":{"ha":729,"x_min":38,"x_max":665,"o":"m 385 994 q 587 934 508 994 q 658 743 665 874 q 372 369 649 583 q 208 226 268 290 q 135 103 149 161 l 376 96 q 461 94 407 94 q 574 114 538 94 q 614 192 611 133 l 657 192 l 638 0 l 38 0 q 74 147 42 82 q 154 260 107 211 q 285 382 201 310 l 333 424 q 469 580 417 500 q 524 725 521 660 q 490 881 528 821 q 360 940 451 940 q 258 913 304 940 q 193 842 211 885 q 214 782 214 819 q 196 736 214 756 q 149 717 178 717 q 102 736 121 717 q 83 786 83 756 q 120 882 83 833 q 226 963 157 931 q 385 994 294 994 z "},"3":{"ha":757,"x_min":43,"x_max":686,"o":"m 392 994 q 591 935 514 994 q 661 754 668 876 q 598 615 658 681 q 425 522 538 550 q 618 446 550 511 q 686 285 686 381 q 635 120 686 190 q 502 14 585 50 q 328 -22 419 -22 q 172 6 236 -22 q 75 78 107 35 q 43 168 43 122 q 62 224 43 203 q 111 246 81 246 q 156 227 139 246 q 174 183 174 208 q 154 128 174 149 q 213 60 165 83 q 319 38 260 38 q 488 102 426 38 q 549 278 549 167 q 507 422 549 360 q 358 485 465 485 q 267 482 325 485 l 269 544 l 326 544 q 440 576 394 544 q 506 651 485 607 q 531 739 528 696 q 499 887 535 833 q 369 940 463 940 q 292 924 329 940 q 230 884 254 908 q 200 836 206 860 q 217 782 217 814 q 199 740 217 757 q 157 722 182 722 q 113 740 131 722 q 96 786 96 757 q 131 879 96 831 q 234 961 167 928 q 392 994 301 994 z "},"4":{"ha":732,"x_min":4,"x_max":685,"o":"m 546 347 l 685 346 l 681 268 l 543 268 l 538 151 q 525 53 535 81 l 635 57 l 631 0 l 293 0 l 296 46 l 307 46 q 399 94 374 51 q 426 221 424 136 l 429 268 l 4 268 l 7 336 l 526 994 l 574 994 l 546 347 m 457 801 l 454 801 l 94 354 l 433 349 l 457 801 z "},"5":{"ha":726,"x_min":50,"x_max":672,"o":"m 651 883 l 194 874 l 176 567 q 367 603 263 603 q 590 517 518 603 q 661 310 661 432 q 613 129 661 204 q 485 16 565 54 q 308 -22 404 -22 q 168 5 226 -22 q 80 75 110 32 q 50 165 50 118 q 69 224 50 201 q 118 246 89 246 q 163 228 146 246 q 181 185 181 210 q 161 128 181 151 q 208 57 163 82 q 308 32 253 32 q 465 100 408 32 q 524 265 521 168 l 525 300 q 481 470 525 400 q 319 540 438 540 q 236 528 281 540 q 153 493 192 517 l 115 528 l 138 972 l 490 972 q 600 994 567 972 q 636 1063 633 1015 l 672 1063 l 651 883 z "},"6":{"ha":769,"x_min":74,"x_max":704,"o":"m 472 994 q 596 969 544 994 q 673 904 647 943 q 699 828 699 865 q 681 776 699 796 q 635 756 663 756 q 590 773 607 756 q 574 815 574 790 q 578 842 574 828 q 592 868 583 857 q 551 919 585 896 q 465 942 517 943 q 271 797 328 939 q 200 492 214 656 q 299 575 240 543 q 431 607 357 607 q 597 561 535 607 q 681 444 658 515 q 700 296 704 374 q 652 137 696 210 q 533 21 608 64 q 368 -22 458 -22 q 144 80 214 -22 q 74 374 74 182 q 76 458 74 400 q 175 824 89 654 q 472 994 261 994 m 406 546 q 279 499 342 546 q 193 390 217 453 q 231 134 190 236 q 369 32 271 32 q 514 99 463 32 q 569 265 565 167 l 571 301 q 535 474 571 401 q 406 546 499 546 z "},"7":{"ha":628,"x_min":44,"x_max":636,"o":"m 632 881 q 483 558 539 710 q 350 151 428 407 l 324 64 q 294 1 311 24 q 249 -22 276 -22 q 197 36 197 -22 q 219 124 197 68 q 288 281 242 181 l 307 322 l 349 415 q 568 879 482 711 l 201 878 q 111 853 142 876 q 78 775 81 831 l 44 775 l 54 972 l 636 972 l 632 881 z "},"8":{"ha":783,"x_min":79,"x_max":701,"o":"m 422 994 q 552 970 492 994 q 649 899 613 946 q 686 785 686 851 q 628 638 686 707 q 488 525 571 568 q 643 392 585 467 q 697 232 701 317 q 600 42 692 107 q 376 -22 508 -22 q 164 31 249 -22 q 79 197 79 83 q 141 365 79 286 q 300 501 203 443 q 163 619 208 557 q 119 742 117 681 q 169 882 124 825 q 281 967 214 939 q 422 994 349 994 m 422 940 q 327 915 368 940 q 264 849 286 890 q 242 763 242 808 q 291 646 242 700 q 438 551 340 592 q 540 651 501 593 q 581 758 578 708 q 542 892 586 844 q 422 940 499 940 m 347 475 q 231 349 267 421 q 194 214 194 276 q 243 80 194 126 q 382 33 292 33 q 517 87 464 33 q 569 221 569 140 q 518 356 569 296 q 375 461 467 417 q 347 475 356 469 z "},"9":{"ha":767,"x_min":81,"x_max":700,"o":"m 397 994 q 631 878 561 994 q 700 563 700 763 q 699 503 700 522 q 610 135 690 293 q 324 -22 531 -22 q 192 3 246 -22 q 113 69 139 29 q 86 154 86 110 q 105 209 86 188 q 153 231 124 231 q 196 213 179 231 q 213 171 213 194 q 206 140 213 157 q 189 115 200 124 q 322 31 215 31 q 515 172 458 31 q 578 483 571 313 q 478 399 538 432 q 343 367 418 367 q 140 449 200 367 q 81 653 81 532 q 118 824 81 746 q 227 948 156 901 q 397 994 299 994 m 393 942 q 260 874 308 942 q 207 708 211 807 q 237 515 201 601 q 375 429 272 429 q 497 473 438 429 q 579 578 556 517 q 538 841 578 740 q 393 942 497 942 z "},"\u0000":{"ha":0,"x_min":0,"x_max":0,"o":""},"\r":{"ha":365,"x_min":0,"x_max":0,"o":""}," ":{"ha":365,"x_min":0,"x_max":0,"o":""},"A":{"ha":876,"x_min":-19,"x_max":858,"o":"m 739 208 q 761 128 751 172 q 768 56 771 83 l 858 61 l 856 0 l 554 0 l 556 46 q 639 115 639 47 q 628 178 639 139 l 588 308 l 232 300 l 176 151 q 133 56 156 97 l 238 61 l 235 0 l -19 0 l -18 46 q 62 89 31 47 q 129 219 93 131 l 443 999 l 474 999 l 739 208 m 424 806 l 365 650 q 281 428 349 610 l 254 360 l 572 360 q 426 806 493 608 l 424 806 z "},"Á":{"ha":876,"x_min":-19,"x_max":858,"o":"m 739 208 q 761 128 751 172 q 768 56 771 83 l 858 61 l 856 0 l 554 0 l 556 46 q 639 115 639 47 q 628 178 639 139 l 588 308 l 232 300 l 176 151 q 133 56 156 97 l 238 61 l 235 0 l -19 0 l -18 46 q 62 89 31 47 q 129 219 93 131 l 443 999 l 474 999 l 739 208 m 424 806 l 365 650 q 281 428 349 610 l 254 360 l 572 360 q 426 806 493 608 l 424 806 m 394 1097 l 571 1261 q 628 1289 603 1289 q 661 1274 646 1289 q 671 1247 671 1264 q 626 1188 671 1215 l 424 1058 l 394 1097 z "},"Ă":{"ha":876,"x_min":-19,"x_max":858,"o":"m 451 1106 q 344 1147 397 1106 q 271 1264 292 1188 l 306 1276 q 370 1208 326 1236 q 461 1181 414 1181 q 553 1208 510 1181 q 625 1282 597 1236 l 658 1267 q 569 1146 624 1186 q 451 1106 514 1106 m 739 208 q 761 128 751 172 q 768 56 771 83 l 858 61 l 856 0 l 554 0 l 556 46 q 639 115 639 47 q 628 178 639 139 l 588 308 l 232 300 l 176 151 q 133 56 156 97 l 238 61 l 235 0 l -19 0 l -18 46 q 62 89 31 47 q 129 219 93 131 l 443 999 l 474 999 l 739 208 m 424 806 l 365 650 q 281 428 349 610 l 254 360 l 572 360 q 426 806 493 608 l 424 806 z "},"Ắ":{"ha":876,"x_min":-19,"x_max":858,"o":"m 436 1221 l 526 1372 q 574 1408 547 1408 q 597 1400 589 1408 q 608 1372 608 1385 q 582 1321 608 1349 l 464 1197 l 436 1221 m 444 1065 q 347 1099 394 1065 q 278 1196 299 1133 l 310 1207 q 369 1151 329 1174 q 453 1128 410 1128 q 538 1151 497 1128 q 604 1211 579 1174 l 633 1199 q 552 1099 603 1132 q 444 1065 501 1065 m 739 208 q 761 128 751 172 q 768 56 771 83 l 858 61 l 856 0 l 554 0 l 556 46 q 639 115 639 47 q 628 178 639 139 l 588 308 l 232 300 l 176 151 q 133 56 156 97 l 238 61 l 235 0 l -19 0 l -18 46 q 62 89 31 47 q 129 219 93 131 l 443 999 l 474 999 l 739 208 m 424 806 l 365 650 q 281 428 349 610 l 254 360 l 572 360 q 426 806 493 608 l 424 806 z "},"Ặ":{"ha":876,"x_min":-19,"x_max":858,"o":"m 739 208 q 761 128 751 172 q 768 56 771 83 l 858 61 l 856 0 l 554 0 l 556 46 q 639 115 639 47 q 628 178 639 139 l 588 308 l 232 300 l 176 151 q 133 56 156 97 l 238 61 l 235 0 l -19 0 l -18 46 q 62 89 31 47 q 129 219 93 131 l 443 999 l 474 999 l 739 208 m 424 806 l 365 650 q 281 428 349 610 l 254 360 l 572 360 q 426 806 493 608 l 424 806 m 415 -114 q 458 -134 442 -114 q 475 -183 475 -154 q 454 -237 475 -215 q 406 -258 433 -258 q 363 -238 381 -258 q 344 -189 344 -218 q 366 -136 344 -158 q 415 -114 388 -114 m 465 1126 q 350 1163 401 1126 q 272 1269 299 1200 l 310 1286 q 376 1233 331 1256 q 472 1211 421 1211 q 570 1233 522 1211 q 643 1286 618 1256 l 679 1269 q 585 1163 642 1200 q 465 1126 529 1126 z "},"Ằ":{"ha":876,"x_min":-19,"x_max":858,"o":"m 338 1325 q 311 1376 311 1353 q 322 1404 311 1389 q 346 1413 331 1413 q 394 1376 374 1413 l 483 1225 l 456 1201 l 338 1325 m 444 1065 q 347 1099 394 1065 q 278 1196 299 1133 l 310 1207 q 369 1151 329 1174 q 453 1128 410 1128 q 538 1151 497 1128 q 604 1211 579 1174 l 633 1199 q 552 1099 603 1132 q 444 1065 501 1065 m 739 208 q 761 128 751 172 q 768 56 771 83 l 858 61 l 856 0 l 554 0 l 556 46 q 639 115 639 47 q 628 178 639 139 l 588 308 l 232 300 l 176 151 q 133 56 156 97 l 238 61 l 235 0 l -19 0 l -18 46 q 62 89 31 47 q 129 219 93 131 l 443 999 l 474 999 l 739 208 m 424 806 l 365 650 q 281 428 349 610 l 254 360 l 572 360 q 426 806 493 608 l 424 806 z "},"Ẳ":{"ha":876,"x_min":-19,"x_max":858,"o":"m 457 1431 q 544 1408 513 1431 q 576 1340 576 1385 q 574 1314 576 1333 q 549 1270 568 1286 q 496 1236 529 1254 q 465 1219 475 1226 q 453 1201 454 1211 l 410 1201 q 421 1223 413 1215 q 444 1240 429 1231 q 481 1269 468 1256 q 501 1314 494 1283 q 504 1336 504 1331 q 450 1385 504 1385 q 408 1373 428 1385 q 383 1347 388 1361 q 386 1331 386 1339 q 372 1308 386 1318 q 343 1299 357 1299 q 317 1306 328 1299 q 307 1329 307 1314 q 326 1376 307 1353 q 378 1415 344 1400 q 457 1431 413 1431 m 444 1065 q 347 1099 394 1065 q 278 1196 299 1133 l 310 1207 q 369 1151 329 1174 q 453 1128 410 1128 q 538 1151 497 1128 q 604 1211 579 1174 l 633 1199 q 552 1099 603 1132 q 444 1065 501 1065 m 739 208 q 761 128 751 172 q 768 56 771 83 l 858 61 l 856 0 l 554 0 l 556 46 q 639 115 639 47 q 628 178 639 139 l 588 308 l 232 300 l 176 151 q 133 56 156 97 l 238 61 l 235 0 l -19 0 l -18 46 q 62 89 31 47 q 129 219 93 131 l 443 999 l 474 999 l 739 208 m 424 806 l 365 650 q 281 428 349 610 l 254 360 l 572 360 q 426 806 493 608 l 424 806 z "},"Ẵ":{"ha":876,"x_min":-19,"x_max":858,"o":"m 544 1242 q 501 1250 519 1242 q 457 1275 482 1258 q 422 1296 435 1289 q 392 1303 408 1303 q 348 1288 371 1303 q 308 1250 325 1274 l 279 1265 q 333 1333 296 1306 q 404 1361 369 1361 q 449 1352 429 1361 q 489 1328 468 1343 q 521 1308 507 1314 q 551 1301 535 1301 q 635 1360 597 1301 l 663 1346 q 610 1267 643 1293 q 544 1242 578 1242 m 444 1065 q 347 1099 394 1065 q 278 1196 299 1133 l 310 1207 q 369 1151 329 1174 q 453 1128 410 1128 q 538 1151 497 1128 q 604 1211 579 1174 l 633 1199 q 552 1099 603 1132 q 444 1065 501 1065 m 739 208 q 761 128 751 172 q 768 56 771 83 l 858 61 l 856 0 l 554 0 l 556 46 q 639 115 639 47 q 628 178 639 139 l 588 308 l 232 300 l 176 151 q 133 56 156 97 l 238 61 l 235 0 l -19 0 l -18 46 q 62 89 31 47 q 129 219 93 131 l 443 999 l 474 999 l 739 208 m 424 806 l 365 650 q 281 428 349 610 l 254 360 l 572 360 q 426 806 493 608 l 424 806 z "},"Â":{"ha":876,"x_min":-19,"x_max":858,"o":"m 739 208 q 761 128 751 172 q 768 56 771 83 l 858 61 l 856 0 l 554 0 l 556 46 q 639 115 639 47 q 628 178 639 139 l 588 308 l 232 300 l 176 151 q 133 56 156 97 l 238 61 l 235 0 l -19 0 l -18 46 q 62 89 31 47 q 129 219 93 131 l 443 999 l 474 999 l 739 208 m 424 806 l 365 650 q 281 428 349 610 l 254 360 l 572 360 q 426 806 493 608 l 424 806 m 696 1060 l 454 1183 l 451 1183 l 215 1063 l 194 1100 l 467 1294 l 469 1294 l 721 1099 l 696 1060 z "},"Ấ":{"ha":876,"x_min":-19,"x_max":858,"o":"m 629 1181 l 719 1332 q 767 1368 740 1368 q 790 1360 782 1368 q 801 1332 801 1344 q 775 1281 801 1308 l 657 1157 l 629 1181 m 619 1046 l 454 1131 l 453 1131 l 292 1047 l 272 1082 l 463 1219 l 465 1219 l 642 1081 l 619 1046 m 739 208 q 761 128 751 172 q 768 56 771 83 l 858 61 l 856 0 l 554 0 l 556 46 q 639 115 639 47 q 628 178 639 139 l 588 308 l 232 300 l 176 151 q 133 56 156 97 l 238 61 l 235 0 l -19 0 l -18 46 q 62 89 31 47 q 129 219 93 131 l 443 999 l 474 999 l 739 208 m 424 806 l 365 650 q 281 428 349 610 l 254 360 l 572 360 q 426 806 493 608 l 424 806 z "},"Ậ":{"ha":876,"x_min":-19,"x_max":858,"o":"m 739 208 q 761 128 751 172 q 768 56 771 83 l 858 61 l 856 0 l 554 0 l 556 46 q 639 115 639 47 q 628 178 639 139 l 588 308 l 232 300 l 176 151 q 133 56 156 97 l 238 61 l 235 0 l -19 0 l -18 46 q 62 89 31 47 q 129 219 93 131 l 443 999 l 474 999 l 739 208 m 424 806 l 365 650 q 281 428 349 610 l 254 360 l 572 360 q 426 806 493 608 l 424 806 m 415 -114 q 458 -134 442 -114 q 475 -183 475 -154 q 454 -237 475 -215 q 406 -258 433 -258 q 363 -238 381 -258 q 344 -189 344 -218 q 366 -136 344 -158 q 415 -114 388 -114 m 696 1060 l 454 1183 l 451 1183 l 215 1063 l 194 1100 l 467 1294 l 469 1294 l 721 1099 l 696 1060 z "},"Ầ":{"ha":876,"x_min":-19,"x_max":858,"o":"m 478 1333 q 449 1389 449 1363 q 461 1419 449 1407 q 471 1426 464 1424 q 486 1429 478 1429 q 539 1390 515 1429 l 638 1224 l 607 1197 l 478 1333 m 619 1046 l 454 1131 l 453 1131 l 292 1047 l 272 1082 l 463 1219 l 465 1219 l 642 1081 l 619 1046 m 739 208 q 761 128 751 172 q 768 56 771 83 l 858 61 l 856 0 l 554 0 l 556 46 q 639 115 639 47 q 628 178 639 139 l 588 308 l 232 300 l 176 151 q 133 56 156 97 l 238 61 l 235 0 l -19 0 l -18 46 q 62 89 31 47 q 129 219 93 131 l 443 999 l 474 999 l 739 208 m 424 806 l 365 650 q 281 428 349 610 l 254 360 l 572 360 q 426 806 493 608 l 424 806 z "},"Ẩ":{"ha":876,"x_min":-19,"x_max":858,"o":"m 618 1422 q 706 1399 674 1422 q 738 1332 738 1376 q 735 1306 738 1325 q 710 1262 729 1278 q 657 1228 690 1246 q 626 1210 636 1218 q 614 1193 615 1203 l 571 1193 q 582 1215 574 1207 q 606 1232 590 1222 q 642 1261 629 1247 q 663 1306 656 1275 q 665 1328 665 1322 q 611 1376 665 1376 q 569 1365 589 1376 q 544 1339 549 1353 q 547 1322 547 1331 q 533 1300 547 1310 q 504 1290 518 1290 q 478 1298 489 1290 q 468 1321 468 1306 q 487 1368 468 1344 q 540 1407 506 1392 q 618 1422 574 1422 m 619 1046 l 454 1131 l 453 1131 l 292 1047 l 272 1082 l 463 1219 l 465 1219 l 642 1081 l 619 1046 m 739 208 q 761 128 751 172 q 768 56 771 83 l 858 61 l 856 0 l 554 0 l 556 46 q 639 115 639 47 q 628 178 639 139 l 588 308 l 232 300 l 176 151 q 133 56 156 97 l 238 61 l 235 0 l -19 0 l -18 46 q 62 89 31 47 q 129 219 93 131 l 443 999 l 474 999 l 739 208 m 424 806 l 365 650 q 281 428 349 610 l 254 360 l 572 360 q 426 806 493 608 l 424 806 z "},"Ẫ":{"ha":876,"x_min":-19,"x_max":858,"o":"m 542 1232 q 498 1240 517 1232 q 454 1265 479 1249 q 419 1286 432 1279 q 389 1293 406 1293 q 345 1278 368 1293 q 306 1240 322 1264 l 276 1256 q 330 1324 293 1296 q 401 1351 367 1351 q 446 1342 426 1351 q 486 1318 465 1333 q 518 1298 504 1304 q 549 1292 532 1292 q 632 1350 594 1292 l 660 1336 q 608 1258 640 1283 q 542 1232 575 1232 m 619 1046 l 454 1131 l 453 1131 l 292 1047 l 272 1082 l 463 1219 l 465 1219 l 642 1081 l 619 1046 m 739 208 q 761 128 751 172 q 768 56 771 83 l 858 61 l 856 0 l 554 0 l 556 46 q 639 115 639 47 q 628 178 639 139 l 588 308 l 232 300 l 176 151 q 133 56 156 97 l 238 61 l 235 0 l -19 0 l -18 46 q 62 89 31 47 q 129 219 93 131 l 443 999 l 474 999 l 739 208 m 424 806 l 365 650 q 281 428 349 610 l 254 360 l 572 360 q 426 806 493 608 l 424 806 z "},"Ä":{"ha":876,"x_min":-19,"x_max":858,"o":"m 739 208 q 761 128 751 172 q 768 56 771 83 l 858 61 l 856 0 l 554 0 l 556 46 q 639 115 639 47 q 628 178 639 139 l 588 308 l 232 300 l 176 151 q 133 56 156 97 l 238 61 l 235 0 l -19 0 l -18 46 q 62 89 31 47 q 129 219 93 131 l 443 999 l 474 999 l 739 208 m 424 806 l 365 650 q 281 428 349 610 l 254 360 l 572 360 q 426 806 493 608 l 424 806 m 342 1083 q 295 1106 314 1083 q 276 1163 276 1129 q 299 1224 276 1199 q 351 1249 321 1249 q 395 1227 378 1249 q 413 1172 413 1206 q 391 1110 413 1136 q 342 1083 369 1083 m 565 1083 q 520 1106 539 1083 q 501 1163 501 1129 q 524 1224 501 1199 q 575 1249 546 1249 q 620 1226 603 1249 q 638 1169 638 1203 q 616 1108 638 1133 q 565 1083 594 1083 z "},"Ạ":{"ha":876,"x_min":-19,"x_max":858,"o":"m 739 208 q 761 128 751 172 q 768 56 771 83 l 858 61 l 856 0 l 554 0 l 556 46 q 639 115 639 47 q 628 178 639 139 l 588 308 l 232 300 l 176 151 q 133 56 156 97 l 238 61 l 235 0 l -19 0 l -18 46 q 62 89 31 47 q 129 219 93 131 l 443 999 l 474 999 l 739 208 m 424 806 l 365 650 q 281 428 349 610 l 254 360 l 572 360 q 426 806 493 608 l 424 806 m 415 -114 q 458 -134 442 -114 q 475 -183 475 -154 q 454 -237 475 -215 q 406 -258 433 -258 q 363 -238 381 -258 q 344 -189 344 -218 q 366 -136 344 -158 q 415 -114 388 -114 z "},"À":{"ha":876,"x_min":-19,"x_max":858,"o":"m 739 208 q 761 128 751 172 q 768 56 771 83 l 858 61 l 856 0 l 554 0 l 556 46 q 639 115 639 47 q 628 178 639 139 l 588 308 l 232 300 l 176 151 q 133 56 156 97 l 238 61 l 235 0 l -19 0 l -18 46 q 62 89 31 47 q 129 219 93 131 l 443 999 l 474 999 l 739 208 m 424 806 l 365 650 q 281 428 349 610 l 254 360 l 572 360 q 426 806 493 608 l 424 806 m 308 1188 q 264 1247 264 1215 q 274 1274 264 1264 q 307 1289 289 1289 q 364 1261 332 1289 l 540 1097 l 511 1058 l 308 1188 z "},"Ả":{"ha":876,"x_min":-19,"x_max":858,"o":"m 739 208 q 761 128 751 172 q 768 56 771 83 l 858 61 l 856 0 l 554 0 l 556 46 q 639 115 639 47 q 628 178 639 139 l 588 308 l 232 300 l 176 151 q 133 56 156 97 l 238 61 l 235 0 l -19 0 l -18 46 q 62 89 31 47 q 129 219 93 131 l 443 999 l 474 999 l 739 208 m 424 806 l 365 650 q 281 428 349 610 l 254 360 l 572 360 q 426 806 493 608 l 424 806 m 456 1303 q 551 1278 517 1303 q 586 1204 586 1253 q 583 1175 586 1197 q 556 1126 578 1144 q 497 1089 535 1108 q 462 1069 472 1076 q 450 1050 451 1061 l 403 1050 q 415 1074 406 1065 q 442 1094 424 1083 q 482 1125 467 1108 q 504 1175 497 1142 q 507 1199 507 1192 q 447 1253 507 1253 q 401 1240 424 1253 q 374 1211 379 1226 q 378 1189 379 1200 q 360 1167 375 1175 q 329 1158 344 1158 q 290 1192 290 1158 q 310 1244 290 1218 q 369 1286 331 1269 q 456 1303 407 1303 z "},"Ā":{"ha":876,"x_min":-19,"x_max":858,"o":"m 739 208 q 761 128 751 172 q 768 56 771 83 l 858 61 l 856 0 l 554 0 l 556 46 q 639 115 639 47 q 628 178 639 139 l 588 308 l 232 300 l 176 151 q 133 56 156 97 l 238 61 l 235 0 l -19 0 l -18 46 q 62 89 31 47 q 129 219 93 131 l 443 999 l 474 999 l 739 208 m 424 806 l 365 650 q 281 428 349 610 l 254 360 l 572 360 q 426 806 493 608 l 424 806 m 274 1160 l 278 1238 l 646 1238 l 642 1165 l 274 1160 z "},"Ą":{"ha":876,"x_min":-19,"x_max":858,"o":"m 756 0 q 620 -96 675 -35 q 565 -224 565 -157 q 587 -294 565 -268 q 649 -321 608 -321 q 754 -276 704 -321 l 774 -300 q 694 -362 740 -336 q 603 -387 649 -387 q 511 -351 544 -387 q 478 -256 478 -315 q 532 -112 478 -179 q 672 0 586 -46 l 554 0 l 556 46 q 639 115 639 47 q 628 178 639 139 l 588 308 l 232 300 l 176 151 q 133 56 156 97 l 238 61 l 235 0 l -19 0 l -18 46 q 62 89 31 47 q 129 219 93 131 l 443 999 l 474 999 l 739 208 q 761 128 751 172 q 768 56 771 83 l 858 61 l 856 0 l 756 0 m 572 360 q 426 806 493 608 l 424 806 l 365 650 q 281 428 349 610 l 254 360 l 572 360 z "},"Å":{"ha":876,"x_min":-19,"x_max":858,"o":"m 739 208 q 761 128 751 172 q 768 56 771 83 l 858 61 l 856 0 l 554 0 l 556 46 q 639 115 639 47 q 628 178 639 139 l 588 308 l 232 300 l 176 151 q 133 56 156 97 l 238 61 l 235 0 l -19 0 l -18 46 q 62 89 31 47 q 129 219 93 131 l 443 999 l 474 999 l 739 208 m 424 806 l 365 650 q 281 428 349 610 l 254 360 l 572 360 q 426 806 493 608 l 424 806 m 458 999 q 348 1036 393 999 q 303 1147 303 1074 q 349 1257 303 1214 q 456 1300 394 1300 q 565 1263 519 1300 q 611 1153 611 1225 q 565 1042 611 1085 q 458 999 519 999 m 461 1040 q 515 1068 492 1040 q 538 1139 538 1096 q 515 1229 538 1199 q 456 1260 492 1260 q 399 1231 421 1260 q 376 1156 376 1201 q 400 1073 376 1106 q 461 1040 424 1040 z "},"Ã":{"ha":876,"x_min":-19,"x_max":858,"o":"m 739 208 q 761 128 751 172 q 768 56 771 83 l 858 61 l 856 0 l 554 0 l 556 46 q 639 115 639 47 q 628 178 639 139 l 588 308 l 232 300 l 176 151 q 133 56 156 97 l 238 61 l 235 0 l -19 0 l -18 46 q 62 89 31 47 q 129 219 93 131 l 443 999 l 474 999 l 739 208 m 424 806 l 365 650 q 281 428 349 610 l 254 360 l 572 360 q 426 806 493 608 l 424 806 m 342 1181 q 228 1101 282 1181 l 189 1125 q 264 1223 217 1186 q 357 1260 311 1260 q 423 1247 396 1260 q 485 1207 450 1233 q 530 1178 513 1188 q 569 1168 547 1168 q 690 1250 639 1168 l 726 1231 q 653 1120 696 1151 q 557 1089 610 1089 q 497 1102 524 1089 q 438 1139 469 1115 q 386 1171 406 1161 q 342 1181 367 1181 z "},"Æ":{"ha":1326,"x_min":-33,"x_max":1257,"o":"m 1232 729 l 1186 729 q 1144 885 1192 843 q 1008 924 1097 926 l 889 921 q 816 903 839 919 q 786 855 793 886 q 775 756 779 824 l 763 532 l 865 532 q 965 540 932 532 q 1016 575 999 547 q 1036 663 1033 603 l 1082 663 l 1067 360 l 1021 360 q 1009 445 1024 419 q 963 476 994 471 q 863 482 932 482 q 760 479 826 482 l 743 164 q 733 56 739 86 l 1001 51 q 1151 101 1097 50 q 1210 271 1204 153 l 1257 271 l 1235 0 l 524 0 l 526 50 q 606 81 585 51 q 629 181 626 111 l 636 307 l 297 300 l 121 57 l 121 56 l 228 61 l 225 0 l -33 0 l -31 46 q 51 78 17 46 q 131 174 85 111 l 669 915 l 671 917 l 546 911 l 549 972 l 1238 972 l 1232 729 m 661 808 l 660 808 l 340 360 l 639 360 l 661 808 z "},"B":{"ha":860,"x_min":56,"x_max":794,"o":"m 417 975 q 665 917 582 975 q 740 738 749 858 q 675 603 736 664 q 504 522 614 542 l 504 519 q 720 457 646 519 q 794 289 794 394 q 751 135 794 200 q 631 35 707 69 q 457 0 554 0 l 56 0 l 58 46 q 128 68 107 47 q 155 119 150 89 q 164 224 160 149 l 194 807 q 204 917 196 872 l 103 911 l 107 972 q 254 974 206 972 l 417 975 m 421 925 q 353 913 376 925 q 322 872 331 900 q 310 790 313 844 l 296 532 q 397 535 336 532 q 565 602 511 539 q 618 756 618 665 q 560 888 618 850 q 421 925 503 925 m 436 482 q 293 478 360 482 l 276 165 q 267 57 272 88 q 367 54 293 54 l 414 54 q 597 113 529 54 q 664 281 664 171 q 601 434 664 386 q 436 482 538 482 z "},"C":{"ha":953,"x_min":68,"x_max":919,"o":"m 572 994 q 846 911 724 994 l 847 911 l 844 986 l 919 986 l 903 665 l 853 665 q 773 866 846 794 q 578 938 700 938 q 388 878 475 938 q 250 710 301 818 q 199 460 199 601 q 244 247 199 340 q 370 101 290 153 q 549 50 450 50 q 730 90 642 50 q 876 206 818 131 l 911 176 q 717 22 824 67 q 508 -22 611 -22 q 278 38 378 -22 q 123 204 178 99 q 68 440 68 310 q 126 709 68 582 q 298 915 183 836 q 572 994 413 994 z "},"Ć":{"ha":953,"x_min":68,"x_max":919,"o":"m 572 994 q 846 911 724 994 l 847 911 l 844 986 l 919 986 l 903 665 l 853 665 q 773 866 846 794 q 578 938 700 938 q 388 878 475 938 q 250 710 301 818 q 199 460 199 601 q 244 247 199 340 q 370 101 290 153 q 549 50 450 50 q 730 90 642 50 q 876 206 818 131 l 911 176 q 717 22 824 67 q 508 -22 611 -22 q 278 38 378 -22 q 123 204 178 99 q 68 440 68 310 q 126 709 68 582 q 298 915 183 836 q 572 994 413 994 m 504 1096 l 613 1279 q 671 1324 639 1324 q 699 1313 688 1324 q 713 1279 713 1299 q 681 1217 713 1250 l 538 1068 l 504 1096 z "},"Č":{"ha":953,"x_min":68,"x_max":919,"o":"m 572 994 q 846 911 724 994 l 847 911 l 844 986 l 919 986 l 903 665 l 853 665 q 773 866 846 794 q 578 938 700 938 q 388 878 475 938 q 250 710 301 818 q 199 460 199 601 q 244 247 199 340 q 370 101 290 153 q 549 50 450 50 q 730 90 642 50 q 876 206 818 131 l 911 176 q 717 22 824 67 q 508 -22 611 -22 q 278 38 378 -22 q 123 204 178 99 q 68 440 68 310 q 126 709 68 582 q 298 915 183 836 q 572 994 413 994 m 599 1074 l 344 1272 l 371 1313 q 460 1260 401 1296 q 603 1181 554 1204 l 606 1181 q 767 1268 669 1210 l 849 1315 l 869 1279 l 601 1074 l 599 1074 z "},"Ç":{"ha":957,"x_min":69,"x_max":921,"o":"m 574 994 q 720 974 653 994 q 849 911 788 954 l 846 986 l 921 986 l 904 665 l 854 665 q 774 866 847 794 q 579 938 701 938 q 390 878 476 938 q 251 710 303 818 q 200 460 200 601 q 246 247 200 340 q 372 101 292 153 q 550 50 451 50 q 731 90 643 50 q 878 206 819 131 l 913 176 q 719 22 825 67 q 510 -22 613 -22 l 486 -22 l 454 -104 q 501 -86 474 -93 q 549 -79 529 -79 q 619 -104 596 -79 q 643 -168 643 -129 q 551 -290 643 -247 q 354 -349 460 -333 l 346 -303 q 476 -258 422 -289 q 529 -187 529 -228 q 516 -156 529 -167 q 481 -144 503 -144 q 415 -165 442 -144 l 371 -142 l 411 -12 q 230 72 307 8 q 111 231 153 136 q 69 439 69 326 q 127 708 69 581 q 299 915 185 835 q 574 994 413 994 z "},"Ĉ":{"ha":953,"x_min":68,"x_max":919,"o":"m 572 994 q 846 911 724 994 l 847 911 l 844 986 l 919 986 l 903 665 l 853 665 q 773 866 846 794 q 578 938 700 938 q 388 878 475 938 q 250 710 301 818 q 199 460 199 601 q 244 247 199 340 q 370 101 290 153 q 549 50 450 50 q 730 90 642 50 q 876 206 818 131 l 911 176 q 717 22 824 67 q 508 -22 611 -22 q 278 38 378 -22 q 123 204 178 99 q 68 440 68 310 q 126 709 68 582 q 298 915 183 836 q 572 994 413 994 m 844 1060 l 603 1183 l 600 1183 l 364 1063 l 343 1100 l 615 1294 l 618 1294 l 869 1099 l 844 1060 z "},"D":{"ha":1025,"x_min":56,"x_max":965,"o":"m 429 974 q 822 861 679 975 q 965 522 965 747 q 903 263 965 382 q 716 72 840 144 q 415 0 592 0 l 56 0 l 58 46 q 128 68 107 47 q 155 118 150 89 q 163 217 160 147 l 196 817 q 206 917 201 886 l 103 911 l 107 972 l 429 974 m 421 922 q 347 906 369 922 q 317 860 324 890 q 307 765 310 831 l 275 164 q 265 56 271 86 q 414 53 326 53 q 633 115 538 53 q 783 286 729 178 q 836 528 836 394 q 732 817 836 713 q 421 922 628 922 z "},"Ð":{"ha":1025,"x_min":33,"x_max":965,"o":"m 429 974 q 822 861 679 975 q 965 522 965 747 q 903 263 965 382 q 716 72 840 144 q 415 0 592 0 l 56 0 l 58 46 q 128 68 107 47 q 155 118 150 89 q 163 217 160 147 l 176 457 l 33 456 l 36 525 l 179 525 l 196 817 q 206 917 201 886 l 103 911 l 107 972 l 429 974 m 414 53 q 633 115 538 53 q 783 286 729 178 q 836 528 836 394 q 732 817 836 713 q 421 922 628 922 q 347 906 369 922 q 317 860 324 890 q 307 765 310 831 l 294 525 l 475 525 l 472 461 l 290 458 l 275 164 q 265 56 271 86 q 414 53 326 53 z "},"Ď":{"ha":1025,"x_min":56,"x_max":965,"o":"m 429 974 q 822 861 679 975 q 965 522 965 747 q 903 263 965 382 q 716 72 840 144 q 415 0 592 0 l 56 0 l 58 46 q 128 68 107 47 q 155 118 150 89 q 163 217 160 147 l 196 817 q 206 917 201 886 l 103 911 l 107 972 l 429 974 m 421 922 q 347 906 369 922 q 317 860 324 890 q 307 765 310 831 l 275 164 q 265 56 271 86 q 414 53 326 53 q 633 115 538 53 q 783 286 729 178 q 836 528 836 394 q 732 817 836 713 q 421 922 628 922 m 549 1074 l 294 1272 l 321 1313 q 410 1260 351 1296 q 553 1181 504 1204 l 556 1181 q 717 1268 619 1210 l 799 1315 l 819 1279 l 551 1074 l 549 1074 z "},"Đ":{"ha":1025,"x_min":33,"x_max":965,"o":"m 429 974 q 822 861 679 975 q 965 522 965 747 q 903 263 965 382 q 716 72 840 144 q 415 0 592 0 l 56 0 l 58 46 q 128 68 107 47 q 155 118 150 89 q 163 217 160 147 l 176 457 l 33 456 l 36 525 l 179 525 l 196 817 q 206 917 201 886 l 103 911 l 107 972 l 429 974 m 414 53 q 633 115 538 53 q 783 286 729 178 q 836 528 836 394 q 732 817 836 713 q 421 922 628 922 q 347 906 369 922 q 317 860 324 890 q 307 765 310 831 l 294 525 l 475 525 l 472 461 l 290 458 l 275 164 q 265 56 271 86 q 414 53 326 53 z "},"E":{"ha":860,"x_min":57,"x_max":790,"o":"m 765 729 l 719 729 q 678 885 725 843 q 542 924 631 926 l 422 921 q 349 903 372 919 q 319 855 326 886 q 308 756 313 824 l 296 533 l 396 532 q 496 539 461 531 q 549 575 531 547 q 569 663 567 603 l 615 663 l 600 360 l 554 360 q 545 439 556 413 q 510 474 535 465 q 439 483 485 483 l 394 482 l 293 478 l 276 160 q 267 51 272 82 l 532 56 q 683 105 629 57 q 743 271 738 153 l 790 271 l 768 0 l 57 0 l 60 46 q 130 68 108 47 q 156 118 151 89 q 164 217 161 147 l 197 817 q 207 917 199 864 l 106 911 l 108 972 l 771 972 l 765 729 z "},"É":{"ha":860,"x_min":57,"x_max":790,"o":"m 765 729 l 719 729 q 678 885 725 843 q 542 924 631 926 l 422 921 q 349 903 372 919 q 319 855 326 886 q 308 756 313 824 l 296 533 l 396 532 q 496 539 461 531 q 549 575 531 547 q 569 663 567 603 l 615 663 l 600 360 l 554 360 q 545 439 556 413 q 510 474 535 465 q 439 483 485 483 l 394 482 l 293 478 l 276 160 q 267 51 272 82 l 532 56 q 683 105 629 57 q 743 271 738 153 l 790 271 l 768 0 l 57 0 l 60 46 q 130 68 108 47 q 156 118 151 89 q 164 217 161 147 l 197 817 q 207 917 199 864 l 106 911 l 108 972 l 771 972 l 765 729 m 451 1097 l 628 1261 q 685 1289 660 1289 q 718 1274 703 1289 q 728 1247 728 1264 q 683 1188 728 1215 l 481 1058 l 451 1097 z "},"Ě":{"ha":860,"x_min":57,"x_max":790,"o":"m 765 729 l 719 729 q 678 885 725 843 q 542 924 631 926 l 422 921 q 349 903 372 919 q 319 855 326 886 q 308 756 313 824 l 296 533 l 396 532 q 496 539 461 531 q 549 575 531 547 q 569 663 567 603 l 615 663 l 600 360 l 554 360 q 545 439 556 413 q 510 474 535 465 q 439 483 485 483 l 394 482 l 293 478 l 276 160 q 267 51 272 82 l 532 56 q 683 105 629 57 q 743 271 738 153 l 790 271 l 768 0 l 57 0 l 60 46 q 130 68 108 47 q 156 118 151 89 q 164 217 161 147 l 197 817 q 207 917 199 864 l 106 911 l 108 972 l 771 972 l 765 729 m 507 1074 l 253 1272 l 279 1313 q 368 1260 310 1296 q 511 1181 463 1204 l 514 1181 q 675 1268 578 1210 l 757 1315 l 778 1279 l 510 1074 l 507 1074 z "},"Ê":{"ha":860,"x_min":57,"x_max":790,"o":"m 765 729 l 719 729 q 678 885 725 843 q 542 924 631 926 l 422 921 q 349 903 372 919 q 319 855 326 886 q 308 756 313 824 l 296 533 l 396 532 q 496 539 461 531 q 549 575 531 547 q 569 663 567 603 l 615 663 l 600 360 l 554 360 q 545 439 556 413 q 510 474 535 465 q 439 483 485 483 l 394 482 l 293 478 l 276 160 q 267 51 272 82 l 532 56 q 683 105 629 57 q 743 271 738 153 l 790 271 l 768 0 l 57 0 l 60 46 q 130 68 108 47 q 156 118 151 89 q 164 217 161 147 l 197 817 q 207 917 199 864 l 106 911 l 108 972 l 771 972 l 765 729 m 753 1060 l 511 1183 l 508 1183 l 272 1063 l 251 1100 l 524 1294 l 526 1294 l 778 1099 l 753 1060 z "},"Ế":{"ha":860,"x_min":57,"x_max":858,"o":"m 686 1181 l 776 1332 q 824 1368 797 1368 q 847 1360 839 1368 q 858 1332 858 1344 q 832 1281 858 1308 l 714 1157 l 686 1181 m 676 1046 l 511 1131 l 510 1131 l 349 1047 l 329 1082 l 519 1219 l 522 1219 l 699 1081 l 676 1046 m 765 729 l 719 729 q 678 885 725 843 q 542 924 631 926 l 422 921 q 349 903 372 919 q 319 855 326 886 q 308 756 313 824 l 296 533 l 396 532 q 496 539 461 531 q 549 575 531 547 q 569 663 567 603 l 615 663 l 600 360 l 554 360 q 545 439 556 413 q 510 474 535 465 q 439 483 485 483 l 394 482 l 293 478 l 276 160 q 267 51 272 82 l 532 56 q 683 105 629 57 q 743 271 738 153 l 790 271 l 768 0 l 57 0 l 60 46 q 130 68 108 47 q 156 118 151 89 q 164 217 161 147 l 197 817 q 207 917 199 864 l 106 911 l 108 972 l 771 972 l 765 729 z "},"Ệ":{"ha":860,"x_min":57,"x_max":790,"o":"m 765 729 l 719 729 q 678 885 725 843 q 542 924 631 926 l 422 921 q 349 903 372 919 q 319 855 326 886 q 308 756 313 824 l 296 533 l 396 532 q 496 539 461 531 q 549 575 531 547 q 569 663 567 603 l 615 663 l 600 360 l 554 360 q 545 439 556 413 q 510 474 535 465 q 439 483 485 483 l 394 482 l 293 478 l 276 160 q 267 51 272 82 l 532 56 q 683 105 629 57 q 743 271 738 153 l 790 271 l 768 0 l 57 0 l 60 46 q 130 68 108 47 q 156 118 151 89 q 164 217 161 147 l 197 817 q 207 917 199 864 l 106 911 l 108 972 l 771 972 l 765 729 m 457 -114 q 500 -134 483 -114 q 517 -183 517 -154 q 496 -237 517 -215 q 447 -258 475 -258 q 404 -238 422 -258 q 386 -189 386 -218 q 408 -136 386 -158 q 457 -114 429 -114 m 753 1060 l 511 1183 l 508 1183 l 272 1063 l 251 1100 l 524 1294 l 526 1294 l 778 1099 l 753 1060 z "},"Ề":{"ha":860,"x_min":57,"x_max":790,"o":"m 535 1333 q 506 1389 506 1363 q 518 1419 506 1407 q 528 1426 521 1424 q 543 1429 535 1429 q 596 1390 572 1429 l 694 1224 l 664 1197 l 535 1333 m 676 1046 l 511 1131 l 510 1131 l 349 1047 l 329 1082 l 519 1219 l 522 1219 l 699 1081 l 676 1046 m 765 729 l 719 729 q 678 885 725 843 q 542 924 631 926 l 422 921 q 349 903 372 919 q 319 855 326 886 q 308 756 313 824 l 296 533 l 396 532 q 496 539 461 531 q 549 575 531 547 q 569 663 567 603 l 615 663 l 600 360 l 554 360 q 545 439 556 413 q 510 474 535 465 q 439 483 485 483 l 394 482 l 293 478 l 276 160 q 267 51 272 82 l 532 56 q 683 105 629 57 q 743 271 738 153 l 790 271 l 768 0 l 57 0 l 60 46 q 130 68 108 47 q 156 118 151 89 q 164 217 161 147 l 197 817 q 207 917 199 864 l 106 911 l 108 972 l 771 972 l 765 729 z "},"Ể":{"ha":860,"x_min":57,"x_max":794,"o":"m 675 1422 q 763 1399 731 1422 q 794 1332 794 1376 q 792 1306 794 1325 q 767 1262 786 1278 q 714 1228 747 1246 q 683 1210 693 1218 q 671 1193 672 1203 l 628 1193 q 639 1215 631 1207 q 663 1232 647 1222 q 699 1261 686 1247 q 719 1306 713 1275 q 722 1328 722 1322 q 668 1376 722 1376 q 626 1365 646 1376 q 601 1339 606 1353 q 604 1322 604 1331 q 590 1300 604 1310 q 561 1290 575 1290 q 535 1298 546 1290 q 525 1321 525 1306 q 544 1368 525 1344 q 597 1407 563 1392 q 675 1422 631 1422 m 676 1046 l 511 1131 l 510 1131 l 349 1047 l 329 1082 l 519 1219 l 522 1219 l 699 1081 l 676 1046 m 765 729 l 719 729 q 678 885 725 843 q 542 924 631 926 l 422 921 q 349 903 372 919 q 319 855 326 886 q 308 756 313 824 l 296 533 l 396 532 q 496 539 461 531 q 549 575 531 547 q 569 663 567 603 l 615 663 l 600 360 l 554 360 q 545 439 556 413 q 510 474 535 465 q 439 483 485 483 l 394 482 l 293 478 l 276 160 q 267 51 272 82 l 532 56 q 683 105 629 57 q 743 271 738 153 l 790 271 l 768 0 l 57 0 l 60 46 q 130 68 108 47 q 156 118 151 89 q 164 217 161 147 l 197 817 q 207 917 199 864 l 106 911 l 108 972 l 771 972 l 765 729 z "},"Ễ":{"ha":860,"x_min":57,"x_max":790,"o":"m 599 1232 q 555 1240 574 1232 q 511 1265 536 1249 q 476 1286 489 1279 q 446 1293 463 1293 q 402 1278 425 1293 q 363 1240 379 1264 l 333 1256 q 387 1324 350 1296 q 458 1351 424 1351 q 503 1342 483 1351 q 543 1318 522 1333 q 575 1298 561 1304 q 606 1292 589 1292 q 689 1350 651 1292 l 717 1336 q 665 1258 697 1283 q 599 1232 632 1232 m 676 1046 l 511 1131 l 510 1131 l 349 1047 l 329 1082 l 519 1219 l 522 1219 l 699 1081 l 676 1046 m 765 729 l 719 729 q 678 885 725 843 q 542 924 631 926 l 422 921 q 349 903 372 919 q 319 855 326 886 q 308 756 313 824 l 296 533 l 396 532 q 496 539 461 531 q 549 575 531 547 q 569 663 567 603 l 615 663 l 600 360 l 554 360 q 545 439 556 413 q 510 474 535 465 q 439 483 485 483 l 394 482 l 293 478 l 276 160 q 267 51 272 82 l 532 56 q 683 105 629 57 q 743 271 738 153 l 790 271 l 768 0 l 57 0 l 60 46 q 130 68 108 47 q 156 118 151 89 q 164 217 161 147 l 197 817 q 207 917 199 864 l 106 911 l 108 972 l 771 972 l 765 729 z "},"Ë":{"ha":860,"x_min":57,"x_max":790,"o":"m 765 729 l 719 729 q 678 885 725 843 q 542 924 631 926 l 422 921 q 349 903 372 919 q 319 855 326 886 q 308 756 313 824 l 296 533 l 396 532 q 496 539 461 531 q 549 575 531 547 q 569 663 567 603 l 615 663 l 600 360 l 554 360 q 545 439 556 413 q 510 474 535 465 q 439 483 485 483 l 394 482 l 293 478 l 276 160 q 267 51 272 82 l 532 56 q 683 105 629 57 q 743 271 738 153 l 790 271 l 768 0 l 57 0 l 60 46 q 130 68 108 47 q 156 118 151 89 q 164 217 161 147 l 197 817 q 207 917 199 864 l 106 911 l 108 972 l 771 972 l 765 729 m 399 1083 q 352 1106 371 1083 q 333 1163 333 1129 q 356 1224 333 1199 q 408 1249 378 1249 q 452 1227 435 1249 q 469 1172 469 1206 q 448 1110 469 1136 q 399 1083 426 1083 m 622 1083 q 577 1106 596 1083 q 558 1163 558 1129 q 581 1224 558 1199 q 632 1249 603 1249 q 677 1226 660 1249 q 694 1169 694 1203 q 673 1108 694 1133 q 622 1083 651 1083 z "},"Ė":{"ha":860,"x_min":57,"x_max":790,"o":"m 765 729 l 719 729 q 678 885 725 843 q 542 924 631 926 l 422 921 q 349 903 372 919 q 319 855 326 886 q 308 756 313 824 l 296 533 l 396 532 q 496 539 461 531 q 549 575 531 547 q 569 663 567 603 l 615 663 l 600 360 l 554 360 q 545 439 556 413 q 510 474 535 465 q 439 483 485 483 l 394 482 l 293 478 l 276 160 q 267 51 272 82 l 532 56 q 683 105 629 57 q 743 271 738 153 l 790 271 l 768 0 l 57 0 l 60 46 q 130 68 108 47 q 156 118 151 89 q 164 217 161 147 l 197 817 q 207 917 199 864 l 106 911 l 108 972 l 771 972 l 765 729 m 522 1271 q 570 1249 551 1271 q 589 1196 589 1228 q 566 1135 589 1160 q 513 1110 543 1110 q 463 1132 483 1110 q 443 1188 443 1154 q 467 1247 443 1222 q 522 1271 490 1271 z "},"Ẹ":{"ha":860,"x_min":57,"x_max":790,"o":"m 765 729 l 719 729 q 678 885 725 843 q 542 924 631 926 l 422 921 q 349 903 372 919 q 319 855 326 886 q 308 756 313 824 l 296 533 l 396 532 q 496 539 461 531 q 549 575 531 547 q 569 663 567 603 l 615 663 l 600 360 l 554 360 q 545 439 556 413 q 510 474 535 465 q 439 483 485 483 l 394 482 l 293 478 l 276 160 q 267 51 272 82 l 532 56 q 683 105 629 57 q 743 271 738 153 l 790 271 l 768 0 l 57 0 l 60 46 q 130 68 108 47 q 156 118 151 89 q 164 217 161 147 l 197 817 q 207 917 199 864 l 106 911 l 108 972 l 771 972 l 765 729 m 457 -114 q 500 -134 483 -114 q 517 -183 517 -154 q 496 -237 517 -215 q 447 -258 475 -258 q 404 -238 422 -258 q 386 -189 386 -218 q 408 -136 386 -158 q 457 -114 429 -114 z "},"È":{"ha":860,"x_min":57,"x_max":790,"o":"m 765 729 l 719 729 q 678 885 725 843 q 542 924 631 926 l 422 921 q 349 903 372 919 q 319 855 326 886 q 308 756 313 824 l 296 533 l 396 532 q 496 539 461 531 q 549 575 531 547 q 569 663 567 603 l 615 663 l 600 360 l 554 360 q 545 439 556 413 q 510 474 535 465 q 439 483 485 483 l 394 482 l 293 478 l 276 160 q 267 51 272 82 l 532 56 q 683 105 629 57 q 743 271 738 153 l 790 271 l 768 0 l 57 0 l 60 46 q 130 68 108 47 q 156 118 151 89 q 164 217 161 147 l 197 817 q 207 917 199 864 l 106 911 l 108 972 l 771 972 l 765 729 m 365 1188 q 321 1247 321 1215 q 331 1274 321 1264 q 364 1289 346 1289 q 421 1261 389 1289 l 597 1097 l 568 1058 l 365 1188 z "},"Ẻ":{"ha":860,"x_min":57,"x_max":790,"o":"m 765 729 l 719 729 q 678 885 725 843 q 542 924 631 926 l 422 921 q 349 903 372 919 q 319 855 326 886 q 308 756 313 824 l 296 533 l 396 532 q 496 539 461 531 q 549 575 531 547 q 569 663 567 603 l 615 663 l 600 360 l 554 360 q 545 439 556 413 q 510 474 535 465 q 439 483 485 483 l 394 482 l 293 478 l 276 160 q 267 51 272 82 l 532 56 q 683 105 629 57 q 743 271 738 153 l 790 271 l 768 0 l 57 0 l 60 46 q 130 68 108 47 q 156 118 151 89 q 164 217 161 147 l 197 817 q 207 917 199 864 l 106 911 l 108 972 l 771 972 l 765 729 m 513 1303 q 608 1278 574 1303 q 643 1204 643 1253 q 640 1175 643 1197 q 613 1126 635 1144 q 554 1089 592 1108 q 519 1069 529 1076 q 507 1050 508 1061 l 460 1050 q 472 1074 463 1065 q 499 1094 481 1083 q 539 1125 524 1108 q 561 1175 554 1142 q 564 1199 564 1192 q 504 1253 564 1253 q 458 1240 481 1253 q 431 1211 436 1226 q 435 1189 436 1200 q 417 1167 432 1175 q 386 1158 401 1158 q 347 1192 347 1158 q 367 1244 347 1218 q 426 1286 388 1269 q 513 1303 464 1303 z "},"Ē":{"ha":860,"x_min":57,"x_max":790,"o":"m 765 729 l 719 729 q 678 885 725 843 q 542 924 631 926 l 422 921 q 349 903 372 919 q 319 855 326 886 q 308 756 313 824 l 296 533 l 396 532 q 496 539 461 531 q 549 575 531 547 q 569 663 567 603 l 615 663 l 600 360 l 554 360 q 545 439 556 413 q 510 474 535 465 q 439 483 485 483 l 394 482 l 293 478 l 276 160 q 267 51 272 82 l 532 56 q 683 105 629 57 q 743 271 738 153 l 790 271 l 768 0 l 57 0 l 60 46 q 130 68 108 47 q 156 118 151 89 q 164 217 161 147 l 197 817 q 207 917 199 864 l 106 911 l 108 972 l 771 972 l 765 729 m 331 1160 l 335 1238 l 703 1238 l 699 1165 l 331 1160 z "},"Ę":{"ha":860,"x_min":57,"x_max":790,"o":"m 740 0 q 605 -96 660 -35 q 550 -224 550 -157 q 572 -294 550 -268 q 633 -321 593 -321 q 739 -276 689 -321 l 758 -300 q 679 -362 725 -336 q 588 -387 633 -387 q 496 -351 529 -387 q 463 -256 463 -315 q 517 -112 463 -179 q 657 0 571 -46 l 57 0 l 60 46 q 130 68 108 47 q 156 118 151 89 q 164 217 161 147 l 197 817 q 207 917 199 864 l 106 911 l 108 972 l 771 972 l 765 729 l 719 729 q 678 885 725 843 q 542 924 631 926 l 422 921 q 349 903 372 919 q 319 855 326 886 q 308 756 313 824 l 296 533 l 396 532 q 496 539 461 531 q 549 575 531 547 q 569 663 567 603 l 615 663 l 600 360 l 554 360 q 545 439 556 413 q 510 474 535 465 q 439 483 485 483 l 394 482 l 293 478 l 276 160 q 267 51 272 82 l 532 56 q 683 105 629 57 q 743 271 738 153 l 790 271 l 768 0 l 740 0 z "},"Ẽ":{"ha":860,"x_min":57,"x_max":790,"o":"m 765 729 l 719 729 q 678 885 725 843 q 542 924 631 926 l 422 921 q 349 903 372 919 q 319 855 326 886 q 308 756 313 824 l 296 533 l 396 532 q 496 539 461 531 q 549 575 531 547 q 569 663 567 603 l 615 663 l 600 360 l 554 360 q 545 439 556 413 q 510 474 535 465 q 439 483 485 483 l 394 482 l 293 478 l 276 160 q 267 51 272 82 l 532 56 q 683 105 629 57 q 743 271 738 153 l 790 271 l 768 0 l 57 0 l 60 46 q 130 68 108 47 q 156 118 151 89 q 164 217 161 147 l 197 817 q 207 917 199 864 l 106 911 l 108 972 l 771 972 l 765 729 m 606 1121 q 553 1131 575 1121 q 500 1161 531 1142 q 460 1186 478 1178 q 421 1194 442 1194 q 367 1178 396 1194 q 319 1132 339 1161 l 285 1150 q 350 1232 304 1199 q 436 1265 396 1265 q 490 1255 468 1265 q 540 1225 511 1244 q 579 1201 564 1208 q 613 1193 594 1193 q 715 1264 669 1193 l 749 1247 q 685 1152 724 1183 q 606 1121 646 1121 z "},"F":{"ha":751,"x_min":57,"x_max":747,"o":"m 742 729 l 696 729 q 652 885 701 843 q 514 924 603 926 l 413 921 q 345 902 367 919 q 317 855 324 885 q 308 767 311 825 l 294 511 l 403 511 q 486 522 457 513 q 531 558 515 531 q 549 642 546 586 l 594 642 l 579 338 l 533 338 q 524 419 536 393 q 483 452 511 444 q 400 460 456 460 q 292 456 346 460 l 276 165 q 267 56 275 100 l 408 61 l 406 0 l 57 0 l 60 46 q 130 68 108 47 q 156 118 151 89 q 164 217 161 147 l 197 817 q 207 917 199 864 l 106 911 l 108 972 l 747 972 l 742 729 z "},"G":{"ha":1046,"x_min":68,"x_max":1021,"o":"m 574 994 q 724 974 649 994 q 857 919 799 954 l 854 985 l 931 985 l 914 667 l 864 667 q 783 867 863 794 q 579 939 703 939 q 390 877 476 939 q 251 707 303 815 q 199 463 199 599 q 242 247 199 342 q 366 98 286 151 q 549 44 446 44 q 673 62 608 44 q 790 114 738 79 l 806 417 l 708 411 l 711 472 l 1021 472 l 1018 426 q 947 396 971 426 q 918 335 924 365 q 910 261 913 304 l 899 50 l 865 50 q 714 14 807 50 q 613 -12 671 -3 q 508 -22 556 -22 q 276 31 375 -22 q 122 186 176 85 q 68 426 68 288 q 126 699 68 568 q 298 912 183 829 q 574 994 413 994 z "},"Ğ":{"ha":1046,"x_min":68,"x_max":1021,"o":"m 574 994 q 724 974 649 994 q 857 919 799 954 l 854 985 l 931 985 l 914 667 l 864 667 q 783 867 863 794 q 579 939 703 939 q 390 877 476 939 q 251 707 303 815 q 199 463 199 599 q 242 247 199 342 q 366 98 286 151 q 549 44 446 44 q 673 62 608 44 q 790 114 738 79 l 806 417 l 708 411 l 711 472 l 1021 472 l 1018 426 q 947 396 971 426 q 918 335 924 365 q 910 261 913 304 l 899 50 l 865 50 q 714 14 807 50 q 613 -12 671 -3 q 508 -22 556 -22 q 276 31 375 -22 q 122 186 176 85 q 68 426 68 288 q 126 699 68 568 q 298 912 183 829 q 574 994 413 994 m 603 1106 q 484 1147 543 1106 q 401 1264 425 1188 l 440 1276 q 512 1208 463 1236 q 614 1181 561 1181 q 717 1208 668 1181 q 796 1282 765 1236 l 832 1267 q 733 1146 794 1186 q 603 1106 672 1106 z "},"Ĝ":{"ha":1046,"x_min":68,"x_max":1021,"o":"m 574 994 q 724 974 649 994 q 857 919 799 954 l 854 985 l 931 985 l 914 667 l 864 667 q 783 867 863 794 q 579 939 703 939 q 390 877 476 939 q 251 707 303 815 q 199 463 199 599 q 242 247 199 342 q 366 98 286 151 q 549 44 446 44 q 673 62 608 44 q 790 114 738 79 l 806 417 l 708 411 l 711 472 l 1021 472 l 1018 426 q 947 396 971 426 q 918 335 924 365 q 910 261 913 304 l 899 50 l 865 50 q 714 14 807 50 q 613 -12 671 -3 q 508 -22 556 -22 q 276 31 375 -22 q 122 186 176 85 q 68 426 68 288 q 126 699 68 568 q 298 912 183 829 q 574 994 413 994 m 846 1060 l 604 1183 l 601 1183 l 365 1063 l 344 1100 l 617 1294 l 619 1294 l 871 1099 l 846 1060 z "},"Ģ":{"ha":1046,"x_min":68,"x_max":1021,"o":"m 574 994 q 724 974 649 994 q 857 919 799 954 l 854 985 l 931 985 l 914 667 l 864 667 q 783 867 863 794 q 579 939 703 939 q 390 877 476 939 q 251 707 303 815 q 199 463 199 599 q 242 247 199 342 q 366 98 286 151 q 549 44 446 44 q 673 62 608 44 q 790 114 738 79 l 806 417 l 708 411 l 711 472 l 1021 472 l 1018 426 q 947 396 971 426 q 918 335 924 365 q 910 261 913 304 l 899 50 l 865 50 q 714 14 807 50 q 613 -12 671 -3 q 508 -22 556 -22 q 276 31 375 -22 q 122 186 176 85 q 68 426 68 288 q 126 699 68 568 q 298 912 183 829 q 574 994 413 994 m 347 -333 q 394 -242 381 -279 q 407 -168 407 -204 q 401 -100 407 -150 l 500 -78 q 511 -135 511 -107 q 476 -247 511 -189 q 382 -360 442 -306 l 347 -333 z "},"H":{"ha":1074,"x_min":57,"x_max":1028,"o":"m 1025 926 q 960 908 982 925 q 931 860 939 890 q 921 774 924 831 l 889 165 q 879 56 885 86 l 979 61 l 976 0 l 669 0 l 672 46 q 742 68 721 47 q 769 118 764 89 q 776 217 774 147 l 790 469 l 292 464 l 276 165 q 267 56 272 86 l 367 61 l 364 0 l 57 0 l 60 46 q 130 68 108 47 q 156 117 151 89 q 164 217 160 144 l 196 817 q 206 917 201 886 l 106 911 l 108 972 l 415 972 l 413 926 q 348 908 369 925 q 319 860 326 890 q 308 772 311 829 l 294 525 l 793 525 l 808 817 q 818 917 810 864 l 718 911 l 721 972 l 1028 972 l 1025 926 z "},"Ĥ":{"ha":1074,"x_min":57,"x_max":1028,"o":"m 1025 926 q 960 908 982 925 q 931 860 939 890 q 921 774 924 831 l 889 165 q 879 56 885 86 l 979 61 l 976 0 l 669 0 l 672 46 q 742 68 721 47 q 769 118 764 89 q 776 217 774 147 l 790 469 l 292 464 l 276 165 q 267 56 272 86 l 367 61 l 364 0 l 57 0 l 60 46 q 130 68 108 47 q 156 117 151 89 q 164 217 160 144 l 196 817 q 206 917 201 886 l 106 911 l 108 972 l 415 972 l 413 926 q 348 908 369 925 q 319 860 326 890 q 308 772 311 829 l 294 525 l 793 525 l 808 817 q 818 917 810 864 l 718 911 l 721 972 l 1028 972 l 1025 926 m 818 1060 l 576 1183 l 574 1183 l 338 1063 l 317 1100 l 589 1294 l 592 1294 l 843 1099 l 818 1060 z "},"I":{"ha":463,"x_min":57,"x_max":415,"o":"m 413 926 q 344 907 365 925 q 317 860 322 889 q 308 769 311 831 l 276 165 q 267 56 275 100 l 367 61 l 364 0 l 57 0 l 60 46 q 130 68 108 47 q 156 118 151 89 q 164 217 161 147 l 196 817 q 206 917 197 864 l 106 911 l 108 972 l 415 972 l 413 926 z "},"Í":{"ha":463,"x_min":57,"x_max":497,"o":"m 413 926 q 344 907 365 925 q 317 860 322 889 q 308 769 311 831 l 276 165 q 267 56 275 100 l 367 61 l 364 0 l 57 0 l 60 46 q 130 68 108 47 q 156 118 151 89 q 164 217 161 147 l 196 817 q 206 917 197 864 l 106 911 l 108 972 l 415 972 l 413 926 m 221 1097 l 397 1261 q 454 1289 429 1289 q 488 1274 472 1289 q 497 1247 497 1264 q 453 1188 497 1215 l 250 1058 l 221 1097 z "},"Î":{"ha":461,"x_min":44,"x_max":492,"o":"m 276 1294 l 278 1294 l 492 1099 l 465 1061 l 265 1183 l 263 1183 l 67 1072 l 44 1100 l 276 1294 m 413 926 q 344 907 365 925 q 317 860 322 889 q 308 769 311 831 l 276 165 q 267 56 275 100 l 367 61 l 364 0 l 57 0 l 60 46 q 130 68 108 47 q 156 118 151 89 q 164 217 161 147 l 196 817 q 206 917 197 864 l 106 911 l 108 972 l 415 972 l 413 926 z "},"Ï":{"ha":463,"x_min":57,"x_max":446,"o":"m 174 1246 q 217 1223 200 1246 q 235 1167 235 1200 q 213 1106 235 1131 q 164 1081 192 1081 q 117 1103 136 1081 q 99 1160 99 1126 q 121 1221 99 1196 q 174 1246 143 1246 m 385 1246 q 428 1224 411 1246 q 446 1169 446 1203 q 424 1107 446 1133 q 375 1081 403 1081 q 328 1103 347 1081 q 310 1160 310 1126 q 333 1221 310 1196 q 385 1246 356 1246 m 413 926 q 344 907 365 925 q 317 860 322 889 q 308 769 311 831 l 276 165 q 267 56 275 100 l 367 61 l 364 0 l 57 0 l 60 46 q 130 68 108 47 q 156 118 151 89 q 164 217 161 147 l 196 817 q 206 917 197 864 l 106 911 l 108 972 l 415 972 l 413 926 z "},"İ":{"ha":463,"x_min":57,"x_max":415,"o":"m 413 926 q 344 907 365 925 q 317 860 322 889 q 308 769 311 831 l 276 165 q 267 56 275 100 l 367 61 l 364 0 l 57 0 l 60 46 q 130 68 108 47 q 156 118 151 89 q 164 217 161 147 l 196 817 q 206 917 197 864 l 106 911 l 108 972 l 415 972 l 413 926 m 292 1271 q 340 1249 321 1271 q 358 1196 358 1228 q 335 1135 358 1160 q 282 1110 313 1110 q 233 1132 253 1110 q 213 1188 213 1154 q 236 1247 213 1222 q 292 1271 260 1271 z "},"Ị":{"ha":463,"x_min":57,"x_max":415,"o":"m 413 926 q 344 907 365 925 q 317 860 322 889 q 308 769 311 831 l 276 165 q 267 56 275 100 l 367 61 l 364 0 l 57 0 l 60 46 q 130 68 108 47 q 156 118 151 89 q 164 217 161 147 l 196 817 q 206 917 197 864 l 106 911 l 108 972 l 415 972 l 413 926 m 208 -114 q 251 -134 235 -114 q 268 -183 268 -154 q 247 -237 268 -215 q 199 -258 226 -258 q 156 -238 174 -258 q 138 -189 138 -218 q 159 -136 138 -158 q 208 -114 181 -114 z "},"Ì":{"ha":463,"x_min":57,"x_max":415,"o":"m 413 926 q 344 907 365 925 q 317 860 322 889 q 308 769 311 831 l 276 165 q 267 56 275 100 l 367 61 l 364 0 l 57 0 l 60 46 q 130 68 108 47 q 156 118 151 89 q 164 217 161 147 l 196 817 q 206 917 197 864 l 106 911 l 108 972 l 415 972 l 413 926 m 135 1188 q 90 1247 90 1215 q 100 1274 90 1264 q 133 1289 115 1289 q 190 1261 158 1289 l 367 1097 l 338 1058 l 135 1188 z "},"Ỉ":{"ha":463,"x_min":57,"x_max":415,"o":"m 413 926 q 344 907 365 925 q 317 860 322 889 q 308 769 311 831 l 276 165 q 267 56 275 100 l 367 61 l 364 0 l 57 0 l 60 46 q 130 68 108 47 q 156 118 151 89 q 164 217 161 147 l 196 817 q 206 917 197 864 l 106 911 l 108 972 l 415 972 l 413 926 m 282 1303 q 378 1278 343 1303 q 413 1204 413 1253 q 410 1175 413 1197 q 383 1126 404 1144 q 324 1089 361 1108 q 288 1069 299 1076 q 276 1050 278 1061 l 229 1050 q 241 1074 232 1065 q 268 1094 250 1083 q 308 1125 293 1108 q 331 1175 324 1142 q 333 1199 333 1192 q 274 1253 333 1253 q 228 1240 250 1253 q 200 1211 206 1226 q 204 1189 206 1200 q 186 1167 201 1175 q 156 1158 171 1158 q 117 1192 117 1158 q 137 1244 117 1218 q 195 1286 157 1269 q 282 1303 233 1303 z "},"Ī":{"ha":463,"x_min":57,"x_max":472,"o":"m 413 926 q 344 907 365 925 q 317 860 322 889 q 308 769 311 831 l 276 165 q 267 56 275 100 l 367 61 l 364 0 l 57 0 l 60 46 q 130 68 108 47 q 156 118 151 89 q 164 217 161 147 l 196 817 q 206 917 197 864 l 106 911 l 108 972 l 415 972 l 413 926 m 100 1160 l 104 1238 l 472 1238 l 468 1165 l 100 1160 z "},"Į":{"ha":463,"x_min":57,"x_max":415,"o":"m 276 165 q 267 56 275 100 l 367 61 l 365 35 l 368 36 l 365 0 q 219 -97 279 -33 q 158 -231 158 -160 q 180 -301 158 -275 q 242 -328 201 -328 q 347 -283 297 -328 l 367 -307 q 288 -369 333 -343 q 196 -394 242 -394 q 104 -358 138 -394 q 71 -262 71 -322 q 129 -114 71 -182 q 279 0 188 -46 l 57 0 l 60 46 q 130 68 108 47 q 156 118 151 89 q 164 217 161 147 l 196 817 q 206 917 197 864 l 106 911 l 108 972 l 415 972 l 413 926 q 344 907 365 925 q 317 860 322 889 q 308 769 311 831 l 276 165 z "},"Ĩ":{"ha":463,"x_min":54,"x_max":518,"o":"m 413 926 q 344 907 365 925 q 317 860 322 889 q 308 769 311 831 l 276 165 q 267 56 275 100 l 367 61 l 364 0 l 57 0 l 60 46 q 130 68 108 47 q 156 118 151 89 q 164 217 161 147 l 196 817 q 206 917 197 864 l 106 911 l 108 972 l 415 972 l 413 926 m 375 1121 q 322 1131 344 1121 q 269 1161 300 1142 q 229 1186 247 1178 q 190 1194 211 1194 q 137 1178 165 1194 q 89 1132 108 1161 l 54 1150 q 119 1232 74 1199 q 206 1265 165 1265 q 259 1255 238 1265 q 310 1225 281 1244 q 349 1201 333 1208 q 382 1193 364 1193 q 485 1264 439 1193 l 518 1247 q 454 1152 493 1183 q 375 1121 415 1121 z "},"J":{"ha":510,"x_min":-19,"x_max":501,"o":"m 497 926 q 410 891 433 926 q 383 789 388 856 l 361 339 q 328 128 354 207 q 253 14 303 50 q 121 -22 203 -22 q 22 1 64 -22 q -19 76 -19 25 q -1 128 -19 107 q 47 149 17 149 q 92 129 76 149 q 107 88 107 110 q 101 56 107 67 q 121 39 107 44 q 147 33 135 33 q 208 69 182 35 q 240 213 235 104 l 276 917 l 135 911 l 138 972 l 501 972 l 497 926 z "},"Ĵ":{"ha":510,"x_min":-19,"x_max":543,"o":"m 497 926 q 410 891 433 926 q 383 789 388 856 l 361 339 q 328 128 354 207 q 253 14 303 50 q 121 -22 203 -22 q 22 1 64 -22 q -19 76 -19 25 q -1 128 -19 107 q 47 149 17 149 q 92 129 76 149 q 107 88 107 110 q 101 56 107 67 q 121 39 107 44 q 147 33 135 33 q 208 69 182 35 q 240 213 235 104 l 276 917 l 135 911 l 138 972 l 501 972 l 497 926 m 508 1082 l 335 1239 l 332 1239 l 143 1088 l 113 1124 l 346 1342 l 349 1342 l 543 1118 l 508 1082 z "},"K":{"ha":926,"x_min":57,"x_max":919,"o":"m 907 926 q 799 906 843 921 q 710 851 754 890 q 617 739 667 813 l 469 522 q 521 480 500 503 q 557 434 542 457 q 578 404 572 411 l 724 197 q 803 97 771 129 q 860 56 835 65 q 919 46 885 46 l 917 0 l 753 0 q 619 136 718 0 l 465 361 q 367 474 408 446 l 293 472 l 276 165 q 267 56 272 86 l 367 61 l 364 0 l 57 0 l 60 46 q 130 68 108 47 q 156 118 151 89 q 164 217 161 147 l 196 817 q 206 917 201 886 l 106 911 l 108 972 l 415 972 l 413 926 q 348 907 369 925 q 319 858 326 889 q 308 769 311 826 l 296 528 l 404 528 l 589 801 q 696 917 640 879 l 696 918 l 608 915 l 611 972 l 910 972 l 907 926 z "},"Ķ":{"ha":926,"x_min":57,"x_max":919,"o":"m 907 926 q 799 906 843 921 q 710 851 754 890 q 617 739 667 813 l 469 522 q 521 480 500 503 q 557 434 542 457 q 578 404 572 411 l 724 197 q 803 97 771 129 q 860 56 835 65 q 919 46 885 46 l 917 0 l 753 0 q 619 136 718 0 l 465 361 q 367 474 408 446 l 293 472 l 276 165 q 267 56 272 86 l 367 61 l 364 0 l 57 0 l 60 46 q 130 68 108 47 q 156 118 151 89 q 164 217 161 147 l 196 817 q 206 917 201 886 l 106 911 l 108 972 l 415 972 l 413 926 q 348 907 369 925 q 319 858 326 889 q 308 769 311 826 l 296 528 l 404 528 l 589 801 q 696 917 640 879 l 696 918 l 608 915 l 611 972 l 910 972 l 907 926 m 294 -333 q 341 -242 328 -279 q 354 -168 354 -204 q 349 -100 354 -150 l 447 -78 q 458 -135 458 -107 q 424 -247 458 -189 q 329 -360 389 -306 l 294 -333 z "},"L":{"ha":801,"x_min":56,"x_max":763,"o":"m 411 926 q 344 904 365 925 q 316 851 322 883 q 307 756 310 818 l 275 160 q 265 51 271 82 l 525 56 q 663 113 615 58 q 715 288 710 167 l 763 288 l 739 0 l 56 0 l 58 46 q 128 68 107 47 q 154 117 150 89 q 163 217 158 144 l 196 817 q 199 861 197 828 q 206 917 201 894 l 107 911 l 107 972 l 414 972 l 411 926 z "},"Ĺ":{"ha":801,"x_min":56,"x_max":763,"o":"m 411 926 q 344 904 365 925 q 316 851 322 883 q 307 756 310 818 l 275 160 q 265 51 271 82 l 525 56 q 663 113 615 58 q 715 288 710 167 l 763 288 l 739 0 l 56 0 l 58 46 q 128 68 107 47 q 154 117 150 89 q 163 217 158 144 l 196 817 q 199 861 197 828 q 206 917 201 894 l 107 911 l 107 972 l 414 972 l 411 926 m 214 1097 l 390 1261 q 447 1289 422 1289 q 481 1274 465 1289 q 490 1247 490 1264 q 446 1188 490 1215 l 243 1058 l 214 1097 z "},"Ľ":{"ha":801,"x_min":56,"x_max":763,"o":"m 411 926 q 344 904 365 925 q 316 851 322 883 q 307 756 310 818 l 275 160 q 265 51 271 82 l 525 56 q 663 113 615 58 q 715 288 710 167 l 763 288 l 739 0 l 56 0 l 58 46 q 128 68 107 47 q 154 117 150 89 q 163 217 158 144 l 196 817 q 199 861 197 828 q 206 917 201 894 l 107 911 l 107 972 l 414 972 l 411 926 m 531 711 q 582 896 582 810 q 569 990 582 944 l 665 972 q 682 911 682 938 q 650 794 682 853 q 567 683 618 735 l 531 711 z "},"Ļ":{"ha":801,"x_min":56,"x_max":763,"o":"m 411 926 q 344 904 365 925 q 316 851 322 883 q 307 756 310 818 l 275 160 q 265 51 271 82 l 525 56 q 663 113 615 58 q 715 288 710 167 l 763 288 l 739 0 l 56 0 l 58 46 q 128 68 107 47 q 154 117 150 89 q 163 217 158 144 l 196 817 q 199 861 197 828 q 206 917 201 894 l 107 911 l 107 972 l 414 972 l 411 926 m 232 -333 q 278 -242 265 -279 q 292 -168 292 -204 q 286 -100 292 -150 l 385 -78 q 396 -135 396 -107 q 361 -247 396 -189 q 267 -360 326 -306 l 232 -333 z "},"Ł":{"ha":801,"x_min":57,"x_max":764,"o":"m 413 926 q 345 904 367 925 q 317 851 324 883 q 308 756 311 818 l 299 564 l 440 668 l 436 593 l 294 489 l 276 160 q 267 51 272 82 l 526 56 q 664 113 617 58 q 717 288 711 167 l 764 288 l 740 0 l 57 0 l 60 46 q 130 68 108 47 q 156 117 151 89 q 164 217 160 144 l 174 400 l 61 317 l 65 394 l 178 476 l 197 817 q 201 861 199 828 q 207 917 203 894 l 108 911 l 108 972 l 415 972 l 413 926 z "},"M":{"ha":1274,"x_min":42,"x_max":1208,"o":"m 1206 926 q 1126 893 1151 928 q 1103 775 1101 858 l 1107 143 q 1104 56 1107 106 l 1207 61 l 1203 0 l 897 0 l 900 46 l 911 46 q 981 88 964 50 q 997 211 997 126 l 997 686 q 999 806 997 765 l 996 806 l 947 699 l 617 -14 l 576 -14 q 422 403 522 125 q 336 642 394 483 l 326 668 q 275 824 300 742 l 272 824 q 254 549 267 701 l 218 174 q 204 56 210 90 l 310 61 l 306 0 l 42 0 l 44 46 q 106 63 85 46 q 134 105 126 79 q 146 174 142 131 l 221 917 l 121 913 l 124 972 l 331 972 q 489 550 367 881 q 632 169 596 263 l 635 169 q 701 318 661 225 l 715 349 q 863 661 751 431 q 1008 972 938 817 l 1208 972 l 1206 926 z "},"N":{"ha":1058,"x_min":63,"x_max":1032,"o":"m 1029 926 q 964 908 985 925 q 938 863 943 890 q 929 783 932 836 l 928 756 l 889 -15 l 822 -15 l 254 796 l 251 796 l 229 193 q 228 153 228 179 q 219 56 225 86 l 319 61 l 317 0 l 63 0 l 64 46 q 161 156 157 46 l 199 917 l 106 911 l 108 972 l 274 972 l 832 178 l 835 178 l 864 817 q 874 917 868 885 l 774 911 l 776 972 l 1032 972 l 1029 926 z "},"Ń":{"ha":1058,"x_min":63,"x_max":1032,"o":"m 1029 926 q 964 908 985 925 q 938 863 943 890 q 929 783 932 836 l 928 756 l 889 -15 l 822 -15 l 254 796 l 251 796 l 229 193 q 228 153 228 179 q 219 56 225 86 l 319 61 l 317 0 l 63 0 l 64 46 q 161 156 157 46 l 199 917 l 106 911 l 108 972 l 274 972 l 832 178 l 835 178 l 864 817 q 874 917 868 885 l 774 911 l 776 972 l 1032 972 l 1029 926 m 471 1096 l 579 1279 q 638 1324 606 1324 q 665 1313 654 1324 q 679 1279 679 1299 q 647 1217 679 1250 l 504 1068 l 471 1096 z "},"Ň":{"ha":1058,"x_min":63,"x_max":1032,"o":"m 1029 926 q 964 908 985 925 q 938 863 943 890 q 929 783 932 836 l 928 756 l 889 -15 l 822 -15 l 254 796 l 251 796 l 229 193 q 228 153 228 179 q 219 56 225 86 l 319 61 l 317 0 l 63 0 l 64 46 q 161 156 157 46 l 199 917 l 106 911 l 108 972 l 274 972 l 832 178 l 835 178 l 864 817 q 874 917 868 885 l 774 911 l 776 972 l 1032 972 l 1029 926 m 565 1074 l 311 1272 l 338 1313 q 426 1260 368 1296 q 569 1181 521 1204 l 572 1181 q 733 1268 636 1210 l 815 1315 l 836 1279 l 568 1074 l 565 1074 z "},"Ņ":{"ha":1058,"x_min":63,"x_max":1032,"o":"m 1029 926 q 964 908 985 925 q 938 863 943 890 q 929 783 932 836 l 928 756 l 889 -15 l 822 -15 l 254 796 l 251 796 l 229 193 q 228 153 228 179 q 219 56 225 86 l 319 61 l 317 0 l 63 0 l 64 46 q 161 156 157 46 l 199 917 l 106 911 l 108 972 l 274 972 l 832 178 l 835 178 l 864 817 q 874 917 868 885 l 774 911 l 776 972 l 1032 972 l 1029 926 m 361 -333 q 408 -242 394 -279 q 421 -168 421 -204 q 415 -100 421 -150 l 514 -78 q 525 -135 525 -107 q 490 -247 525 -189 q 396 -360 456 -306 l 361 -333 z "},"Ñ":{"ha":1058,"x_min":63,"x_max":1032,"o":"m 1029 926 q 964 908 985 925 q 938 863 943 890 q 929 783 932 836 l 928 756 l 889 -15 l 822 -15 l 254 796 l 251 796 l 229 193 q 228 153 228 179 q 219 56 225 86 l 319 61 l 317 0 l 63 0 l 64 46 q 161 156 157 46 l 199 917 l 106 911 l 108 972 l 274 972 l 832 178 l 835 178 l 864 817 q 874 917 868 885 l 774 911 l 776 972 l 1032 972 l 1029 926 m 457 1181 q 343 1101 397 1181 l 304 1125 q 379 1223 332 1186 q 472 1260 426 1260 q 538 1247 511 1260 q 600 1207 565 1233 q 645 1178 628 1188 q 685 1168 663 1168 q 806 1250 754 1168 l 842 1231 q 768 1120 811 1151 q 672 1089 725 1089 q 612 1102 639 1089 q 553 1139 585 1115 q 501 1171 521 1161 q 457 1181 482 1181 z "},"O":{"ha":1094,"x_min":68,"x_max":1036,"o":"m 574 994 q 832 924 728 994 q 986 744 936 854 q 1036 513 1036 633 q 978 264 1036 388 q 806 59 921 140 q 531 -22 692 -22 q 272 47 376 -22 q 118 226 168 117 q 68 454 68 335 q 131 722 68 599 q 309 920 194 846 q 574 994 424 994 m 567 939 q 372 871 456 939 q 245 696 289 803 q 201 476 201 589 q 237 271 201 372 q 348 102 272 169 q 538 35 424 35 q 734 102 651 35 q 860 274 817 169 q 903 490 903 379 q 864 706 903 603 q 749 874 825 810 q 567 939 672 939 z "},"Ó":{"ha":1094,"x_min":68,"x_max":1036,"o":"m 574 994 q 832 924 728 994 q 986 744 936 854 q 1036 513 1036 633 q 978 264 1036 388 q 806 59 921 140 q 531 -22 692 -22 q 272 47 376 -22 q 118 226 168 117 q 68 454 68 335 q 131 722 68 599 q 309 920 194 846 q 574 994 424 994 m 567 939 q 372 871 456 939 q 245 696 289 803 q 201 476 201 589 q 237 271 201 372 q 348 102 272 169 q 538 35 424 35 q 734 102 651 35 q 860 274 817 169 q 903 490 903 379 q 864 706 903 603 q 749 874 825 810 q 567 939 672 939 m 526 1097 l 703 1261 q 760 1289 735 1289 q 793 1274 778 1289 q 803 1247 803 1264 q 758 1188 803 1215 l 556 1058 l 526 1097 z "},"Ô":{"ha":1094,"x_min":68,"x_max":1036,"o":"m 574 994 q 832 924 728 994 q 986 744 936 854 q 1036 513 1036 633 q 978 264 1036 388 q 806 59 921 140 q 531 -22 692 -22 q 272 47 376 -22 q 118 226 168 117 q 68 454 68 335 q 131 722 68 599 q 309 920 194 846 q 574 994 424 994 m 567 939 q 372 871 456 939 q 245 696 289 803 q 201 476 201 589 q 237 271 201 372 q 348 102 272 169 q 538 35 424 35 q 734 102 651 35 q 860 274 817 169 q 903 490 903 379 q 864 706 903 603 q 749 874 825 810 q 567 939 672 939 m 828 1060 l 586 1183 l 583 1183 l 347 1063 l 326 1100 l 599 1294 l 601 1294 l 853 1099 l 828 1060 z "},"Ố":{"ha":1094,"x_min":68,"x_max":1036,"o":"m 761 1181 l 851 1332 q 899 1368 872 1368 q 922 1360 914 1368 q 933 1332 933 1344 q 907 1281 933 1308 l 789 1157 l 761 1181 m 751 1046 l 586 1131 l 585 1131 l 424 1047 l 404 1082 l 594 1219 l 597 1219 l 774 1081 l 751 1046 m 574 994 q 832 924 728 994 q 986 744 936 854 q 1036 513 1036 633 q 978 264 1036 388 q 806 59 921 140 q 531 -22 692 -22 q 272 47 376 -22 q 118 226 168 117 q 68 454 68 335 q 131 722 68 599 q 309 920 194 846 q 574 994 424 994 m 567 939 q 372 871 456 939 q 245 696 289 803 q 201 476 201 589 q 237 271 201 372 q 348 102 272 169 q 538 35 424 35 q 734 102 651 35 q 860 274 817 169 q 903 490 903 379 q 864 706 903 603 q 749 874 825 810 q 567 939 672 939 z "},"Ộ":{"ha":1094,"x_min":68,"x_max":1036,"o":"m 574 994 q 832 924 728 994 q 986 744 936 854 q 1036 513 1036 633 q 978 264 1036 388 q 806 59 921 140 q 531 -22 692 -22 q 272 47 376 -22 q 118 226 168 117 q 68 454 68 335 q 131 722 68 599 q 309 920 194 846 q 574 994 424 994 m 567 939 q 372 871 456 939 q 245 696 289 803 q 201 476 201 589 q 237 271 201 372 q 348 102 272 169 q 538 35 424 35 q 734 102 651 35 q 860 274 817 169 q 903 490 903 379 q 864 706 903 603 q 749 874 825 810 q 567 939 672 939 m 525 -114 q 568 -134 551 -114 q 585 -183 585 -154 q 564 -237 585 -215 q 515 -258 543 -258 q 472 -238 490 -258 q 454 -189 454 -218 q 476 -136 454 -158 q 525 -114 497 -114 m 828 1060 l 586 1183 l 583 1183 l 347 1063 l 326 1100 l 599 1294 l 601 1294 l 853 1099 l 828 1060 z "},"Ồ":{"ha":1094,"x_min":68,"x_max":1036,"o":"m 610 1333 q 581 1389 581 1363 q 593 1419 581 1407 q 603 1426 596 1424 q 618 1429 610 1429 q 671 1390 647 1429 l 769 1224 l 739 1197 l 610 1333 m 751 1046 l 586 1131 l 585 1131 l 424 1047 l 404 1082 l 594 1219 l 597 1219 l 774 1081 l 751 1046 m 574 994 q 832 924 728 994 q 986 744 936 854 q 1036 513 1036 633 q 978 264 1036 388 q 806 59 921 140 q 531 -22 692 -22 q 272 47 376 -22 q 118 226 168 117 q 68 454 68 335 q 131 722 68 599 q 309 920 194 846 q 574 994 424 994 m 567 939 q 372 871 456 939 q 245 696 289 803 q 201 476 201 589 q 237 271 201 372 q 348 102 272 169 q 538 35 424 35 q 734 102 651 35 q 860 274 817 169 q 903 490 903 379 q 864 706 903 603 q 749 874 825 810 q 567 939 672 939 z "},"Ổ":{"ha":1094,"x_min":68,"x_max":1036,"o":"m 750 1422 q 838 1399 806 1422 q 869 1332 869 1376 q 867 1306 869 1325 q 842 1262 861 1278 q 789 1228 822 1246 q 758 1210 768 1218 q 746 1193 747 1203 l 703 1193 q 714 1215 706 1207 q 738 1232 722 1222 q 774 1261 761 1247 q 794 1306 788 1275 q 797 1328 797 1322 q 743 1376 797 1376 q 701 1365 721 1376 q 676 1339 681 1353 q 679 1322 679 1331 q 665 1300 679 1310 q 636 1290 650 1290 q 610 1298 621 1290 q 600 1321 600 1306 q 619 1368 600 1344 q 672 1407 638 1392 q 750 1422 706 1422 m 751 1046 l 586 1131 l 585 1131 l 424 1047 l 404 1082 l 594 1219 l 597 1219 l 774 1081 l 751 1046 m 574 994 q 832 924 728 994 q 986 744 936 854 q 1036 513 1036 633 q 978 264 1036 388 q 806 59 921 140 q 531 -22 692 -22 q 272 47 376 -22 q 118 226 168 117 q 68 454 68 335 q 131 722 68 599 q 309 920 194 846 q 574 994 424 994 m 567 939 q 372 871 456 939 q 245 696 289 803 q 201 476 201 589 q 237 271 201 372 q 348 102 272 169 q 538 35 424 35 q 734 102 651 35 q 860 274 817 169 q 903 490 903 379 q 864 706 903 603 q 749 874 825 810 q 567 939 672 939 z "},"Ỗ":{"ha":1094,"x_min":68,"x_max":1036,"o":"m 674 1232 q 630 1240 649 1232 q 586 1265 611 1249 q 551 1286 564 1279 q 521 1293 538 1293 q 477 1278 500 1293 q 438 1240 454 1264 l 408 1256 q 462 1324 425 1296 q 533 1351 499 1351 q 578 1342 558 1351 q 618 1318 597 1333 q 650 1298 636 1304 q 681 1292 664 1292 q 764 1350 726 1292 l 792 1336 q 740 1258 772 1283 q 674 1232 707 1232 m 751 1046 l 586 1131 l 585 1131 l 424 1047 l 404 1082 l 594 1219 l 597 1219 l 774 1081 l 751 1046 m 574 994 q 832 924 728 994 q 986 744 936 854 q 1036 513 1036 633 q 978 264 1036 388 q 806 59 921 140 q 531 -22 692 -22 q 272 47 376 -22 q 118 226 168 117 q 68 454 68 335 q 131 722 68 599 q 309 920 194 846 q 574 994 424 994 m 567 939 q 372 871 456 939 q 245 696 289 803 q 201 476 201 589 q 237 271 201 372 q 348 102 272 169 q 538 35 424 35 q 734 102 651 35 q 860 274 817 169 q 903 490 903 379 q 864 706 903 603 q 749 874 825 810 q 567 939 672 939 z "},"Ö":{"ha":1094,"x_min":68,"x_max":1036,"o":"m 574 994 q 832 924 728 994 q 986 744 936 854 q 1036 513 1036 633 q 978 264 1036 388 q 806 59 921 140 q 531 -22 692 -22 q 272 47 376 -22 q 118 226 168 117 q 68 454 68 335 q 131 722 68 599 q 309 920 194 846 q 574 994 424 994 m 567 939 q 372 871 456 939 q 245 696 289 803 q 201 476 201 589 q 237 271 201 372 q 348 102 272 169 q 538 35 424 35 q 734 102 651 35 q 860 274 817 169 q 903 490 903 379 q 864 706 903 603 q 749 874 825 810 q 567 939 672 939 m 474 1083 q 427 1106 446 1083 q 408 1163 408 1129 q 431 1224 408 1199 q 483 1249 453 1249 q 527 1227 510 1249 q 544 1172 544 1206 q 523 1110 544 1136 q 474 1083 501 1083 m 697 1083 q 652 1106 671 1083 q 633 1163 633 1129 q 656 1224 633 1199 q 707 1249 678 1249 q 752 1226 735 1249 q 769 1169 769 1203 q 748 1108 769 1133 q 697 1083 726 1083 z "},"Ọ":{"ha":1094,"x_min":68,"x_max":1036,"o":"m 574 994 q 832 924 728 994 q 986 744 936 854 q 1036 513 1036 633 q 978 264 1036 388 q 806 59 921 140 q 531 -22 692 -22 q 272 47 376 -22 q 118 226 168 117 q 68 454 68 335 q 131 722 68 599 q 309 920 194 846 q 574 994 424 994 m 567 939 q 372 871 456 939 q 245 696 289 803 q 201 476 201 589 q 237 271 201 372 q 348 102 272 169 q 538 35 424 35 q 734 102 651 35 q 860 274 817 169 q 903 490 903 379 q 864 706 903 603 q 749 874 825 810 q 567 939 672 939 m 525 -114 q 568 -134 551 -114 q 585 -183 585 -154 q 564 -237 585 -215 q 515 -258 543 -258 q 472 -238 490 -258 q 454 -189 454 -218 q 476 -136 454 -158 q 525 -114 497 -114 z "},"Ò":{"ha":1094,"x_min":68,"x_max":1036,"o":"m 574 994 q 832 924 728 994 q 986 744 936 854 q 1036 513 1036 633 q 978 264 1036 388 q 806 59 921 140 q 531 -22 692 -22 q 272 47 376 -22 q 118 226 168 117 q 68 454 68 335 q 131 722 68 599 q 309 920 194 846 q 574 994 424 994 m 567 939 q 372 871 456 939 q 245 696 289 803 q 201 476 201 589 q 237 271 201 372 q 348 102 272 169 q 538 35 424 35 q 734 102 651 35 q 860 274 817 169 q 903 490 903 379 q 864 706 903 603 q 749 874 825 810 q 567 939 672 939 m 440 1188 q 396 1247 396 1215 q 406 1274 396 1264 q 439 1289 421 1289 q 496 1261 464 1289 l 672 1097 l 643 1058 l 440 1188 z "},"Ỏ":{"ha":1094,"x_min":68,"x_max":1036,"o":"m 574 994 q 832 924 728 994 q 986 744 936 854 q 1036 513 1036 633 q 978 264 1036 388 q 806 59 921 140 q 531 -22 692 -22 q 272 47 376 -22 q 118 226 168 117 q 68 454 68 335 q 131 722 68 599 q 309 920 194 846 q 574 994 424 994 m 567 939 q 372 871 456 939 q 245 696 289 803 q 201 476 201 589 q 237 271 201 372 q 348 102 272 169 q 538 35 424 35 q 734 102 651 35 q 860 274 817 169 q 903 490 903 379 q 864 706 903 603 q 749 874 825 810 q 567 939 672 939 m 588 1303 q 683 1278 649 1303 q 718 1204 718 1253 q 715 1175 718 1197 q 688 1126 710 1144 q 629 1089 667 1108 q 594 1069 604 1076 q 582 1050 583 1061 l 535 1050 q 547 1074 538 1065 q 574 1094 556 1083 q 614 1125 599 1108 q 636 1175 629 1142 q 639 1199 639 1192 q 579 1253 639 1253 q 533 1240 556 1253 q 506 1211 511 1226 q 510 1189 511 1200 q 492 1167 507 1175 q 461 1158 476 1158 q 422 1192 422 1158 q 442 1244 422 1218 q 501 1286 463 1269 q 588 1303 539 1303 z "},"Ơ":{"ha":1094,"x_min":68,"x_max":1036,"o":"m 838 921 q 986 744 936 854 q 1036 513 1036 633 q 978 264 1036 388 q 806 59 921 140 q 531 -22 692 -22 q 272 47 376 -22 q 118 226 168 117 q 68 454 68 335 q 131 722 68 599 q 309 920 194 846 q 574 994 424 994 q 757 963 676 994 q 816 998 794 968 q 844 1068 838 1028 l 944 1068 q 908 984 936 1024 q 838 921 881 944 m 538 35 q 734 102 651 35 q 860 274 817 169 q 903 490 903 379 q 864 706 903 603 q 749 874 825 810 q 567 939 672 939 q 372 871 456 939 q 245 696 289 803 q 201 476 201 589 q 237 271 201 372 q 348 102 272 169 q 538 35 424 35 z "},"Ớ":{"ha":1094,"x_min":68,"x_max":1036,"o":"m 838 921 q 986 744 936 854 q 1036 513 1036 633 q 978 264 1036 388 q 806 59 921 140 q 531 -22 692 -22 q 272 47 376 -22 q 118 226 168 117 q 68 454 68 335 q 131 722 68 599 q 309 920 194 846 q 574 994 424 994 q 757 963 676 994 q 816 998 794 968 q 844 1068 838 1028 l 944 1068 q 908 984 936 1024 q 838 921 881 944 m 538 35 q 734 102 651 35 q 860 274 817 169 q 903 490 903 379 q 864 706 903 603 q 749 874 825 810 q 567 939 672 939 q 372 871 456 939 q 245 696 289 803 q 201 476 201 589 q 237 271 201 372 q 348 102 272 169 q 538 35 424 35 m 488 1096 l 596 1279 q 654 1324 622 1324 q 682 1313 671 1324 q 696 1279 696 1299 q 664 1217 696 1250 l 521 1068 l 488 1096 z "},"Ợ":{"ha":1094,"x_min":68,"x_max":1036,"o":"m 838 921 q 986 744 936 854 q 1036 513 1036 633 q 978 264 1036 388 q 806 59 921 140 q 531 -22 692 -22 q 272 47 376 -22 q 118 226 168 117 q 68 454 68 335 q 131 722 68 599 q 309 920 194 846 q 574 994 424 994 q 757 963 676 994 q 816 998 794 968 q 844 1068 838 1028 l 944 1068 q 908 984 936 1024 q 838 921 881 944 m 538 35 q 734 102 651 35 q 860 274 817 169 q 903 490 903 379 q 864 706 903 603 q 749 874 825 810 q 567 939 672 939 q 372 871 456 939 q 245 696 289 803 q 201 476 201 589 q 237 271 201 372 q 348 102 272 169 q 538 35 424 35 m 525 -114 q 568 -134 551 -114 q 585 -183 585 -154 q 564 -237 585 -215 q 515 -258 543 -258 q 472 -238 490 -258 q 454 -189 454 -218 q 476 -136 454 -158 q 525 -114 497 -114 z "},"Ờ":{"ha":1094,"x_min":68,"x_max":1036,"o":"m 838 921 q 986 744 936 854 q 1036 513 1036 633 q 978 264 1036 388 q 806 59 921 140 q 531 -22 692 -22 q 272 47 376 -22 q 118 226 168 117 q 68 454 68 335 q 131 722 68 599 q 309 920 194 846 q 574 994 424 994 q 757 963 676 994 q 816 998 794 968 q 844 1068 838 1028 l 944 1068 q 908 984 936 1024 q 838 921 881 944 m 538 35 q 734 102 651 35 q 860 274 817 169 q 903 490 903 379 q 864 706 903 603 q 749 874 825 810 q 567 939 672 939 q 372 871 456 939 q 245 696 289 803 q 201 476 201 589 q 237 271 201 372 q 348 102 272 169 q 538 35 424 35 m 518 1217 q 486 1279 486 1250 q 500 1313 486 1299 q 528 1324 511 1324 q 586 1279 560 1324 l 694 1096 l 661 1068 l 518 1217 z "},"Ở":{"ha":1094,"x_min":68,"x_max":1036,"o":"m 838 921 q 986 744 936 854 q 1036 513 1036 633 q 978 264 1036 388 q 806 59 921 140 q 531 -22 692 -22 q 272 47 376 -22 q 118 226 168 117 q 68 454 68 335 q 131 722 68 599 q 309 920 194 846 q 574 994 424 994 q 757 963 676 994 q 816 998 794 968 q 844 1068 838 1028 l 944 1068 q 908 984 936 1024 q 838 921 881 944 m 538 35 q 734 102 651 35 q 860 274 817 169 q 903 490 903 379 q 864 706 903 603 q 749 874 825 810 q 567 939 672 939 q 372 871 456 939 q 245 696 289 803 q 201 476 201 589 q 237 271 201 372 q 348 102 272 169 q 538 35 424 35 m 588 1303 q 683 1278 649 1303 q 718 1204 718 1253 q 715 1175 718 1197 q 688 1126 710 1144 q 629 1089 667 1108 q 594 1069 604 1076 q 582 1050 583 1061 l 535 1050 q 547 1074 538 1065 q 574 1094 556 1083 q 614 1125 599 1108 q 636 1175 629 1142 q 639 1199 639 1192 q 579 1253 639 1253 q 533 1240 556 1253 q 506 1211 511 1226 q 510 1189 511 1200 q 492 1167 507 1175 q 461 1158 476 1158 q 422 1192 422 1158 q 442 1244 422 1218 q 501 1286 463 1269 q 588 1303 539 1303 z "},"Ỡ":{"ha":1094,"x_min":68,"x_max":1036,"o":"m 838 921 q 986 744 936 854 q 1036 513 1036 633 q 978 264 1036 388 q 806 59 921 140 q 531 -22 692 -22 q 272 47 376 -22 q 118 226 168 117 q 68 454 68 335 q 131 722 68 599 q 309 920 194 846 q 574 994 424 994 q 757 963 676 994 q 816 998 794 968 q 844 1068 838 1028 l 944 1068 q 908 984 936 1024 q 838 921 881 944 m 538 35 q 734 102 651 35 q 860 274 817 169 q 903 490 903 379 q 864 706 903 603 q 749 874 825 810 q 567 939 672 939 q 372 871 456 939 q 245 696 289 803 q 201 476 201 589 q 237 271 201 372 q 348 102 272 169 q 538 35 424 35 m 681 1121 q 628 1131 650 1121 q 575 1161 606 1142 q 535 1186 553 1178 q 496 1194 517 1194 q 442 1178 471 1194 q 394 1132 414 1161 l 360 1150 q 425 1232 379 1199 q 511 1265 471 1265 q 565 1255 543 1265 q 615 1225 586 1244 q 654 1201 639 1208 q 688 1193 669 1193 q 790 1264 744 1193 l 824 1247 q 760 1152 799 1183 q 681 1121 721 1121 z "},"Ő":{"ha":1094,"x_min":68,"x_max":1036,"o":"m 574 994 q 832 924 728 994 q 986 744 936 854 q 1036 513 1036 633 q 978 264 1036 388 q 806 59 921 140 q 531 -22 692 -22 q 272 47 376 -22 q 118 226 168 117 q 68 454 68 335 q 131 722 68 599 q 309 920 194 846 q 574 994 424 994 m 567 939 q 372 871 456 939 q 245 696 289 803 q 201 476 201 589 q 237 271 201 372 q 348 102 272 169 q 538 35 424 35 q 734 102 651 35 q 860 274 817 169 q 903 490 903 379 q 864 706 903 603 q 749 874 825 810 q 567 939 672 939 m 363 1107 l 494 1276 q 561 1319 529 1319 q 588 1310 578 1319 q 599 1283 599 1299 q 557 1219 599 1256 l 393 1076 l 363 1107 m 557 1121 l 710 1278 q 779 1318 749 1318 q 811 1301 800 1318 q 818 1278 818 1290 q 769 1215 818 1247 l 582 1089 l 557 1121 z "},"Ō":{"ha":1094,"x_min":68,"x_max":1036,"o":"m 574 994 q 832 924 728 994 q 986 744 936 854 q 1036 513 1036 633 q 978 264 1036 388 q 806 59 921 140 q 531 -22 692 -22 q 272 47 376 -22 q 118 226 168 117 q 68 454 68 335 q 131 722 68 599 q 309 920 194 846 q 574 994 424 994 m 567 939 q 372 871 456 939 q 245 696 289 803 q 201 476 201 589 q 237 271 201 372 q 348 102 272 169 q 538 35 424 35 q 734 102 651 35 q 860 274 817 169 q 903 490 903 379 q 864 706 903 603 q 749 874 825 810 q 567 939 672 939 m 406 1160 l 410 1238 l 778 1238 l 774 1165 l 406 1160 z "},"Ø":{"ha":1093,"x_min":67,"x_max":1035,"o":"m 947 1001 l 875 890 q 994 720 954 821 q 1035 513 1035 619 q 977 264 1035 388 q 805 59 919 140 q 529 -22 690 -22 q 317 22 413 -22 l 233 -107 l 172 -69 l 253 58 q 113 231 160 125 q 67 454 67 338 q 130 722 67 599 q 308 920 193 846 q 572 994 422 994 q 808 938 707 994 l 878 1049 l 947 1001 m 565 939 q 373 872 456 939 q 246 701 290 806 q 200 485 201 596 q 224 303 197 396 q 306 143 251 210 l 760 863 q 565 939 676 939 m 360 90 q 536 35 435 35 q 733 102 650 35 q 858 274 815 169 q 901 490 901 379 q 879 654 901 574 q 815 797 857 735 l 360 90 z "},"Õ":{"ha":1094,"x_min":68,"x_max":1036,"o":"m 574 994 q 832 924 728 994 q 986 744 936 854 q 1036 513 1036 633 q 978 264 1036 388 q 806 59 921 140 q 531 -22 692 -22 q 272 47 376 -22 q 118 226 168 117 q 68 454 68 335 q 131 722 68 599 q 309 920 194 846 q 574 994 424 994 m 567 939 q 372 871 456 939 q 245 696 289 803 q 201 476 201 589 q 237 271 201 372 q 348 102 272 169 q 538 35 424 35 q 734 102 651 35 q 860 274 817 169 q 903 490 903 379 q 864 706 903 603 q 749 874 825 810 q 567 939 672 939 m 474 1181 q 360 1101 414 1181 l 321 1125 q 396 1223 349 1186 q 489 1260 443 1260 q 555 1247 528 1260 q 617 1207 582 1233 q 662 1178 644 1188 q 701 1168 679 1168 q 822 1250 771 1168 l 858 1231 q 785 1120 828 1151 q 689 1089 742 1089 q 628 1102 656 1089 q 569 1139 601 1115 q 518 1171 538 1161 q 474 1181 499 1181 z "},"Œ":{"ha":1406,"x_min":67,"x_max":1336,"o":"m 572 994 q 649 990 608 996 q 753 972 690 983 l 1317 972 l 1311 729 l 1267 729 q 1224 885 1271 843 q 1088 924 1176 926 l 968 921 q 895 902 918 919 q 865 853 872 885 q 854 756 858 822 l 842 532 l 946 532 q 1045 540 1013 532 q 1095 575 1078 547 q 1115 663 1113 603 l 1161 663 l 1147 360 l 1100 360 q 1088 445 1103 419 q 1042 476 1074 471 q 942 482 1011 482 q 839 476 879 482 l 822 168 q 813 60 821 106 l 1079 51 q 1289 271 1278 44 l 1336 271 l 1314 0 l 700 0 q 508 -22 594 -22 q 275 35 375 -22 q 121 194 175 93 q 67 426 67 296 q 124 697 67 568 q 297 908 182 825 q 572 994 411 990 m 578 936 q 387 876 474 936 q 249 705 300 817 q 197 443 197 593 q 291 151 197 258 q 553 43 385 43 q 704 65 621 43 l 749 904 q 664 928 710 919 q 578 936 618 936 z "},"P":{"ha":829,"x_min":57,"x_max":813,"o":"m 413 975 q 713 906 613 975 q 813 703 813 838 q 769 544 811 619 q 624 417 728 468 q 342 365 519 365 q 288 367 306 365 l 276 165 q 267 56 272 86 l 394 63 l 392 0 l 57 0 l 60 46 q 130 68 108 47 q 156 118 151 89 q 164 217 161 147 l 196 817 q 206 917 201 886 l 104 911 l 108 972 q 413 975 303 975 m 407 921 q 344 903 365 921 q 317 853 324 885 q 308 763 311 821 l 290 425 q 381 421 325 421 q 533 454 464 421 q 642 550 601 488 q 682 697 682 613 q 609 867 682 813 q 407 921 536 921 z "},"Þ":{"ha":801,"x_min":57,"x_max":776,"o":"m 413 926 q 350 910 371 925 q 321 871 329 896 q 310 801 313 846 q 382 803 335 803 q 678 735 579 803 q 776 544 776 668 q 733 395 776 468 q 584 272 690 322 q 301 221 478 221 l 279 221 l 276 149 q 267 56 272 81 l 367 61 l 364 0 l 57 0 l 60 46 q 130 68 108 47 q 156 118 151 89 q 164 217 161 147 l 196 817 q 206 917 201 886 l 106 911 l 108 972 l 415 972 l 413 926 m 307 747 l 282 275 q 317 274 301 274 q 344 275 332 275 q 563 349 481 276 q 646 539 646 421 q 572 697 646 646 q 371 749 499 749 l 307 747 z "},"Q":{"ha":1094,"x_min":68,"x_max":1083,"o":"m 574 994 q 832 924 728 994 q 986 744 936 854 q 1036 513 1036 633 q 991 294 1036 404 q 857 100 946 183 q 643 -10 768 17 l 643 -11 q 755 -26 710 -11 q 861 -99 800 -42 l 885 -121 q 1013 -233 981 -208 q 1075 -257 1046 -257 l 1083 -257 l 1083 -303 l 1039 -303 q 949 -299 979 -303 q 886 -279 918 -296 q 813 -225 854 -262 q 717 -132 786 -201 q 620 -46 656 -69 q 531 -22 585 -22 q 272 47 376 -22 q 118 226 168 117 q 68 454 68 335 q 131 722 68 599 q 309 920 194 846 q 574 994 424 994 m 567 939 q 372 871 456 939 q 245 696 289 803 q 201 476 201 589 q 237 271 201 372 q 348 102 272 169 q 538 35 424 35 q 734 102 651 35 q 860 274 817 169 q 903 490 903 379 q 864 706 903 603 q 749 874 825 810 q 567 939 672 939 z "},"R":{"ha":868,"x_min":57,"x_max":850,"o":"m 421 975 q 693 910 607 972 q 779 738 779 847 q 720 558 779 638 q 510 447 661 478 l 510 446 q 554 399 533 428 q 601 326 575 371 l 688 178 q 734 103 715 129 q 781 62 753 78 q 850 46 808 46 l 847 0 l 678 0 q 622 62 649 24 q 563 154 594 100 l 478 303 q 458 340 474 311 q 425 394 442 369 q 392 435 408 418 q 344 433 376 433 l 290 435 l 276 165 q 267 56 272 86 l 367 61 l 364 0 l 57 0 l 60 46 q 130 68 108 47 q 156 118 151 89 q 164 217 161 147 l 196 817 q 206 917 197 864 l 104 911 l 108 972 q 360 975 278 975 l 421 975 m 413 922 q 345 904 367 922 q 317 855 324 886 q 308 763 311 824 l 293 489 q 354 486 335 486 q 650 728 650 486 q 592 874 650 825 q 413 922 533 922 z "},"Ŕ":{"ha":868,"x_min":57,"x_max":850,"o":"m 421 975 q 693 910 607 972 q 779 738 779 847 q 720 558 779 638 q 510 447 661 478 l 510 446 q 554 399 533 428 q 601 326 575 371 l 688 178 q 734 103 715 129 q 781 62 753 78 q 850 46 808 46 l 847 0 l 678 0 q 622 62 649 24 q 563 154 594 100 l 478 303 q 458 340 474 311 q 425 394 442 369 q 392 435 408 418 q 344 433 376 433 l 290 435 l 276 165 q 267 56 272 86 l 367 61 l 364 0 l 57 0 l 60 46 q 130 68 108 47 q 156 118 151 89 q 164 217 161 147 l 196 817 q 206 917 197 864 l 104 911 l 108 972 q 360 975 278 975 l 421 975 m 413 922 q 345 904 367 922 q 317 855 324 886 q 308 763 311 824 l 293 489 q 354 486 335 486 q 650 728 650 486 q 592 874 650 825 q 413 922 533 922 m 357 1096 l 465 1279 q 524 1324 492 1324 q 551 1313 540 1324 q 565 1279 565 1299 q 533 1217 565 1250 l 390 1068 l 357 1096 z "},"Ř":{"ha":868,"x_min":57,"x_max":850,"o":"m 421 975 q 693 910 607 972 q 779 738 779 847 q 720 558 779 638 q 510 447 661 478 l 510 446 q 554 399 533 428 q 601 326 575 371 l 688 178 q 734 103 715 129 q 781 62 753 78 q 850 46 808 46 l 847 0 l 678 0 q 622 62 649 24 q 563 154 594 100 l 478 303 q 458 340 474 311 q 425 394 442 369 q 392 435 408 418 q 344 433 376 433 l 290 435 l 276 165 q 267 56 272 86 l 367 61 l 364 0 l 57 0 l 60 46 q 130 68 108 47 q 156 118 151 89 q 164 217 161 147 l 196 817 q 206 917 197 864 l 104 911 l 108 972 q 360 975 278 975 l 421 975 m 413 922 q 345 904 367 922 q 317 855 324 886 q 308 763 311 824 l 293 489 q 354 486 335 486 q 650 728 650 486 q 592 874 650 825 q 413 922 533 922 m 451 1074 l 197 1272 l 224 1313 q 313 1260 254 1296 q 456 1181 407 1204 l 458 1181 q 619 1268 522 1210 l 701 1315 l 722 1279 l 454 1074 l 451 1074 z "},"Ŗ":{"ha":868,"x_min":57,"x_max":850,"o":"m 421 975 q 693 910 607 972 q 779 738 779 847 q 720 558 779 638 q 510 447 661 478 l 510 446 q 554 399 533 428 q 601 326 575 371 l 688 178 q 734 103 715 129 q 781 62 753 78 q 850 46 808 46 l 847 0 l 678 0 q 622 62 649 24 q 563 154 594 100 l 478 303 q 458 340 474 311 q 425 394 442 369 q 392 435 408 418 q 344 433 376 433 l 290 435 l 276 165 q 267 56 272 86 l 367 61 l 364 0 l 57 0 l 60 46 q 130 68 108 47 q 156 118 151 89 q 164 217 161 147 l 196 817 q 206 917 197 864 l 104 911 l 108 972 q 360 975 278 975 l 421 975 m 413 922 q 345 904 367 922 q 317 855 324 886 q 308 763 311 824 l 293 489 q 354 486 335 486 q 650 728 650 486 q 592 874 650 825 q 413 922 533 922 m 283 -333 q 330 -242 317 -279 q 343 -168 343 -204 q 338 -100 343 -150 l 436 -78 q 447 -135 447 -107 q 413 -247 447 -189 q 318 -360 378 -306 l 283 -333 z "},"S":{"ha":786,"x_min":65,"x_max":715,"o":"m 394 994 q 519 978 456 994 q 632 924 582 963 l 629 983 l 700 983 l 685 678 l 635 678 q 574 863 633 788 q 400 939 514 939 q 263 888 314 939 q 211 765 211 838 q 242 674 211 713 q 317 610 272 636 q 439 547 361 583 q 583 473 528 507 q 677 386 639 439 q 715 257 715 333 q 675 112 715 175 q 558 13 635 49 q 376 -22 482 -22 q 247 -8 313 -22 q 133 38 181 6 l 138 -11 l 65 -11 l 72 285 l 126 285 q 199 99 128 161 q 386 36 269 36 q 537 85 475 36 q 599 219 599 133 q 567 319 599 278 q 489 389 535 361 q 363 456 443 417 q 224 528 276 496 q 136 610 172 560 q 100 732 100 660 q 126 848 100 788 q 219 951 153 908 q 394 994 285 994 z "},"Ś":{"ha":786,"x_min":65,"x_max":715,"o":"m 394 994 q 519 978 456 994 q 632 924 582 963 l 629 983 l 700 983 l 685 678 l 635 678 q 574 863 633 788 q 400 939 514 939 q 263 888 314 939 q 211 765 211 838 q 242 674 211 713 q 317 610 272 636 q 439 547 361 583 q 583 473 528 507 q 677 386 639 439 q 715 257 715 333 q 675 112 715 175 q 558 13 635 49 q 376 -22 482 -22 q 247 -8 313 -22 q 133 38 181 6 l 138 -11 l 65 -11 l 72 285 l 126 285 q 199 99 128 161 q 386 36 269 36 q 537 85 475 36 q 599 219 599 133 q 567 319 599 278 q 489 389 535 361 q 363 456 443 417 q 224 528 276 496 q 136 610 172 560 q 100 732 100 660 q 126 848 100 788 q 219 951 153 908 q 394 994 285 994 m 349 1096 l 457 1279 q 515 1324 483 1324 q 543 1313 532 1324 q 557 1279 557 1299 q 525 1217 557 1250 l 382 1068 l 349 1096 z "},"Š":{"ha":786,"x_min":65,"x_max":715,"o":"m 394 994 q 519 978 456 994 q 632 924 582 963 l 629 983 l 700 983 l 685 678 l 635 678 q 574 863 633 788 q 400 939 514 939 q 263 888 314 939 q 211 765 211 838 q 242 674 211 713 q 317 610 272 636 q 439 547 361 583 q 583 473 528 507 q 677 386 639 439 q 715 257 715 333 q 675 112 715 175 q 558 13 635 49 q 376 -22 482 -22 q 247 -8 313 -22 q 133 38 181 6 l 138 -11 l 65 -11 l 72 285 l 126 285 q 199 99 128 161 q 386 36 269 36 q 537 85 475 36 q 599 219 599 133 q 567 319 599 278 q 489 389 535 361 q 363 456 443 417 q 224 528 276 496 q 136 610 172 560 q 100 732 100 660 q 126 848 100 788 q 219 951 153 908 q 394 994 285 994 m 443 1074 l 189 1272 l 215 1313 q 304 1260 246 1296 q 447 1181 399 1204 l 450 1181 q 611 1268 514 1210 l 693 1315 l 714 1279 l 446 1074 l 443 1074 z "},"Ş":{"ha":786,"x_min":65,"x_max":715,"o":"m 211 765 q 242 674 211 713 q 317 610 272 636 q 439 547 361 583 q 583 473 528 507 q 677 386 639 439 q 715 257 715 333 q 633 63 715 139 q 407 -21 551 -14 l 376 -107 q 469 -81 418 -81 q 537 -103 513 -81 q 561 -162 561 -126 q 478 -280 561 -242 q 286 -333 394 -318 l 281 -290 q 408 -249 358 -276 q 458 -185 458 -222 q 445 -152 458 -162 q 411 -142 432 -142 q 347 -162 378 -142 l 300 -139 l 338 -21 q 133 38 208 -12 l 138 -11 l 65 -11 l 72 285 l 126 285 q 199 99 128 161 q 386 36 269 36 q 537 85 475 36 q 599 219 599 133 q 567 319 599 278 q 489 389 535 361 q 363 456 443 417 q 224 528 276 496 q 136 610 172 560 q 100 732 100 660 q 126 848 100 788 q 219 951 153 908 q 394 994 285 994 q 519 978 456 994 q 632 924 582 963 l 629 983 l 700 983 l 685 678 l 635 678 q 574 863 633 788 q 400 939 514 939 q 263 888 314 939 q 211 765 211 838 z "},"Ŝ":{"ha":786,"x_min":65,"x_max":715,"o":"m 394 994 q 519 978 456 994 q 632 924 582 963 l 629 983 l 700 983 l 685 678 l 635 678 q 574 863 633 788 q 400 939 514 939 q 263 888 314 939 q 211 765 211 838 q 242 674 211 713 q 317 610 272 636 q 439 547 361 583 q 583 473 528 507 q 677 386 639 439 q 715 257 715 333 q 675 112 715 175 q 558 13 635 49 q 376 -22 482 -22 q 247 -8 313 -22 q 133 38 181 6 l 138 -11 l 65 -11 l 72 285 l 126 285 q 199 99 128 161 q 386 36 269 36 q 537 85 475 36 q 599 219 599 133 q 567 319 599 278 q 489 389 535 361 q 363 456 443 417 q 224 528 276 496 q 136 610 172 560 q 100 732 100 660 q 126 848 100 788 q 219 951 153 908 q 394 994 285 994 m 689 1060 l 447 1183 l 444 1183 l 208 1063 l 188 1100 l 460 1294 l 463 1294 l 714 1099 l 689 1060 z "},"Ș":{"ha":786,"x_min":65,"x_max":715,"o":"m 394 994 q 519 978 456 994 q 632 924 582 963 l 629 983 l 700 983 l 685 678 l 635 678 q 574 863 633 788 q 400 939 514 939 q 263 888 314 939 q 211 765 211 838 q 242 674 211 713 q 317 610 272 636 q 439 547 361 583 q 583 473 528 507 q 677 386 639 439 q 715 257 715 333 q 675 112 715 175 q 558 13 635 49 q 376 -22 482 -22 q 247 -8 313 -22 q 133 38 181 6 l 138 -11 l 65 -11 l 72 285 l 126 285 q 199 99 128 161 q 386 36 269 36 q 537 85 475 36 q 599 219 599 133 q 567 319 599 278 q 489 389 535 361 q 363 456 443 417 q 224 528 276 496 q 136 610 172 560 q 100 732 100 660 q 126 848 100 788 q 219 951 153 908 q 394 994 285 994 m 256 -333 q 302 -242 289 -279 q 315 -168 315 -204 q 310 -100 315 -150 l 408 -78 q 419 -135 419 -107 q 385 -247 419 -189 q 290 -360 350 -306 l 256 -333 z "},"T":{"ha":883,"x_min":50,"x_max":878,"o":"m 871 679 l 818 679 q 808 819 821 767 q 758 897 794 871 q 650 922 721 922 l 532 921 l 486 165 q 476 56 482 86 l 592 61 l 589 0 l 268 0 l 271 46 q 335 69 314 47 q 363 125 356 92 q 374 217 371 158 l 417 921 l 274 919 q 148 862 188 919 q 101 679 108 804 l 50 679 l 74 972 l 878 972 l 871 679 z "},"Ť":{"ha":883,"x_min":50,"x_max":878,"o":"m 871 679 l 818 679 q 808 819 821 767 q 758 897 794 871 q 650 922 721 922 l 532 921 l 486 165 q 476 56 482 86 l 592 61 l 589 0 l 268 0 l 271 46 q 335 69 314 47 q 363 125 356 92 q 374 217 371 158 l 417 921 l 274 919 q 148 862 188 919 q 101 679 108 804 l 50 679 l 74 972 l 878 972 l 871 679 m 494 1074 l 240 1272 l 267 1313 q 356 1260 297 1296 q 499 1181 450 1204 l 501 1181 q 663 1268 565 1210 l 744 1315 l 765 1279 l 497 1074 l 494 1074 z "},"Ţ":{"ha":883,"x_min":50,"x_max":878,"o":"m 878 972 l 871 679 l 818 679 q 808 819 821 767 q 758 897 794 871 q 650 922 721 922 l 532 921 l 486 165 q 476 56 482 86 l 592 61 l 589 0 l 453 0 l 415 -107 q 508 -81 457 -81 q 576 -103 551 -81 q 600 -162 600 -126 q 517 -280 600 -242 q 325 -333 433 -318 l 319 -290 q 447 -249 397 -276 q 497 -185 497 -222 q 484 -152 497 -162 q 450 -142 471 -142 q 386 -162 417 -142 l 339 -139 l 383 0 l 268 0 l 271 46 q 335 69 314 47 q 363 125 356 92 q 374 217 371 158 l 417 921 l 274 919 q 148 862 188 919 q 101 679 108 804 l 50 679 l 74 972 l 878 972 z "},"Ț":{"ha":883,"x_min":50,"x_max":878,"o":"m 871 679 l 818 679 q 808 819 821 767 q 758 897 794 871 q 650 922 721 922 l 532 921 l 486 165 q 476 56 482 86 l 592 61 l 589 0 l 268 0 l 271 46 q 335 69 314 47 q 363 125 356 92 q 374 217 371 158 l 417 921 l 274 919 q 148 862 188 919 q 101 679 108 804 l 50 679 l 74 972 l 878 972 l 871 679 m 294 -333 q 341 -242 328 -279 q 354 -168 354 -204 q 349 -100 354 -150 l 447 -78 q 458 -135 458 -107 q 424 -247 458 -189 q 329 -360 389 -306 l 294 -333 z "},"U":{"ha":1033,"x_min":75,"x_max":1032,"o":"m 1031 926 q 959 904 981 925 q 933 856 938 883 q 925 756 929 828 l 906 432 q 799 104 894 231 q 508 -22 703 -22 q 293 21 372 -22 q 178 153 214 64 q 143 389 143 243 q 146 472 143 414 l 164 804 q 175 917 168 868 l 75 913 l 78 972 l 386 972 l 383 926 q 303 894 322 926 q 281 817 283 863 l 263 465 q 261 397 261 443 q 319 149 261 240 q 529 57 376 57 q 747 155 672 57 q 835 425 822 253 l 860 817 q 869 917 865 886 l 769 911 l 772 972 l 1032 972 l 1031 926 z "},"Ú":{"ha":1033,"x_min":75,"x_max":1032,"o":"m 1031 926 q 959 904 981 925 q 933 856 938 883 q 925 756 929 828 l 906 432 q 799 104 894 231 q 508 -22 703 -22 q 293 21 372 -22 q 178 153 214 64 q 143 389 143 243 q 146 472 143 414 l 164 804 q 175 917 168 868 l 75 913 l 78 972 l 386 972 l 383 926 q 303 894 322 926 q 281 817 283 863 l 263 465 q 261 397 261 443 q 319 149 261 240 q 529 57 376 57 q 747 155 672 57 q 835 425 822 253 l 860 817 q 869 917 865 886 l 769 911 l 772 972 l 1032 972 l 1031 926 m 514 1097 l 690 1261 q 747 1289 722 1289 q 781 1274 765 1289 q 790 1247 790 1264 q 746 1188 790 1215 l 543 1058 l 514 1097 z "},"Ŭ":{"ha":1033,"x_min":75,"x_max":1032,"o":"m 1031 926 q 959 904 981 925 q 933 856 938 883 q 925 756 929 828 l 906 432 q 799 104 894 231 q 508 -22 703 -22 q 293 21 372 -22 q 178 153 214 64 q 143 389 143 243 q 146 472 143 414 l 164 804 q 175 917 168 868 l 75 913 l 78 972 l 386 972 l 383 926 q 303 894 322 926 q 281 817 283 863 l 263 465 q 261 397 261 443 q 319 149 261 240 q 529 57 376 57 q 747 155 672 57 q 835 425 822 253 l 860 817 q 869 917 865 886 l 769 911 l 772 972 l 1032 972 l 1031 926 m 572 1106 q 453 1147 513 1106 q 371 1264 394 1188 l 410 1276 q 481 1208 432 1236 q 583 1181 531 1181 q 686 1208 638 1181 q 765 1282 735 1236 l 801 1267 q 703 1146 764 1186 q 572 1106 642 1106 z "},"Û":{"ha":1033,"x_min":75,"x_max":1032,"o":"m 1031 926 q 959 904 981 925 q 933 856 938 883 q 925 756 929 828 l 906 432 q 799 104 894 231 q 508 -22 703 -22 q 293 21 372 -22 q 178 153 214 64 q 143 389 143 243 q 146 472 143 414 l 164 804 q 175 917 168 868 l 75 913 l 78 972 l 386 972 l 383 926 q 303 894 322 926 q 281 817 283 863 l 263 465 q 261 397 261 443 q 319 149 261 240 q 529 57 376 57 q 747 155 672 57 q 835 425 822 253 l 860 817 q 869 917 865 886 l 769 911 l 772 972 l 1032 972 l 1031 926 m 815 1060 l 574 1183 l 571 1183 l 335 1063 l 314 1100 l 586 1294 l 589 1294 l 840 1099 l 815 1060 z "},"Ü":{"ha":1033,"x_min":75,"x_max":1032,"o":"m 1031 926 q 959 904 981 925 q 933 856 938 883 q 925 756 929 828 l 906 432 q 799 104 894 231 q 508 -22 703 -22 q 293 21 372 -22 q 178 153 214 64 q 143 389 143 243 q 146 472 143 414 l 164 804 q 175 917 168 868 l 75 913 l 78 972 l 386 972 l 383 926 q 303 894 322 926 q 281 817 283 863 l 263 465 q 261 397 261 443 q 319 149 261 240 q 529 57 376 57 q 747 155 672 57 q 835 425 822 253 l 860 817 q 869 917 865 886 l 769 911 l 772 972 l 1032 972 l 1031 926 m 461 1083 q 415 1106 433 1083 q 396 1163 396 1129 q 418 1224 396 1199 q 471 1249 440 1249 q 515 1227 497 1249 q 532 1172 532 1206 q 510 1110 532 1136 q 461 1083 489 1083 m 685 1083 q 640 1106 658 1083 q 621 1163 621 1129 q 643 1224 621 1199 q 694 1249 665 1249 q 740 1226 722 1249 q 757 1169 757 1203 q 735 1108 757 1133 q 685 1083 714 1083 z "},"Ụ":{"ha":1033,"x_min":75,"x_max":1032,"o":"m 1031 926 q 959 904 981 925 q 933 856 938 883 q 925 756 929 828 l 906 432 q 799 104 894 231 q 508 -22 703 -22 q 293 21 372 -22 q 178 153 214 64 q 143 389 143 243 q 146 472 143 414 l 164 804 q 175 917 168 868 l 75 913 l 78 972 l 386 972 l 383 926 q 303 894 322 926 q 281 817 283 863 l 263 465 q 261 397 261 443 q 319 149 261 240 q 529 57 376 57 q 747 155 672 57 q 835 425 822 253 l 860 817 q 869 917 865 886 l 769 911 l 772 972 l 1032 972 l 1031 926 m 494 -114 q 538 -134 521 -114 q 554 -183 554 -154 q 533 -237 554 -215 q 485 -258 513 -258 q 442 -238 460 -258 q 424 -189 424 -218 q 445 -136 424 -158 q 494 -114 467 -114 z "},"Ù":{"ha":1033,"x_min":75,"x_max":1032,"o":"m 1031 926 q 959 904 981 925 q 933 856 938 883 q 925 756 929 828 l 906 432 q 799 104 894 231 q 508 -22 703 -22 q 293 21 372 -22 q 178 153 214 64 q 143 389 143 243 q 146 472 143 414 l 164 804 q 175 917 168 868 l 75 913 l 78 972 l 386 972 l 383 926 q 303 894 322 926 q 281 817 283 863 l 263 465 q 261 397 261 443 q 319 149 261 240 q 529 57 376 57 q 747 155 672 57 q 835 425 822 253 l 860 817 q 869 917 865 886 l 769 911 l 772 972 l 1032 972 l 1031 926 m 428 1188 q 383 1247 383 1215 q 393 1274 383 1264 q 426 1289 408 1289 q 483 1261 451 1289 l 660 1097 l 631 1058 l 428 1188 z "},"Ủ":{"ha":1033,"x_min":75,"x_max":1032,"o":"m 1031 926 q 959 904 981 925 q 933 856 938 883 q 925 756 929 828 l 906 432 q 799 104 894 231 q 508 -22 703 -22 q 293 21 372 -22 q 178 153 214 64 q 143 389 143 243 q 146 472 143 414 l 164 804 q 175 917 168 868 l 75 913 l 78 972 l 386 972 l 383 926 q 303 894 322 926 q 281 817 283 863 l 263 465 q 261 397 261 443 q 319 149 261 240 q 529 57 376 57 q 747 155 672 57 q 835 425 822 253 l 860 817 q 869 917 865 886 l 769 911 l 772 972 l 1032 972 l 1031 926 m 575 1303 q 671 1278 636 1303 q 706 1204 706 1253 q 703 1175 706 1197 q 676 1126 697 1144 q 617 1089 654 1108 q 581 1069 592 1076 q 569 1050 571 1061 l 522 1050 q 534 1074 525 1065 q 561 1094 543 1083 q 601 1125 586 1108 q 624 1175 617 1142 q 626 1199 626 1192 q 567 1253 626 1253 q 521 1240 543 1253 q 493 1211 499 1226 q 497 1189 499 1200 q 479 1167 494 1175 q 449 1158 464 1158 q 410 1192 410 1158 q 430 1244 410 1218 q 488 1286 450 1269 q 575 1303 526 1303 z "},"Ư":{"ha":1033,"x_min":75,"x_max":1126,"o":"m 1126 1068 q 1064 953 1114 1003 q 936 896 1014 904 l 906 432 q 799 104 894 231 q 508 -22 703 -22 q 293 21 372 -22 q 178 153 214 64 q 143 389 143 243 q 146 472 143 414 l 164 804 q 175 917 168 868 l 75 913 l 78 972 l 386 972 l 383 926 q 303 894 322 926 q 281 817 283 863 l 263 465 q 261 397 261 443 q 319 149 261 240 q 529 57 376 57 q 747 155 672 57 q 835 425 822 253 l 860 817 q 869 917 865 886 l 769 911 l 772 972 l 942 972 l 942 963 q 999 999 978 969 q 1026 1068 1019 1028 l 1126 1068 z "},"Ứ":{"ha":1033,"x_min":75,"x_max":1126,"o":"m 1126 1068 q 1064 953 1114 1003 q 936 896 1014 904 l 906 432 q 799 104 894 231 q 508 -22 703 -22 q 293 21 372 -22 q 178 153 214 64 q 143 389 143 243 q 146 472 143 414 l 164 804 q 175 917 168 868 l 75 913 l 78 972 l 386 972 l 383 926 q 303 894 322 926 q 281 817 283 863 l 263 465 q 261 397 261 443 q 319 149 261 240 q 529 57 376 57 q 747 155 672 57 q 835 425 822 253 l 860 817 q 869 917 865 886 l 769 911 l 772 972 l 942 972 l 942 963 q 999 999 978 969 q 1026 1068 1019 1028 l 1126 1068 m 475 1096 l 583 1279 q 642 1324 610 1324 q 669 1313 658 1324 q 683 1279 683 1299 q 651 1217 683 1250 l 508 1068 l 475 1096 z "},"Ự":{"ha":1033,"x_min":75,"x_max":1126,"o":"m 1126 1068 q 1064 953 1114 1003 q 936 896 1014 904 l 906 432 q 799 104 894 231 q 508 -22 703 -22 q 293 21 372 -22 q 178 153 214 64 q 143 389 143 243 q 146 472 143 414 l 164 804 q 175 917 168 868 l 75 913 l 78 972 l 386 972 l 383 926 q 303 894 322 926 q 281 817 283 863 l 263 465 q 261 397 261 443 q 319 149 261 240 q 529 57 376 57 q 747 155 672 57 q 835 425 822 253 l 860 817 q 869 917 865 886 l 769 911 l 772 972 l 942 972 l 942 963 q 999 999 978 969 q 1026 1068 1019 1028 l 1126 1068 m 494 -114 q 538 -134 521 -114 q 554 -183 554 -154 q 533 -237 554 -215 q 485 -258 513 -258 q 442 -238 460 -258 q 424 -189 424 -218 q 445 -136 424 -158 q 494 -114 467 -114 z "},"Ừ":{"ha":1033,"x_min":75,"x_max":1126,"o":"m 1126 1068 q 1064 953 1114 1003 q 936 896 1014 904 l 906 432 q 799 104 894 231 q 508 -22 703 -22 q 293 21 372 -22 q 178 153 214 64 q 143 389 143 243 q 146 472 143 414 l 164 804 q 175 917 168 868 l 75 913 l 78 972 l 386 972 l 383 926 q 303 894 322 926 q 281 817 283 863 l 263 465 q 261 397 261 443 q 319 149 261 240 q 529 57 376 57 q 747 155 672 57 q 835 425 822 253 l 860 817 q 869 917 865 886 l 769 911 l 772 972 l 942 972 l 942 963 q 999 999 978 969 q 1026 1068 1019 1028 l 1126 1068 m 506 1217 q 474 1279 474 1250 q 488 1313 474 1299 q 515 1324 499 1324 q 574 1279 547 1324 l 682 1096 l 649 1068 l 506 1217 z "},"Ử":{"ha":1033,"x_min":75,"x_max":1126,"o":"m 1126 1068 q 1064 953 1114 1003 q 936 896 1014 904 l 906 432 q 799 104 894 231 q 508 -22 703 -22 q 293 21 372 -22 q 178 153 214 64 q 143 389 143 243 q 146 472 143 414 l 164 804 q 175 917 168 868 l 75 913 l 78 972 l 386 972 l 383 926 q 303 894 322 926 q 281 817 283 863 l 263 465 q 261 397 261 443 q 319 149 261 240 q 529 57 376 57 q 747 155 672 57 q 835 425 822 253 l 860 817 q 869 917 865 886 l 769 911 l 772 972 l 942 972 l 942 963 q 999 999 978 969 q 1026 1068 1019 1028 l 1126 1068 m 575 1303 q 671 1278 636 1303 q 706 1204 706 1253 q 703 1175 706 1197 q 676 1126 697 1144 q 617 1089 654 1108 q 581 1069 592 1076 q 569 1050 571 1061 l 522 1050 q 534 1074 525 1065 q 561 1094 543 1083 q 601 1125 586 1108 q 624 1175 617 1142 q 626 1199 626 1192 q 567 1253 626 1253 q 521 1240 543 1253 q 493 1211 499 1226 q 497 1189 499 1200 q 479 1167 494 1175 q 449 1158 464 1158 q 410 1192 410 1158 q 430 1244 410 1218 q 488 1286 450 1269 q 575 1303 526 1303 z "},"Ữ":{"ha":1033,"x_min":75,"x_max":1126,"o":"m 1126 1068 q 1064 953 1114 1003 q 936 896 1014 904 l 906 432 q 799 104 894 231 q 508 -22 703 -22 q 293 21 372 -22 q 178 153 214 64 q 143 389 143 243 q 146 472 143 414 l 164 804 q 175 917 168 868 l 75 913 l 78 972 l 386 972 l 383 926 q 303 894 322 926 q 281 817 283 863 l 263 465 q 261 397 261 443 q 319 149 261 240 q 529 57 376 57 q 747 155 672 57 q 835 425 822 253 l 860 817 q 869 917 865 886 l 769 911 l 772 972 l 942 972 l 942 963 q 999 999 978 969 q 1026 1068 1019 1028 l 1126 1068 m 668 1121 q 615 1131 638 1121 q 563 1161 593 1142 q 522 1186 540 1178 q 483 1194 504 1194 q 430 1178 458 1194 q 382 1132 401 1161 l 347 1150 q 413 1232 367 1199 q 499 1265 458 1265 q 552 1255 531 1265 q 603 1225 574 1244 q 642 1201 626 1208 q 675 1193 657 1193 q 778 1264 732 1193 l 811 1247 q 747 1152 786 1183 q 668 1121 708 1121 z "},"Ű":{"ha":1033,"x_min":75,"x_max":1032,"o":"m 1031 926 q 959 904 981 925 q 933 856 938 883 q 925 756 929 828 l 906 432 q 799 104 894 231 q 508 -22 703 -22 q 293 21 372 -22 q 178 153 214 64 q 143 389 143 243 q 146 472 143 414 l 164 804 q 175 917 168 868 l 75 913 l 78 972 l 386 972 l 383 926 q 303 894 322 926 q 281 817 283 863 l 263 465 q 261 397 261 443 q 319 149 261 240 q 529 57 376 57 q 747 155 672 57 q 835 425 822 253 l 860 817 q 869 917 865 886 l 769 911 l 772 972 l 1032 972 l 1031 926 m 350 1107 l 482 1276 q 549 1319 517 1319 q 575 1310 565 1319 q 586 1283 586 1299 q 544 1219 586 1256 l 381 1076 l 350 1107 m 544 1121 l 697 1278 q 767 1318 736 1318 q 799 1301 788 1318 q 806 1278 806 1290 q 757 1215 806 1247 l 569 1089 l 544 1121 z "},"Ū":{"ha":1033,"x_min":75,"x_max":1032,"o":"m 1031 926 q 959 904 981 925 q 933 856 938 883 q 925 756 929 828 l 906 432 q 799 104 894 231 q 508 -22 703 -22 q 293 21 372 -22 q 178 153 214 64 q 143 389 143 243 q 146 472 143 414 l 164 804 q 175 917 168 868 l 75 913 l 78 972 l 386 972 l 383 926 q 303 894 322 926 q 281 817 283 863 l 263 465 q 261 397 261 443 q 319 149 261 240 q 529 57 376 57 q 747 155 672 57 q 835 425 822 253 l 860 817 q 869 917 865 886 l 769 911 l 772 972 l 1032 972 l 1031 926 m 393 1160 l 397 1238 l 765 1238 l 761 1165 l 393 1160 z "},"Ų":{"ha":1033,"x_min":75,"x_max":1032,"o":"m 1032 972 l 1031 926 q 959 904 981 925 q 933 856 938 883 q 925 756 929 828 l 906 432 q 837 163 897 276 q 658 3 776 49 q 518 -94 575 -32 q 461 -224 461 -156 q 483 -294 461 -268 q 544 -321 504 -321 q 650 -276 600 -321 l 669 -300 q 590 -362 636 -336 q 499 -387 544 -387 q 407 -351 440 -387 q 374 -256 374 -315 q 417 -127 374 -187 q 532 -22 461 -67 l 508 -22 q 293 21 372 -22 q 178 153 214 64 q 143 389 143 243 q 146 472 143 414 l 164 804 q 175 917 168 868 l 75 913 l 78 972 l 386 972 l 383 926 q 303 894 322 926 q 281 817 283 863 l 263 465 q 261 397 261 443 q 319 149 261 240 q 529 57 376 57 q 747 155 672 57 q 835 425 822 253 l 860 817 q 869 917 865 886 l 769 911 l 772 972 l 1032 972 z "},"Ů":{"ha":1033,"x_min":75,"x_max":1032,"o":"m 1031 926 q 959 904 981 925 q 933 856 938 883 q 925 756 929 828 l 906 432 q 799 104 894 231 q 508 -22 703 -22 q 293 21 372 -22 q 178 153 214 64 q 143 389 143 243 q 146 472 143 414 l 164 804 q 175 917 168 868 l 75 913 l 78 972 l 386 972 l 383 926 q 303 894 322 926 q 281 817 283 863 l 263 465 q 261 397 261 443 q 319 149 261 240 q 529 57 376 57 q 747 155 672 57 q 835 425 822 253 l 860 817 q 869 917 865 886 l 769 911 l 772 972 l 1032 972 l 1031 926 m 572 1056 q 480 1087 518 1056 q 442 1179 442 1118 q 463 1252 442 1219 q 517 1303 483 1285 q 585 1321 550 1321 q 677 1290 639 1321 q 715 1199 715 1258 q 694 1124 715 1157 q 640 1074 674 1092 q 572 1056 607 1056 m 578 1094 q 624 1122 604 1094 q 644 1189 644 1149 q 628 1256 644 1229 q 583 1282 611 1282 q 533 1254 554 1282 q 513 1186 513 1226 q 530 1121 513 1147 q 578 1094 547 1094 z "},"Ũ":{"ha":1033,"x_min":75,"x_max":1032,"o":"m 1031 926 q 959 904 981 925 q 933 856 938 883 q 925 756 929 828 l 906 432 q 799 104 894 231 q 508 -22 703 -22 q 293 21 372 -22 q 178 153 214 64 q 143 389 143 243 q 146 472 143 414 l 164 804 q 175 917 168 868 l 75 913 l 78 972 l 386 972 l 383 926 q 303 894 322 926 q 281 817 283 863 l 263 465 q 261 397 261 443 q 319 149 261 240 q 529 57 376 57 q 747 155 672 57 q 835 425 822 253 l 860 817 q 869 917 865 886 l 769 911 l 772 972 l 1032 972 l 1031 926 m 668 1121 q 615 1131 638 1121 q 563 1161 593 1142 q 522 1186 540 1178 q 483 1194 504 1194 q 430 1178 458 1194 q 382 1132 401 1161 l 347 1150 q 413 1232 367 1199 q 499 1265 458 1265 q 552 1255 531 1265 q 603 1225 574 1244 q 642 1201 626 1208 q 675 1193 657 1193 q 778 1264 732 1193 l 811 1247 q 747 1152 786 1183 q 668 1121 708 1121 z "},"V":{"ha":924,"x_min":32,"x_max":967,"o":"m 964 926 q 869 894 903 924 q 804 790 836 865 q 468 -15 726 599 l 432 -15 l 160 725 q 110 914 114 843 l 32 911 l 35 972 l 351 972 l 349 925 q 254 847 254 919 q 269 775 254 818 l 313 653 q 383 451 367 496 q 482 183 450 278 l 485 183 q 536 310 515 261 l 565 382 l 696 701 l 743 814 q 789 917 776 893 l 682 911 l 685 972 l 967 972 l 964 926 z "},"W":{"ha":1381,"x_min":39,"x_max":1425,"o":"m 753 975 q 794 820 764 926 q 839 658 824 714 q 897 451 893 468 l 906 422 q 967 199 950 264 l 969 199 l 1040 381 q 1185 763 1106 561 l 1204 814 q 1251 915 1225 874 l 1140 911 l 1143 972 l 1425 972 l 1422 926 q 1346 906 1372 921 q 1297 851 1319 890 q 1240 721 1275 811 q 1144 472 1194 606 q 951 -15 1014 135 l 915 -15 l 757 532 q 701 738 726 636 l 696 738 l 411 -15 l 375 -15 l 165 725 l 156 760 q 130 849 140 810 q 117 914 119 889 l 39 911 l 42 972 l 375 972 l 372 926 q 288 906 313 924 q 264 849 264 889 q 274 775 264 815 q 303 656 286 715 q 326 578 321 596 q 363 451 350 503 q 410 282 379 388 l 431 211 l 433 211 q 486 354 463 292 l 504 401 q 535 485 515 429 q 715 975 694 911 l 753 975 z "},"X":{"ha":906,"x_min":0,"x_max":899,"o":"m 896 926 q 786 869 838 918 q 668 733 735 819 l 499 511 q 726 188 644 297 l 747 157 q 815 58 785 107 l 896 61 l 893 0 l 551 0 l 554 46 q 636 93 636 44 q 617 147 636 115 q 517 293 567 224 l 431 418 l 281 213 q 269 197 274 204 q 261 185 265 190 q 224 133 254 175 q 160 54 193 90 l 275 61 l 272 0 l 0 0 l 3 46 q 76 75 44 54 q 133 125 108 96 q 201 213 158 154 l 394 469 q 224 722 275 644 q 153 835 174 799 q 119 914 133 872 l 42 911 l 44 972 l 406 972 l 403 926 l 342 924 q 275 885 275 919 q 282 853 275 869 q 304 811 289 838 q 464 563 340 744 l 608 756 q 683 853 646 806 q 739 917 719 900 l 622 911 l 625 972 l 899 972 l 896 926 z "},"Y":{"ha":890,"x_min":29,"x_max":929,"o":"m 926 926 q 815 882 861 922 q 713 747 769 842 l 599 553 q 519 417 572 506 l 513 300 q 506 165 504 167 q 496 56 504 100 l 611 61 l 608 0 l 288 0 l 290 46 q 360 69 339 47 q 386 119 382 90 q 393 217 390 147 l 401 375 l 182 757 q 115 914 122 856 l 29 911 l 32 972 l 385 972 l 382 926 q 271 861 271 926 q 300 775 271 829 l 343 700 q 481 474 419 565 l 483 474 q 646 751 551 593 q 681 810 668 790 q 753 915 725 886 l 643 911 l 646 972 l 929 972 l 926 926 z "},"Ý":{"ha":890,"x_min":29,"x_max":929,"o":"m 926 926 q 815 882 861 922 q 713 747 769 842 l 599 553 q 519 417 572 506 l 513 300 q 506 165 504 167 q 496 56 504 100 l 611 61 l 608 0 l 288 0 l 290 46 q 360 69 339 47 q 386 119 382 90 q 393 217 390 147 l 401 375 l 182 757 q 115 914 122 856 l 29 911 l 32 972 l 385 972 l 382 926 q 271 861 271 926 q 300 775 271 829 l 343 700 q 481 474 419 565 l 483 474 q 646 751 551 593 q 681 810 668 790 q 753 915 725 886 l 643 911 l 646 972 l 929 972 l 926 926 m 446 1097 l 622 1261 q 679 1289 654 1289 q 713 1274 697 1289 q 722 1247 722 1264 q 678 1188 722 1215 l 475 1058 l 446 1097 z "},"Ÿ":{"ha":890,"x_min":29,"x_max":929,"o":"m 926 926 q 815 882 861 922 q 713 747 769 842 l 599 553 q 519 417 572 506 l 513 300 q 506 165 504 167 q 496 56 504 100 l 611 61 l 608 0 l 288 0 l 290 46 q 360 69 339 47 q 386 119 382 90 q 393 217 390 147 l 401 375 l 182 757 q 115 914 122 856 l 29 911 l 32 972 l 385 972 l 382 926 q 271 861 271 926 q 300 775 271 829 l 343 700 q 481 474 419 565 l 483 474 q 646 751 551 593 q 681 810 668 790 q 753 915 725 886 l 643 911 l 646 972 l 929 972 l 926 926 m 393 1083 q 347 1106 365 1083 q 328 1163 328 1129 q 350 1224 328 1199 q 403 1249 372 1249 q 447 1227 429 1249 q 464 1172 464 1206 q 442 1110 464 1136 q 393 1083 421 1083 m 617 1083 q 572 1106 590 1083 q 553 1163 553 1129 q 575 1224 553 1199 q 626 1249 597 1249 q 672 1226 654 1249 q 689 1169 689 1203 q 667 1108 689 1133 q 617 1083 646 1083 z "},"Ỵ":{"ha":890,"x_min":29,"x_max":929,"o":"m 926 926 q 815 882 861 922 q 713 747 769 842 l 599 553 q 519 417 572 506 l 513 300 q 506 165 504 167 q 496 56 504 100 l 611 61 l 608 0 l 288 0 l 290 46 q 360 69 339 47 q 386 119 382 90 q 393 217 390 147 l 401 375 l 182 757 q 115 914 122 856 l 29 911 l 32 972 l 385 972 l 382 926 q 271 861 271 926 q 300 775 271 829 l 343 700 q 481 474 419 565 l 483 474 q 646 751 551 593 q 681 810 668 790 q 753 915 725 886 l 643 911 l 646 972 l 929 972 l 926 926 m 424 -114 q 467 -134 450 -114 q 483 -183 483 -154 q 463 -237 483 -215 q 414 -258 442 -258 q 371 -238 389 -258 q 353 -189 353 -218 q 374 -136 353 -158 q 424 -114 396 -114 z "},"Ỳ":{"ha":890,"x_min":29,"x_max":929,"o":"m 926 926 q 815 882 861 922 q 713 747 769 842 l 599 553 q 519 417 572 506 l 513 300 q 506 165 504 167 q 496 56 504 100 l 611 61 l 608 0 l 288 0 l 290 46 q 360 69 339 47 q 386 119 382 90 q 393 217 390 147 l 401 375 l 182 757 q 115 914 122 856 l 29 911 l 32 972 l 385 972 l 382 926 q 271 861 271 926 q 300 775 271 829 l 343 700 q 481 474 419 565 l 483 474 q 646 751 551 593 q 681 810 668 790 q 753 915 725 886 l 643 911 l 646 972 l 929 972 l 926 926 m 438 1217 q 406 1279 406 1250 q 419 1313 406 1299 q 447 1324 431 1324 q 506 1279 479 1324 l 614 1096 l 581 1068 l 438 1217 z "},"Ỷ":{"ha":890,"x_min":29,"x_max":929,"o":"m 926 926 q 815 882 861 922 q 713 747 769 842 l 599 553 q 519 417 572 506 l 513 300 q 506 165 504 167 q 496 56 504 100 l 611 61 l 608 0 l 288 0 l 290 46 q 360 69 339 47 q 386 119 382 90 q 393 217 390 147 l 401 375 l 182 757 q 115 914 122 856 l 29 911 l 32 972 l 385 972 l 382 926 q 271 861 271 926 q 300 775 271 829 l 343 700 q 481 474 419 565 l 483 474 q 646 751 551 593 q 681 810 668 790 q 753 915 725 886 l 643 911 l 646 972 l 929 972 l 926 926 m 507 1303 q 603 1278 568 1303 q 638 1204 638 1253 q 635 1175 638 1197 q 608 1126 629 1144 q 549 1089 586 1108 q 513 1069 524 1076 q 501 1050 503 1061 l 454 1050 q 466 1074 457 1065 q 493 1094 475 1083 q 533 1125 518 1108 q 556 1175 549 1142 q 558 1199 558 1192 q 499 1253 558 1253 q 453 1240 475 1253 q 425 1211 431 1226 q 429 1189 431 1200 q 411 1167 426 1175 q 381 1158 396 1158 q 342 1192 342 1158 q 362 1244 342 1218 q 420 1286 382 1269 q 507 1303 458 1303 z "},"Ỹ":{"ha":890,"x_min":29,"x_max":929,"o":"m 926 926 q 815 882 861 922 q 713 747 769 842 l 599 553 q 519 417 572 506 l 513 300 q 506 165 504 167 q 496 56 504 100 l 611 61 l 608 0 l 288 0 l 290 46 q 360 69 339 47 q 386 119 382 90 q 393 217 390 147 l 401 375 l 182 757 q 115 914 122 856 l 29 911 l 32 972 l 385 972 l 382 926 q 271 861 271 926 q 300 775 271 829 l 343 700 q 481 474 419 565 l 483 474 q 646 751 551 593 q 681 810 668 790 q 753 915 725 886 l 643 911 l 646 972 l 929 972 l 926 926 m 600 1121 q 547 1131 569 1121 q 494 1161 525 1142 q 454 1186 472 1178 q 415 1194 436 1194 q 362 1178 390 1194 q 314 1132 333 1161 l 279 1150 q 344 1232 299 1199 q 431 1265 390 1265 q 484 1255 463 1265 q 535 1225 506 1244 q 574 1201 558 1208 q 607 1193 589 1193 q 710 1264 664 1193 l 743 1247 q 679 1152 718 1183 q 600 1121 640 1121 z "},"Z":{"ha":850,"x_min":39,"x_max":804,"o":"m 801 924 l 257 167 q 157 51 201 90 l 500 57 q 660 116 597 58 q 728 285 722 174 l 775 285 l 751 0 l 39 0 l 43 64 q 94 132 67 93 q 330 444 221 296 q 578 796 439 592 q 624 861 600 828 q 674 921 649 894 l 315 915 q 188 857 232 913 q 139 685 144 801 l 92 685 l 115 972 l 804 972 l 801 924 z "},"Ź":{"ha":850,"x_min":39,"x_max":804,"o":"m 801 924 l 257 167 q 157 51 201 90 l 500 57 q 660 116 597 58 q 728 285 722 174 l 775 285 l 751 0 l 39 0 l 43 64 q 94 132 67 93 q 330 444 221 296 q 578 796 439 592 q 624 861 600 828 q 674 921 649 894 l 315 915 q 188 857 232 913 q 139 685 144 801 l 92 685 l 115 972 l 804 972 l 801 924 m 390 1096 l 499 1279 q 557 1324 525 1324 q 585 1313 574 1324 q 599 1279 599 1299 q 567 1217 599 1250 l 424 1068 l 390 1096 z "},"Ž":{"ha":850,"x_min":39,"x_max":804,"o":"m 801 924 l 257 167 q 157 51 201 90 l 500 57 q 660 116 597 58 q 728 285 722 174 l 775 285 l 751 0 l 39 0 l 43 64 q 94 132 67 93 q 330 444 221 296 q 578 796 439 592 q 624 861 600 828 q 674 921 649 894 l 315 915 q 188 857 232 913 q 139 685 144 801 l 92 685 l 115 972 l 804 972 l 801 924 m 485 1074 l 231 1272 l 257 1313 q 346 1260 288 1296 q 489 1181 440 1204 l 492 1181 q 653 1268 556 1210 l 735 1315 l 756 1279 l 488 1074 l 485 1074 z "},"Ż":{"ha":850,"x_min":39,"x_max":804,"o":"m 801 924 l 257 167 q 157 51 201 90 l 500 57 q 660 116 597 58 q 728 285 722 174 l 775 285 l 751 0 l 39 0 l 43 64 q 94 132 67 93 q 330 444 221 296 q 578 796 439 592 q 624 861 600 828 q 674 921 649 894 l 315 915 q 188 857 232 913 q 139 685 144 801 l 92 685 l 115 972 l 804 972 l 801 924 m 500 1271 q 548 1249 529 1271 q 567 1196 567 1228 q 544 1135 567 1160 q 490 1110 521 1110 q 441 1132 461 1110 q 421 1188 421 1154 q 444 1247 421 1222 q 500 1271 468 1271 z "},"a":{"ha":761,"x_min":51,"x_max":761,"o":"m 457 710 q 643 686 551 710 q 582 131 582 233 q 589 74 582 94 q 621 54 596 54 q 675 88 647 54 q 722 189 703 121 l 761 181 q 731 96 754 142 q 670 17 708 50 q 581 -15 632 -15 q 478 110 478 -15 q 503 296 478 171 l 499 296 q 371 49 440 113 q 228 -15 301 -15 q 99 43 147 -15 q 51 226 51 101 q 97 469 51 360 q 235 644 143 579 q 457 710 326 710 m 414 660 q 278 602 333 660 q 195 451 222 544 q 168 250 168 357 q 258 46 168 46 q 381 142 319 46 q 482 378 442 238 q 522 643 522 519 q 414 660 481 660 z "},"á":{"ha":761,"x_min":51,"x_max":761,"o":"m 457 710 q 643 686 551 710 q 582 131 582 233 q 589 74 582 94 q 621 54 596 54 q 675 88 647 54 q 722 189 703 121 l 761 181 q 731 96 754 142 q 670 17 708 50 q 581 -15 632 -15 q 478 110 478 -15 q 503 296 478 171 l 499 296 q 371 49 440 113 q 228 -15 301 -15 q 99 43 147 -15 q 51 226 51 101 q 97 469 51 360 q 235 644 143 579 q 457 710 326 710 m 414 660 q 278 602 333 660 q 195 451 222 544 q 168 250 168 357 q 258 46 168 46 q 381 142 319 46 q 482 378 442 238 q 522 643 522 519 q 414 660 481 660 m 338 832 l 446 1015 q 504 1060 472 1060 q 532 1049 521 1060 q 546 1015 546 1035 q 514 953 546 986 l 371 804 l 338 832 z "},"ă":{"ha":761,"x_min":51,"x_max":761,"o":"m 457 710 q 643 686 551 710 q 582 131 582 233 q 589 74 582 94 q 621 54 596 54 q 675 88 647 54 q 722 189 703 121 l 761 181 q 731 96 754 142 q 670 17 708 50 q 581 -15 632 -15 q 478 110 478 -15 q 503 296 478 171 l 499 296 q 371 49 440 113 q 228 -15 301 -15 q 99 43 147 -15 q 51 226 51 101 q 97 469 51 360 q 235 644 143 579 q 457 710 326 710 m 414 660 q 278 602 333 660 q 195 451 222 544 q 168 250 168 357 q 258 46 168 46 q 381 142 319 46 q 482 378 442 238 q 522 643 522 519 q 414 660 481 660 m 429 844 q 326 885 376 844 q 254 1003 275 926 l 289 1015 q 351 947 308 975 q 439 919 393 919 q 528 947 486 919 q 597 1021 571 975 l 629 1006 q 542 885 596 925 q 429 844 489 844 z "},"ắ":{"ha":761,"x_min":51,"x_max":761,"o":"m 418 957 l 508 1108 q 556 1144 529 1144 q 579 1136 571 1144 q 590 1108 590 1121 q 564 1057 590 1085 l 446 933 l 418 957 m 426 801 q 328 835 376 801 q 260 932 281 869 l 292 943 q 351 887 311 910 q 435 864 392 864 q 520 887 479 864 q 586 947 561 910 l 615 935 q 534 835 585 868 q 426 801 483 801 m 457 710 q 643 686 551 710 q 582 131 582 233 q 589 74 582 94 q 621 54 596 54 q 675 88 647 54 q 722 189 703 121 l 761 181 q 731 96 754 142 q 670 17 708 50 q 581 -15 632 -15 q 478 110 478 -15 q 503 296 478 171 l 499 296 q 371 49 440 113 q 228 -15 301 -15 q 99 43 147 -15 q 51 226 51 101 q 97 469 51 360 q 235 644 143 579 q 457 710 326 710 m 414 660 q 278 602 333 660 q 195 451 222 544 q 168 250 168 357 q 258 46 168 46 q 381 142 319 46 q 482 378 442 238 q 522 643 522 519 q 414 660 481 660 z "},"ặ":{"ha":761,"x_min":51,"x_max":761,"o":"m 457 710 q 643 686 551 710 q 582 131 582 233 q 589 74 582 94 q 621 54 596 54 q 675 88 647 54 q 722 189 703 121 l 761 181 q 731 96 754 142 q 670 17 708 50 q 581 -15 632 -15 q 478 110 478 -15 q 503 296 478 171 l 499 296 q 371 49 440 113 q 228 -15 301 -15 q 99 43 147 -15 q 51 226 51 101 q 97 469 51 360 q 235 644 143 579 q 457 710 326 710 m 414 660 q 278 602 333 660 q 195 451 222 544 q 168 250 168 357 q 258 46 168 46 q 381 142 319 46 q 482 378 442 238 q 522 643 522 519 q 414 660 481 660 m 358 -114 q 401 -134 385 -114 q 418 -183 418 -154 q 397 -237 418 -215 q 349 -258 376 -258 q 306 -238 324 -258 q 288 -189 288 -218 q 309 -136 288 -158 q 358 -114 331 -114 m 426 801 q 328 835 376 801 q 260 932 281 869 l 292 943 q 351 887 311 910 q 435 864 392 864 q 520 887 479 864 q 586 947 561 910 l 615 935 q 534 835 585 868 q 426 801 483 801 z "},"ằ":{"ha":761,"x_min":51,"x_max":761,"o":"m 319 1061 q 293 1113 293 1089 q 304 1140 293 1125 q 328 1149 313 1149 q 376 1113 356 1149 l 465 961 l 438 938 l 319 1061 m 426 801 q 328 835 376 801 q 260 932 281 869 l 292 943 q 351 887 311 910 q 435 864 392 864 q 520 887 479 864 q 586 947 561 910 l 615 935 q 534 835 585 868 q 426 801 483 801 m 457 710 q 643 686 551 710 q 582 131 582 233 q 589 74 582 94 q 621 54 596 54 q 675 88 647 54 q 722 189 703 121 l 761 181 q 731 96 754 142 q 670 17 708 50 q 581 -15 632 -15 q 478 110 478 -15 q 503 296 478 171 l 499 296 q 371 49 440 113 q 228 -15 301 -15 q 99 43 147 -15 q 51 226 51 101 q 97 469 51 360 q 235 644 143 579 q 457 710 326 710 m 414 660 q 278 602 333 660 q 195 451 222 544 q 168 250 168 357 q 258 46 168 46 q 381 142 319 46 q 482 378 442 238 q 522 643 522 519 q 414 660 481 660 z "},"ẳ":{"ha":761,"x_min":51,"x_max":761,"o":"m 439 1167 q 526 1144 494 1167 q 558 1076 558 1121 q 556 1050 558 1069 q 531 1006 550 1022 q 478 972 511 990 q 447 955 457 963 q 435 938 436 947 l 392 938 q 403 959 394 951 q 426 976 411 967 q 463 1006 450 992 q 483 1050 476 1019 q 486 1072 486 1067 q 432 1121 486 1121 q 390 1109 410 1121 q 365 1083 369 1097 q 368 1067 368 1075 q 353 1044 368 1054 q 325 1035 339 1035 q 299 1042 310 1035 q 289 1065 289 1050 q 308 1113 289 1089 q 360 1151 326 1136 q 439 1167 394 1167 m 426 801 q 328 835 376 801 q 260 932 281 869 l 292 943 q 351 887 311 910 q 435 864 392 864 q 520 887 479 864 q 586 947 561 910 l 615 935 q 534 835 585 868 q 426 801 483 801 m 457 710 q 643 686 551 710 q 582 131 582 233 q 589 74 582 94 q 621 54 596 54 q 675 88 647 54 q 722 189 703 121 l 761 181 q 731 96 754 142 q 670 17 708 50 q 581 -15 632 -15 q 478 110 478 -15 q 503 296 478 171 l 499 296 q 371 49 440 113 q 228 -15 301 -15 q 99 43 147 -15 q 51 226 51 101 q 97 469 51 360 q 235 644 143 579 q 457 710 326 710 m 414 660 q 278 602 333 660 q 195 451 222 544 q 168 250 168 357 q 258 46 168 46 q 381 142 319 46 q 482 378 442 238 q 522 643 522 519 q 414 660 481 660 z "},"ẵ":{"ha":761,"x_min":51,"x_max":761,"o":"m 526 978 q 483 986 501 978 q 439 1011 464 994 q 403 1032 417 1025 q 374 1039 390 1039 q 330 1024 353 1039 q 290 986 307 1010 l 261 1001 q 315 1069 278 1042 q 386 1097 351 1097 q 431 1088 411 1097 q 471 1064 450 1079 q 503 1044 489 1050 q 533 1038 517 1038 q 617 1096 579 1038 l 644 1082 q 592 1003 625 1029 q 526 978 560 978 m 426 801 q 328 835 376 801 q 260 932 281 869 l 292 943 q 351 887 311 910 q 435 864 392 864 q 520 887 479 864 q 586 947 561 910 l 615 935 q 534 835 585 868 q 426 801 483 801 m 457 710 q 643 686 551 710 q 582 131 582 233 q 589 74 582 94 q 621 54 596 54 q 675 88 647 54 q 722 189 703 121 l 761 181 q 731 96 754 142 q 670 17 708 50 q 581 -15 632 -15 q 478 110 478 -15 q 503 296 478 171 l 499 296 q 371 49 440 113 q 228 -15 301 -15 q 99 43 147 -15 q 51 226 51 101 q 97 469 51 360 q 235 644 143 579 q 457 710 326 710 m 414 660 q 278 602 333 660 q 195 451 222 544 q 168 250 168 357 q 258 46 168 46 q 381 142 319 46 q 482 378 442 238 q 522 643 522 519 q 414 660 481 660 z "},"â":{"ha":761,"x_min":51,"x_max":761,"o":"m 457 710 q 643 686 551 710 q 582 131 582 233 q 589 74 582 94 q 621 54 596 54 q 675 88 647 54 q 722 189 703 121 l 761 181 q 731 96 754 142 q 670 17 708 50 q 581 -15 632 -15 q 478 110 478 -15 q 503 296 478 171 l 499 296 q 371 49 440 113 q 228 -15 301 -15 q 99 43 147 -15 q 51 226 51 101 q 97 469 51 360 q 235 644 143 579 q 457 710 326 710 m 414 660 q 278 602 333 660 q 195 451 222 544 q 168 250 168 357 q 258 46 168 46 q 381 142 319 46 q 482 378 442 238 q 522 643 522 519 q 414 660 481 660 m 622 818 l 449 975 l 446 975 l 257 824 l 226 860 l 460 1078 l 463 1078 l 657 854 l 622 818 z "},"ấ":{"ha":761,"x_min":51,"x_max":783,"o":"m 611 917 l 701 1068 q 749 1104 722 1104 q 772 1096 764 1104 q 783 1068 783 1081 q 757 1017 783 1044 l 639 893 l 611 917 m 601 782 l 436 867 l 435 867 l 274 783 l 254 818 l 444 956 l 447 956 l 624 817 l 601 782 m 457 710 q 643 686 551 710 q 582 131 582 233 q 589 74 582 94 q 621 54 596 54 q 675 88 647 54 q 722 189 703 121 l 761 181 q 731 96 754 142 q 670 17 708 50 q 581 -15 632 -15 q 478 110 478 -15 q 503 296 478 171 l 499 296 q 371 49 440 113 q 228 -15 301 -15 q 99 43 147 -15 q 51 226 51 101 q 97 469 51 360 q 235 644 143 579 q 457 710 326 710 m 414 660 q 278 602 333 660 q 195 451 222 544 q 168 250 168 357 q 258 46 168 46 q 381 142 319 46 q 482 378 442 238 q 522 643 522 519 q 414 660 481 660 z "},"ậ":{"ha":761,"x_min":51,"x_max":761,"o":"m 457 710 q 643 686 551 710 q 582 131 582 233 q 589 74 582 94 q 621 54 596 54 q 675 88 647 54 q 722 189 703 121 l 761 181 q 731 96 754 142 q 670 17 708 50 q 581 -15 632 -15 q 478 110 478 -15 q 503 296 478 171 l 499 296 q 371 49 440 113 q 228 -15 301 -15 q 99 43 147 -15 q 51 226 51 101 q 97 469 51 360 q 235 644 143 579 q 457 710 326 710 m 414 660 q 278 602 333 660 q 195 451 222 544 q 168 250 168 357 q 258 46 168 46 q 381 142 319 46 q 482 378 442 238 q 522 643 522 519 q 414 660 481 660 m 358 -114 q 401 -134 385 -114 q 418 -183 418 -154 q 397 -237 418 -215 q 349 -258 376 -258 q 306 -238 324 -258 q 288 -189 288 -218 q 309 -136 288 -158 q 358 -114 331 -114 m 601 782 l 436 867 l 435 867 l 274 783 l 254 818 l 444 956 l 447 956 l 624 817 l 601 782 z "},"ầ":{"ha":761,"x_min":51,"x_max":761,"o":"m 479 1058 q 450 1114 450 1088 q 463 1144 450 1132 q 472 1151 465 1149 q 488 1154 479 1154 q 540 1115 517 1154 l 639 949 l 608 922 l 479 1058 m 601 782 l 436 867 l 435 867 l 274 783 l 254 818 l 444 956 l 447 956 l 624 817 l 601 782 m 457 710 q 643 686 551 710 q 582 131 582 233 q 589 74 582 94 q 621 54 596 54 q 675 88 647 54 q 722 189 703 121 l 761 181 q 731 96 754 142 q 670 17 708 50 q 581 -15 632 -15 q 478 110 478 -15 q 503 296 478 171 l 499 296 q 371 49 440 113 q 228 -15 301 -15 q 99 43 147 -15 q 51 226 51 101 q 97 469 51 360 q 235 644 143 579 q 457 710 326 710 m 414 660 q 278 602 333 660 q 195 451 222 544 q 168 250 168 357 q 258 46 168 46 q 381 142 319 46 q 482 378 442 238 q 522 643 522 519 q 414 660 481 660 z "},"ẩ":{"ha":761,"x_min":51,"x_max":761,"o":"m 601 1160 q 689 1137 657 1160 q 721 1069 721 1114 q 718 1043 721 1063 q 693 999 713 1015 q 640 965 674 983 q 609 948 619 956 q 597 931 599 940 l 554 931 q 565 952 557 944 q 589 969 574 960 q 626 999 613 985 q 646 1043 639 1013 q 649 1065 649 1060 q 594 1114 649 1114 q 552 1102 572 1114 q 528 1076 532 1090 q 531 1060 531 1068 q 516 1038 531 1047 q 488 1028 501 1028 q 462 1035 472 1028 q 451 1058 451 1043 q 470 1106 451 1082 q 523 1144 489 1129 q 601 1160 557 1160 m 601 782 l 436 867 l 435 867 l 274 783 l 254 818 l 444 956 l 447 956 l 624 817 l 601 782 m 457 710 q 643 686 551 710 q 582 131 582 233 q 589 74 582 94 q 621 54 596 54 q 675 88 647 54 q 722 189 703 121 l 761 181 q 731 96 754 142 q 670 17 708 50 q 581 -15 632 -15 q 478 110 478 -15 q 503 296 478 171 l 499 296 q 371 49 440 113 q 228 -15 301 -15 q 99 43 147 -15 q 51 226 51 101 q 97 469 51 360 q 235 644 143 579 q 457 710 326 710 m 414 660 q 278 602 333 660 q 195 451 222 544 q 168 250 168 357 q 258 46 168 46 q 381 142 319 46 q 482 378 442 238 q 522 643 522 519 q 414 660 481 660 z "},"ẫ":{"ha":761,"x_min":51,"x_max":761,"o":"m 524 968 q 480 976 499 968 q 436 1001 461 985 q 401 1022 414 1015 q 371 1029 388 1029 q 327 1015 350 1029 q 288 976 304 1000 l 258 992 q 312 1060 275 1032 q 383 1088 349 1088 q 428 1078 408 1088 q 468 1054 447 1069 q 500 1034 486 1040 q 531 1028 514 1028 q 614 1086 576 1028 l 642 1072 q 590 994 622 1019 q 524 968 557 968 m 601 782 l 436 867 l 435 867 l 274 783 l 254 818 l 444 956 l 447 956 l 624 817 l 601 782 m 457 710 q 643 686 551 710 q 582 131 582 233 q 589 74 582 94 q 621 54 596 54 q 675 88 647 54 q 722 189 703 121 l 761 181 q 731 96 754 142 q 670 17 708 50 q 581 -15 632 -15 q 478 110 478 -15 q 503 296 478 171 l 499 296 q 371 49 440 113 q 228 -15 301 -15 q 99 43 147 -15 q 51 226 51 101 q 97 469 51 360 q 235 644 143 579 q 457 710 326 710 m 414 660 q 278 602 333 660 q 195 451 222 544 q 168 250 168 357 q 258 46 168 46 q 381 142 319 46 q 482 378 442 238 q 522 643 522 519 q 414 660 481 660 z "},"ä":{"ha":761,"x_min":51,"x_max":761,"o":"m 457 710 q 643 686 551 710 q 582 131 582 233 q 589 74 582 94 q 621 54 596 54 q 675 88 647 54 q 722 189 703 121 l 761 181 q 731 96 754 142 q 670 17 708 50 q 581 -15 632 -15 q 478 110 478 -15 q 503 296 478 171 l 499 296 q 371 49 440 113 q 228 -15 301 -15 q 99 43 147 -15 q 51 226 51 101 q 97 469 51 360 q 235 644 143 579 q 457 710 326 710 m 414 660 q 278 602 333 660 q 195 451 222 544 q 168 250 168 357 q 258 46 168 46 q 381 142 319 46 q 482 378 442 238 q 522 643 522 519 q 414 660 481 660 m 336 856 q 292 876 310 856 q 275 928 275 897 q 296 984 275 961 q 343 1007 317 1007 q 385 987 368 1007 q 401 938 401 967 q 382 880 401 904 q 336 856 363 856 m 540 856 q 497 876 514 856 q 479 928 479 897 q 500 984 479 961 q 547 1007 521 1007 q 589 987 572 1007 q 606 938 606 967 q 585 880 606 904 q 540 856 565 856 z "},"ạ":{"ha":761,"x_min":51,"x_max":761,"o":"m 457 710 q 643 686 551 710 q 582 131 582 233 q 589 74 582 94 q 621 54 596 54 q 675 88 647 54 q 722 189 703 121 l 761 181 q 731 96 754 142 q 670 17 708 50 q 581 -15 632 -15 q 478 110 478 -15 q 503 296 478 171 l 499 296 q 371 49 440 113 q 228 -15 301 -15 q 99 43 147 -15 q 51 226 51 101 q 97 469 51 360 q 235 644 143 579 q 457 710 326 710 m 414 660 q 278 602 333 660 q 195 451 222 544 q 168 250 168 357 q 258 46 168 46 q 381 142 319 46 q 482 378 442 238 q 522 643 522 519 q 414 660 481 660 m 358 -114 q 401 -134 385 -114 q 418 -183 418 -154 q 397 -237 418 -215 q 349 -258 376 -258 q 306 -238 324 -258 q 288 -189 288 -218 q 309 -136 288 -158 q 358 -114 331 -114 z "},"à":{"ha":761,"x_min":51,"x_max":761,"o":"m 457 710 q 643 686 551 710 q 582 131 582 233 q 589 74 582 94 q 621 54 596 54 q 675 88 647 54 q 722 189 703 121 l 761 181 q 731 96 754 142 q 670 17 708 50 q 581 -15 632 -15 q 478 110 478 -15 q 503 296 478 171 l 499 296 q 371 49 440 113 q 228 -15 301 -15 q 99 43 147 -15 q 51 226 51 101 q 97 469 51 360 q 235 644 143 579 q 457 710 326 710 m 414 660 q 278 602 333 660 q 195 451 222 544 q 168 250 168 357 q 258 46 168 46 q 381 142 319 46 q 482 378 442 238 q 522 643 522 519 q 414 660 481 660 m 340 953 q 308 1015 308 986 q 322 1049 308 1035 q 350 1060 333 1060 q 408 1015 382 1060 l 517 832 l 483 804 l 340 953 z "},"ả":{"ha":761,"x_min":51,"x_max":761,"o":"m 457 710 q 643 686 551 710 q 582 131 582 233 q 589 74 582 94 q 621 54 596 54 q 675 88 647 54 q 722 189 703 121 l 761 181 q 731 96 754 142 q 670 17 708 50 q 581 -15 632 -15 q 478 110 478 -15 q 503 296 478 171 l 499 296 q 371 49 440 113 q 228 -15 301 -15 q 99 43 147 -15 q 51 226 51 101 q 97 469 51 360 q 235 644 143 579 q 457 710 326 710 m 414 660 q 278 602 333 660 q 195 451 222 544 q 168 250 168 357 q 258 46 168 46 q 381 142 319 46 q 482 378 442 238 q 522 643 522 519 q 414 660 481 660 m 438 1039 q 533 1014 499 1039 q 568 940 568 989 q 565 911 568 933 q 538 863 560 881 q 479 825 517 844 q 444 805 454 813 q 432 786 433 797 l 385 786 q 397 810 388 801 q 424 831 406 819 q 464 861 449 844 q 486 911 479 878 q 489 935 489 928 q 429 989 489 989 q 383 976 406 989 q 356 947 361 963 q 360 925 361 936 q 342 903 357 911 q 311 894 326 894 q 272 928 272 894 q 292 980 272 954 q 351 1022 313 1006 q 438 1039 389 1039 z "},"ā":{"ha":761,"x_min":51,"x_max":761,"o":"m 457 710 q 643 686 551 710 q 582 131 582 233 q 589 74 582 94 q 621 54 596 54 q 675 88 647 54 q 722 189 703 121 l 761 181 q 731 96 754 142 q 670 17 708 50 q 581 -15 632 -15 q 478 110 478 -15 q 503 296 478 171 l 499 296 q 371 49 440 113 q 228 -15 301 -15 q 99 43 147 -15 q 51 226 51 101 q 97 469 51 360 q 235 644 143 579 q 457 710 326 710 m 414 660 q 278 602 333 660 q 195 451 222 544 q 168 250 168 357 q 258 46 168 46 q 381 142 319 46 q 482 378 442 238 q 522 643 522 519 q 414 660 481 660 m 256 896 l 260 974 l 628 974 l 624 901 l 256 896 z "},"ą":{"ha":761,"x_min":51,"x_max":761,"o":"m 619 -10 q 498 -103 546 -46 q 450 -224 450 -161 q 472 -294 450 -268 q 533 -321 493 -321 q 639 -276 589 -321 l 658 -300 q 579 -362 625 -336 q 488 -387 533 -387 q 396 -351 429 -387 q 363 -256 363 -315 q 412 -119 363 -183 q 540 -10 461 -56 q 478 110 478 11 q 503 296 478 171 l 499 296 q 371 49 440 113 q 228 -15 301 -15 q 99 43 147 -15 q 51 226 51 101 q 97 469 51 360 q 235 644 143 579 q 457 710 326 710 q 643 686 551 710 q 582 131 582 233 q 589 74 582 94 q 621 54 596 54 q 675 88 647 54 q 722 189 703 121 l 761 181 q 726 86 753 136 q 657 8 699 36 l 657 7 l 653 6 q 619 -10 642 -1 m 258 46 q 381 142 319 46 q 482 378 442 238 q 522 643 522 519 q 414 660 481 660 q 278 602 333 660 q 195 451 222 544 q 168 250 168 357 q 258 46 168 46 z "},"å":{"ha":761,"x_min":51,"x_max":761,"o":"m 457 710 q 643 686 551 710 q 582 131 582 233 q 589 74 582 94 q 621 54 596 54 q 675 88 647 54 q 722 189 703 121 l 761 181 q 731 96 754 142 q 670 17 708 50 q 581 -15 632 -15 q 478 110 478 -15 q 503 296 478 171 l 499 296 q 371 49 440 113 q 228 -15 301 -15 q 99 43 147 -15 q 51 226 51 101 q 97 469 51 360 q 235 644 143 579 q 457 710 326 710 m 414 660 q 278 602 333 660 q 195 451 222 544 q 168 250 168 357 q 258 46 168 46 q 381 142 319 46 q 482 378 442 238 q 522 643 522 519 q 414 660 481 660 m 435 792 q 342 823 381 792 q 304 915 304 854 q 325 988 304 956 q 379 1039 346 1021 q 447 1057 413 1057 q 540 1026 501 1057 q 578 935 578 994 q 557 860 578 893 q 503 810 536 828 q 435 792 469 792 m 440 831 q 487 858 467 831 q 507 925 507 885 q 490 992 507 965 q 446 1018 474 1018 q 396 990 417 1018 q 375 922 375 963 q 392 857 375 883 q 440 831 410 831 z "},"ã":{"ha":761,"x_min":51,"x_max":761,"o":"m 457 710 q 643 686 551 710 q 582 131 582 233 q 589 74 582 94 q 621 54 596 54 q 675 88 647 54 q 722 189 703 121 l 761 181 q 731 96 754 142 q 670 17 708 50 q 581 -15 632 -15 q 478 110 478 -15 q 503 296 478 171 l 499 296 q 371 49 440 113 q 228 -15 301 -15 q 99 43 147 -15 q 51 226 51 101 q 97 469 51 360 q 235 644 143 579 q 457 710 326 710 m 414 660 q 278 602 333 660 q 195 451 222 544 q 168 250 168 357 q 258 46 168 46 q 381 142 319 46 q 482 378 442 238 q 522 643 522 519 q 414 660 481 660 m 529 857 q 476 867 499 857 q 424 897 454 878 q 383 922 401 914 q 344 931 365 931 q 291 914 319 931 q 243 868 263 897 l 208 886 q 274 968 228 935 q 360 1001 319 1001 q 413 991 392 1001 q 464 961 435 981 q 503 937 488 944 q 536 929 518 929 q 639 1000 593 929 l 672 983 q 608 888 647 919 q 529 857 569 857 z "},"æ":{"ha":1038,"x_min":36,"x_max":986,"o":"m 769 710 q 917 660 879 710 q 954 560 954 610 q 919 465 954 513 q 793 376 883 417 q 550 319 703 336 q 724 54 550 54 q 842 101 785 54 q 942 222 899 147 l 986 196 q 853 33 928 82 q 697 -15 778 -15 q 563 15 615 -15 q 472 113 510 44 q 348 17 414 49 q 214 -15 282 -15 q 81 25 126 -15 q 36 135 36 65 q 97 266 36 213 q 253 345 158 319 q 446 367 347 371 q 450 439 446 383 q 453 492 453 475 q 425 617 453 571 q 326 663 397 663 q 234 638 274 663 q 183 572 194 613 q 196 529 196 557 q 180 492 196 508 q 139 475 164 475 q 100 492 115 476 q 85 532 85 507 q 119 615 85 574 q 216 683 154 656 q 354 710 278 710 q 529 583 482 710 l 532 583 q 769 710 615 710 m 749 664 q 615 583 668 664 q 550 369 563 501 q 758 430 674 381 q 843 563 843 479 q 815 641 843 618 q 749 664 786 664 m 442 322 q 235 282 318 318 q 151 151 151 246 q 185 82 151 103 q 260 61 218 61 q 361 88 310 61 q 454 158 413 114 q 442 322 438 238 z "},"b":{"ha":710,"x_min":49,"x_max":646,"o":"m 271 1049 q 240 814 257 958 l 232 726 q 200 414 224 657 l 204 414 q 322 651 253 593 q 472 710 390 710 q 604 638 563 710 q 646 454 646 565 q 551 116 646 247 q 261 -15 456 -15 q 169 -8 219 -15 q 79 14 118 -1 l 100 338 q 140 888 126 728 q 149 961 144 938 l 49 956 l 54 1011 q 174 1021 138 1011 q 231 1049 210 1031 l 271 1049 m 435 644 q 315 551 372 644 q 221 322 257 458 q 182 65 185 185 q 226 42 197 50 q 285 33 256 33 q 472 152 418 35 q 526 428 526 269 q 435 644 526 644 z "},"c":{"ha":657,"x_min":54,"x_max":607,"o":"m 386 710 q 492 688 444 710 q 567 630 540 667 q 594 547 594 593 q 578 497 594 515 q 533 479 561 479 q 491 497 506 479 q 476 535 476 515 q 494 588 476 568 q 458 643 488 625 q 385 661 428 661 q 226 558 275 661 q 176 321 176 456 q 222 117 176 182 q 346 53 267 53 q 464 94 407 53 q 558 228 521 135 l 607 204 q 483 37 557 89 q 322 -15 410 -15 q 125 60 196 -15 q 54 289 54 136 q 91 483 54 386 q 203 645 128 581 q 386 710 278 710 z "},"ć":{"ha":657,"x_min":54,"x_max":607,"o":"m 386 710 q 492 688 444 710 q 567 630 540 667 q 594 547 594 593 q 578 497 594 515 q 533 479 561 479 q 491 497 506 479 q 476 535 476 515 q 494 588 476 568 q 458 643 488 625 q 385 661 428 661 q 226 558 275 661 q 176 321 176 456 q 222 117 176 182 q 346 53 267 53 q 464 94 407 53 q 558 228 521 135 l 607 204 q 483 37 557 89 q 322 -15 410 -15 q 125 60 196 -15 q 54 289 54 136 q 91 483 54 386 q 203 645 128 581 q 386 710 278 710 m 300 829 l 408 1013 q 467 1057 435 1057 q 494 1046 483 1057 q 508 1013 508 1032 q 476 950 508 983 l 333 801 l 300 829 z "},"č":{"ha":657,"x_min":54,"x_max":618,"o":"m 386 710 q 492 688 444 710 q 567 630 540 667 q 594 547 594 593 q 578 497 594 515 q 533 479 561 479 q 491 497 506 479 q 476 535 476 515 q 494 588 476 568 q 458 643 488 625 q 385 661 428 661 q 226 558 275 661 q 176 321 176 456 q 222 117 176 182 q 346 53 267 53 q 464 94 407 53 q 558 228 521 135 l 607 204 q 483 37 557 89 q 322 -15 410 -15 q 125 60 196 -15 q 54 289 54 136 q 91 483 54 386 q 203 645 128 581 q 386 710 278 710 m 189 1026 l 221 1061 l 390 903 l 393 903 q 478 972 429 929 q 550 1033 528 1014 l 588 1067 l 618 1031 l 386 803 l 383 803 l 189 1026 z "},"ç":{"ha":658,"x_min":54,"x_max":607,"o":"m 386 710 q 492 688 444 710 q 567 630 540 667 q 594 547 594 593 q 578 497 594 515 q 533 479 561 479 q 491 497 506 479 q 476 535 476 515 q 494 588 476 568 q 458 643 488 625 q 385 661 428 661 q 226 558 275 661 q 176 321 176 456 q 222 117 176 182 q 346 53 267 53 q 464 94 407 53 q 558 228 521 135 l 607 204 q 485 39 557 92 q 326 -15 413 -14 l 294 -107 q 388 -81 336 -81 q 455 -103 431 -81 q 479 -162 479 -126 q 396 -280 479 -242 q 204 -333 313 -318 l 199 -290 q 326 -249 276 -276 q 376 -185 376 -222 q 363 -152 376 -162 q 329 -142 350 -142 q 265 -162 296 -142 l 218 -139 l 260 -10 q 108 82 163 7 q 54 289 54 157 q 91 483 54 386 q 203 645 128 581 q 386 710 278 710 z "},"ĉ":{"ha":657,"x_min":54,"x_max":619,"o":"m 386 710 q 492 688 444 710 q 567 630 540 667 q 594 547 594 593 q 578 497 594 515 q 533 479 561 479 q 491 497 506 479 q 476 535 476 515 q 494 588 476 568 q 458 643 488 625 q 385 661 428 661 q 226 558 275 661 q 176 321 176 456 q 222 117 176 182 q 346 53 267 53 q 464 94 407 53 q 558 228 521 135 l 607 204 q 483 37 557 89 q 322 -15 410 -15 q 125 60 196 -15 q 54 289 54 136 q 91 483 54 386 q 203 645 128 581 q 386 710 278 710 m 585 815 l 411 972 l 408 972 l 219 821 l 189 857 l 422 1075 l 425 1075 l 619 851 l 585 815 z "},"d":{"ha":771,"x_min":53,"x_max":771,"o":"m 692 1049 q 658 810 669 910 l 633 593 q 603 301 613 408 q 593 128 593 194 q 600 73 593 92 q 631 54 607 54 q 684 88 657 54 q 731 189 711 121 l 771 181 q 741 96 764 142 q 680 17 718 50 q 590 -15 642 -15 q 510 18 536 -15 q 483 110 483 51 q 504 289 483 185 l 500 289 q 381 50 449 115 q 240 -15 314 -15 q 101 59 149 -15 q 53 249 53 133 q 99 490 53 386 q 235 652 144 594 q 457 710 326 710 q 535 704 501 710 l 556 876 q 571 961 563 928 l 469 956 l 475 1011 q 594 1021 558 1011 q 651 1049 631 1031 l 692 1049 m 433 660 q 283 601 342 660 q 199 455 225 543 q 172 272 172 367 q 195 110 172 169 q 269 50 218 50 q 356 99 311 50 q 436 229 400 149 q 493 401 472 310 q 528 646 510 478 q 433 660 490 660 z "},"ð":{"ha":717,"x_min":56,"x_max":635,"o":"m 500 1078 l 431 994 q 585 792 535 926 q 635 483 635 658 q 539 103 635 221 q 292 -15 443 -15 q 174 20 228 -15 q 88 124 119 56 q 56 290 56 193 q 97 504 56 411 q 208 648 139 597 q 358 699 278 699 q 517 631 461 699 q 386 943 499 851 l 296 833 l 249 878 l 336 975 q 165 1007 261 1008 l 165 1053 q 213 1054 182 1054 q 379 1022 304 1054 l 460 1114 l 500 1078 m 367 643 q 278 603 322 643 q 204 486 233 563 q 175 306 175 410 q 215 108 175 179 q 317 38 254 38 q 437 110 390 38 q 503 286 483 182 q 522 489 522 390 l 521 546 q 367 643 471 643 z "},"ď":{"ha":868,"x_min":53,"x_max":914,"o":"m 692 1049 q 658 810 669 910 l 633 593 q 603 301 613 408 q 593 128 593 194 q 600 73 593 92 q 631 54 607 54 q 684 88 657 54 q 731 189 711 121 l 771 181 q 741 96 764 142 q 680 17 718 50 q 590 -15 642 -15 q 510 18 536 -15 q 483 110 483 51 q 504 289 483 185 l 500 289 q 381 50 449 115 q 240 -15 314 -15 q 101 59 149 -15 q 53 249 53 133 q 99 490 53 386 q 235 652 144 594 q 457 710 326 710 q 535 704 501 710 l 556 876 q 571 961 563 928 l 469 956 l 475 1011 q 594 1021 558 1011 q 651 1049 631 1031 l 692 1049 m 433 660 q 283 601 342 660 q 199 455 225 543 q 172 272 172 367 q 195 110 172 169 q 269 50 218 50 q 356 99 311 50 q 436 229 400 149 q 493 401 472 310 q 528 646 510 478 q 433 660 490 660 m 763 797 q 814 982 814 896 q 801 1076 814 1031 l 897 1058 q 914 997 914 1024 q 882 880 914 939 q 799 769 850 821 l 763 797 z "},"đ":{"ha":771,"x_min":53,"x_max":772,"o":"m 631 54 q 684 88 657 54 q 731 189 711 121 l 771 181 q 741 96 764 142 q 680 17 718 50 q 590 -15 642 -15 q 510 18 536 -15 q 483 110 483 51 q 504 289 483 185 l 500 289 q 381 50 449 115 q 240 -15 314 -15 q 101 59 149 -15 q 53 249 53 133 q 99 490 53 386 q 235 652 144 594 q 457 710 326 710 q 535 704 501 710 q 547 806 539 753 l 292 803 l 296 863 l 554 863 l 556 876 q 571 961 563 928 l 469 956 l 475 1011 q 594 1021 558 1011 q 651 1049 631 1031 l 692 1049 q 665 863 674 935 l 772 863 l 768 808 l 658 807 l 633 593 q 603 301 613 408 q 593 128 593 194 q 600 73 593 92 q 631 54 607 54 m 493 401 q 528 646 510 478 q 433 660 490 660 q 283 601 342 660 q 199 455 225 543 q 172 272 172 367 q 195 110 172 169 q 269 50 218 50 q 356 99 311 50 q 436 229 400 149 q 493 401 472 310 z "},"e":{"ha":663,"x_min":54,"x_max":608,"o":"m 392 710 q 531 671 475 710 q 586 550 586 632 q 463 390 586 447 q 176 315 339 333 q 215 119 176 185 q 335 54 254 54 q 458 97 399 54 q 563 222 518 139 l 608 196 q 478 35 550 86 q 311 -15 406 -15 q 119 65 183 -15 q 54 285 54 144 q 92 494 54 397 q 207 650 131 590 q 392 710 283 710 m 372 663 q 235 576 283 663 q 178 365 186 490 q 385 432 299 382 q 471 557 471 482 q 445 633 471 603 q 372 663 419 663 z "},"é":{"ha":663,"x_min":54,"x_max":608,"o":"m 392 710 q 531 671 475 710 q 586 550 586 632 q 463 390 586 447 q 176 315 339 333 q 215 119 176 185 q 335 54 254 54 q 458 97 399 54 q 563 222 518 139 l 608 196 q 478 35 550 86 q 311 -15 406 -15 q 119 65 183 -15 q 54 285 54 144 q 92 494 54 397 q 207 650 131 590 q 392 710 283 710 m 372 663 q 235 576 283 663 q 178 365 186 490 q 385 432 299 382 q 471 557 471 482 q 445 633 471 603 q 372 663 419 663 m 293 832 l 401 1015 q 460 1060 428 1060 q 488 1049 476 1060 q 501 1015 501 1035 q 469 953 501 986 l 326 804 l 293 832 z "},"ě":{"ha":663,"x_min":54,"x_max":611,"o":"m 392 710 q 531 671 475 710 q 586 550 586 632 q 463 390 586 447 q 176 315 339 333 q 215 119 176 185 q 335 54 254 54 q 458 97 399 54 q 563 222 518 139 l 608 196 q 478 35 550 86 q 311 -15 406 -15 q 119 65 183 -15 q 54 285 54 144 q 92 494 54 397 q 207 650 131 590 q 392 710 283 710 m 372 663 q 235 576 283 663 q 178 365 186 490 q 385 432 299 382 q 471 557 471 482 q 445 633 471 603 q 372 663 419 663 m 182 1029 l 214 1064 l 383 906 l 386 906 q 472 974 422 932 q 543 1036 521 1017 l 581 1069 l 611 1033 l 379 806 l 376 806 l 182 1029 z "},"ê":{"ha":663,"x_min":54,"x_max":613,"o":"m 392 710 q 531 671 475 710 q 586 550 586 632 q 463 390 586 447 q 176 315 339 333 q 215 119 176 185 q 335 54 254 54 q 458 97 399 54 q 563 222 518 139 l 608 196 q 478 35 550 86 q 311 -15 406 -15 q 119 65 183 -15 q 54 285 54 144 q 92 494 54 397 q 207 650 131 590 q 392 710 283 710 m 372 663 q 235 576 283 663 q 178 365 186 490 q 385 432 299 382 q 471 557 471 482 q 445 633 471 603 q 372 663 419 663 m 578 818 l 404 975 l 401 975 l 213 824 l 182 860 l 415 1078 l 418 1078 l 613 854 l 578 818 z "},"ế":{"ha":663,"x_min":54,"x_max":739,"o":"m 567 917 l 657 1068 q 704 1104 678 1104 q 728 1096 719 1104 q 739 1068 739 1081 q 713 1017 739 1044 l 594 893 l 567 917 m 557 782 l 392 867 l 390 867 l 229 783 l 210 818 l 400 956 l 403 956 l 579 817 l 557 782 m 392 710 q 531 671 475 710 q 586 550 586 632 q 463 390 586 447 q 176 315 339 333 q 215 119 176 185 q 335 54 254 54 q 458 97 399 54 q 563 222 518 139 l 608 196 q 478 35 550 86 q 311 -15 406 -15 q 119 65 183 -15 q 54 285 54 144 q 92 494 54 397 q 207 650 131 590 q 392 710 283 710 m 372 663 q 235 576 283 663 q 178 365 186 490 q 385 432 299 382 q 471 557 471 482 q 445 633 471 603 q 372 663 419 663 z "},"ệ":{"ha":663,"x_min":54,"x_max":608,"o":"m 392 710 q 531 671 475 710 q 586 550 586 632 q 463 390 586 447 q 176 315 339 333 q 215 119 176 185 q 335 54 254 54 q 458 97 399 54 q 563 222 518 139 l 608 196 q 478 35 550 86 q 311 -15 406 -15 q 119 65 183 -15 q 54 285 54 144 q 92 494 54 397 q 207 650 131 590 q 392 710 283 710 m 372 663 q 235 576 283 663 q 178 365 186 490 q 385 432 299 382 q 471 557 471 482 q 445 633 471 603 q 372 663 419 663 m 346 -114 q 389 -134 372 -114 q 406 -183 406 -154 q 385 -237 406 -215 q 336 -258 364 -258 q 293 -238 311 -258 q 275 -189 275 -218 q 297 -136 275 -158 q 346 -114 318 -114 m 557 782 l 392 867 l 390 867 l 229 783 l 210 818 l 400 956 l 403 956 l 579 817 l 557 782 z "},"ề":{"ha":663,"x_min":54,"x_max":608,"o":"m 435 1058 q 406 1114 406 1088 q 418 1144 406 1132 q 428 1151 421 1149 q 443 1154 435 1154 q 496 1115 472 1154 l 594 949 l 564 922 l 435 1058 m 557 782 l 392 867 l 390 867 l 229 783 l 210 818 l 400 956 l 403 956 l 579 817 l 557 782 m 392 710 q 531 671 475 710 q 586 550 586 632 q 463 390 586 447 q 176 315 339 333 q 215 119 176 185 q 335 54 254 54 q 458 97 399 54 q 563 222 518 139 l 608 196 q 478 35 550 86 q 311 -15 406 -15 q 119 65 183 -15 q 54 285 54 144 q 92 494 54 397 q 207 650 131 590 q 392 710 283 710 m 372 663 q 235 576 283 663 q 178 365 186 490 q 385 432 299 382 q 471 557 471 482 q 445 633 471 603 q 372 663 419 663 z "},"ể":{"ha":663,"x_min":54,"x_max":676,"o":"m 557 1160 q 644 1137 613 1160 q 676 1069 676 1114 q 674 1043 676 1063 q 649 999 668 1015 q 596 965 629 983 q 565 948 575 956 q 553 931 554 940 l 510 931 q 521 952 513 944 q 544 969 529 960 q 581 999 568 985 q 601 1043 594 1013 q 604 1065 604 1060 q 550 1114 604 1114 q 508 1102 528 1114 q 483 1076 488 1090 q 486 1060 486 1068 q 472 1038 486 1047 q 443 1028 457 1028 q 417 1035 428 1028 q 407 1058 407 1043 q 426 1106 407 1082 q 478 1144 444 1129 q 557 1160 513 1160 m 557 782 l 392 867 l 390 867 l 229 783 l 210 818 l 400 956 l 403 956 l 579 817 l 557 782 m 392 710 q 531 671 475 710 q 586 550 586 632 q 463 390 586 447 q 176 315 339 333 q 215 119 176 185 q 335 54 254 54 q 458 97 399 54 q 563 222 518 139 l 608 196 q 478 35 550 86 q 311 -15 406 -15 q 119 65 183 -15 q 54 285 54 144 q 92 494 54 397 q 207 650 131 590 q 392 710 283 710 m 372 663 q 235 576 283 663 q 178 365 186 490 q 385 432 299 382 q 471 557 471 482 q 445 633 471 603 q 372 663 419 663 z "},"ễ":{"ha":663,"x_min":54,"x_max":608,"o":"m 479 968 q 435 976 454 968 q 392 1001 417 985 q 356 1022 369 1015 q 326 1029 343 1029 q 283 1015 306 1029 q 243 976 260 1000 l 214 992 q 267 1060 231 1032 q 339 1088 304 1088 q 383 1078 364 1088 q 424 1054 403 1069 q 456 1034 442 1040 q 486 1028 469 1028 q 569 1086 532 1028 l 597 1072 q 545 994 578 1019 q 479 968 513 968 m 557 782 l 392 867 l 390 867 l 229 783 l 210 818 l 400 956 l 403 956 l 579 817 l 557 782 m 392 710 q 531 671 475 710 q 586 550 586 632 q 463 390 586 447 q 176 315 339 333 q 215 119 176 185 q 335 54 254 54 q 458 97 399 54 q 563 222 518 139 l 608 196 q 478 35 550 86 q 311 -15 406 -15 q 119 65 183 -15 q 54 285 54 144 q 92 494 54 397 q 207 650 131 590 q 392 710 283 710 m 372 663 q 235 576 283 663 q 178 365 186 490 q 385 432 299 382 q 471 557 471 482 q 445 633 471 603 q 372 663 419 663 z "},"ë":{"ha":663,"x_min":54,"x_max":608,"o":"m 392 710 q 531 671 475 710 q 586 550 586 632 q 463 390 586 447 q 176 315 339 333 q 215 119 176 185 q 335 54 254 54 q 458 97 399 54 q 563 222 518 139 l 608 196 q 478 35 550 86 q 311 -15 406 -15 q 119 65 183 -15 q 54 285 54 144 q 92 494 54 397 q 207 650 131 590 q 392 710 283 710 m 372 663 q 235 576 283 663 q 178 365 186 490 q 385 432 299 382 q 471 557 471 482 q 445 633 471 603 q 372 663 419 663 m 292 856 q 248 876 265 856 q 231 928 231 897 q 251 984 231 961 q 299 1007 272 1007 q 340 987 324 1007 q 357 938 357 967 q 338 880 357 904 q 292 856 318 856 m 496 856 q 452 876 469 856 q 435 928 435 897 q 456 984 435 961 q 503 1007 476 1007 q 544 987 528 1007 q 561 938 561 967 q 541 880 561 904 q 496 856 521 856 z "},"ė":{"ha":663,"x_min":54,"x_max":608,"o":"m 392 710 q 531 671 475 710 q 586 550 586 632 q 463 390 586 447 q 176 315 339 333 q 215 119 176 185 q 335 54 254 54 q 458 97 399 54 q 563 222 518 139 l 608 196 q 478 35 550 86 q 311 -15 406 -15 q 119 65 183 -15 q 54 285 54 144 q 92 494 54 397 q 207 650 131 590 q 392 710 283 710 m 372 663 q 235 576 283 663 q 178 365 186 490 q 385 432 299 382 q 471 557 471 482 q 445 633 471 603 q 372 663 419 663 m 403 1007 q 451 985 432 1007 q 469 932 469 964 q 447 871 469 896 q 393 846 424 846 q 344 868 364 846 q 324 924 324 890 q 347 983 324 958 q 403 1007 371 1007 z "},"ẹ":{"ha":663,"x_min":54,"x_max":608,"o":"m 392 710 q 531 671 475 710 q 586 550 586 632 q 463 390 586 447 q 176 315 339 333 q 215 119 176 185 q 335 54 254 54 q 458 97 399 54 q 563 222 518 139 l 608 196 q 478 35 550 86 q 311 -15 406 -15 q 119 65 183 -15 q 54 285 54 144 q 92 494 54 397 q 207 650 131 590 q 392 710 283 710 m 372 663 q 235 576 283 663 q 178 365 186 490 q 385 432 299 382 q 471 557 471 482 q 445 633 471 603 q 372 663 419 663 m 346 -114 q 389 -134 372 -114 q 406 -183 406 -154 q 385 -237 406 -215 q 336 -258 364 -258 q 293 -238 311 -258 q 275 -189 275 -218 q 297 -136 275 -158 q 346 -114 318 -114 z "},"è":{"ha":663,"x_min":54,"x_max":608,"o":"m 392 710 q 531 671 475 710 q 586 550 586 632 q 463 390 586 447 q 176 315 339 333 q 215 119 176 185 q 335 54 254 54 q 458 97 399 54 q 563 222 518 139 l 608 196 q 478 35 550 86 q 311 -15 406 -15 q 119 65 183 -15 q 54 285 54 144 q 92 494 54 397 q 207 650 131 590 q 392 710 283 710 m 372 663 q 235 576 283 663 q 178 365 186 490 q 385 432 299 382 q 471 557 471 482 q 445 633 471 603 q 372 663 419 663 m 296 953 q 264 1015 264 986 q 278 1049 264 1035 q 306 1060 289 1060 q 364 1015 338 1060 l 472 832 l 439 804 l 296 953 z "},"ẻ":{"ha":663,"x_min":54,"x_max":608,"o":"m 392 710 q 531 671 475 710 q 586 550 586 632 q 463 390 586 447 q 176 315 339 333 q 215 119 176 185 q 335 54 254 54 q 458 97 399 54 q 563 222 518 139 l 608 196 q 478 35 550 86 q 311 -15 406 -15 q 119 65 183 -15 q 54 285 54 144 q 92 494 54 397 q 207 650 131 590 q 392 710 283 710 m 372 663 q 235 576 283 663 q 178 365 186 490 q 385 432 299 382 q 471 557 471 482 q 445 633 471 603 q 372 663 419 663 m 393 1039 q 489 1014 454 1039 q 524 940 524 989 q 521 911 524 933 q 494 863 515 881 q 435 825 472 844 q 399 805 410 813 q 388 786 389 797 l 340 786 q 352 810 343 801 q 379 831 361 819 q 419 861 404 844 q 442 911 435 878 q 444 935 444 928 q 385 989 444 989 q 339 976 361 989 q 311 947 317 963 q 315 925 317 936 q 297 903 313 911 q 267 894 282 894 q 228 928 228 894 q 248 980 228 954 q 306 1022 268 1006 q 393 1039 344 1039 z "},"ē":{"ha":663,"x_min":54,"x_max":608,"o":"m 392 710 q 531 671 475 710 q 586 550 586 632 q 463 390 586 447 q 176 315 339 333 q 215 119 176 185 q 335 54 254 54 q 458 97 399 54 q 563 222 518 139 l 608 196 q 478 35 550 86 q 311 -15 406 -15 q 119 65 183 -15 q 54 285 54 144 q 92 494 54 397 q 207 650 131 590 q 392 710 283 710 m 372 663 q 235 576 283 663 q 178 365 186 490 q 385 432 299 382 q 471 557 471 482 q 445 633 471 603 q 372 663 419 663 m 211 896 l 215 974 l 583 974 l 579 901 l 211 896 z "},"ę":{"ha":663,"x_min":54,"x_max":608,"o":"m 428 7 q 281 -90 342 -26 q 221 -224 221 -153 q 242 -294 221 -268 q 304 -321 264 -321 q 410 -276 360 -321 l 429 -300 q 350 -362 396 -336 q 258 -387 304 -387 q 167 -351 200 -387 q 133 -256 133 -315 q 180 -123 133 -185 q 301 -15 226 -61 q 116 67 178 -12 q 54 285 54 147 q 92 494 54 397 q 207 650 131 590 q 392 710 283 710 q 531 671 475 710 q 586 550 586 632 q 463 390 586 447 q 176 315 339 333 q 215 119 176 185 q 335 54 254 54 q 458 97 399 54 q 563 222 518 139 l 608 196 q 428 7 532 51 m 372 663 q 235 576 283 663 q 178 365 186 490 q 385 432 299 382 q 471 557 471 482 q 445 633 471 603 q 372 663 419 663 z "},"ẽ":{"ha":663,"x_min":54,"x_max":629,"o":"m 392 710 q 531 671 475 710 q 586 550 586 632 q 463 390 586 447 q 176 315 339 333 q 215 119 176 185 q 335 54 254 54 q 458 97 399 54 q 563 222 518 139 l 608 196 q 478 35 550 86 q 311 -15 406 -15 q 119 65 183 -15 q 54 285 54 144 q 92 494 54 397 q 207 650 131 590 q 392 710 283 710 m 372 663 q 235 576 283 663 q 178 365 186 490 q 385 432 299 382 q 471 557 471 482 q 445 633 471 603 q 372 663 419 663 m 486 857 q 433 867 456 857 q 381 897 411 878 q 340 922 358 914 q 301 931 322 931 q 248 914 276 931 q 200 868 219 897 l 165 886 q 231 968 185 935 q 317 1001 276 1001 q 370 991 349 1001 q 421 961 392 981 q 460 937 444 944 q 493 929 475 929 q 596 1000 550 929 l 629 983 q 565 888 604 919 q 486 857 526 857 z "},"f":{"ha":451,"x_min":-174,"x_max":546,"o":"m 444 1056 q 519 1037 493 1056 q 546 983 546 1018 q 533 946 546 964 q 493 928 519 928 q 449 947 465 928 q 435 997 433 967 q 403 1003 426 1003 q 309 925 338 1003 q 268 694 281 847 l 465 694 l 461 640 l 264 638 l 260 560 q 244 328 250 397 l 236 229 q 197 -94 219 25 q 114 -294 175 -212 q -65 -376 53 -376 q -146 -358 -118 -376 q -174 -304 -174 -340 q -160 -266 -174 -285 q -119 -247 -146 -247 q -78 -265 -93 -247 q -62 -311 -62 -282 q -22 -322 -47 -322 q 54 -267 28 -322 q 92 -125 81 -212 q 115 135 103 -37 q 131 340 124 274 l 139 440 q 156 636 146 544 l 33 635 l 40 694 l 163 694 q 250 961 188 867 q 444 1056 313 1056 z "},"g":{"ha":719,"x_min":19,"x_max":635,"o":"m 458 710 q 555 703 507 710 q 635 686 603 697 q 599 231 628 572 l 581 19 q 472 -277 564 -178 q 225 -376 381 -376 q 138 -365 185 -376 q 56 -328 90 -354 q 19 -260 21 -301 q 38 -210 19 -231 q 85 -189 57 -189 q 129 -206 111 -189 q 147 -253 147 -222 q 139 -289 147 -271 q 179 -318 151 -308 q 235 -328 207 -328 q 385 -260 333 -328 q 456 -99 438 -193 q 486 146 474 -4 q 501 296 494 249 l 497 296 q 381 49 444 114 q 240 -15 317 -15 q 100 58 147 -15 q 53 254 53 132 q 97 481 53 378 q 233 647 142 585 q 458 710 325 710 m 436 660 q 281 600 342 660 q 195 453 221 540 q 169 278 169 367 q 193 112 169 174 q 269 50 217 50 q 388 145 331 50 q 483 380 446 240 q 528 642 521 519 q 436 660 492 660 z "},"ğ":{"ha":719,"x_min":19,"x_max":635,"o":"m 458 710 q 555 703 507 710 q 635 686 603 697 q 599 231 628 572 l 581 19 q 472 -277 564 -178 q 225 -376 381 -376 q 138 -365 185 -376 q 56 -328 90 -354 q 19 -260 21 -301 q 38 -210 19 -231 q 85 -189 57 -189 q 129 -206 111 -189 q 147 -253 147 -222 q 139 -289 147 -271 q 179 -318 151 -308 q 235 -328 207 -328 q 385 -260 333 -328 q 456 -99 438 -193 q 486 146 474 -4 q 501 296 494 249 l 497 296 q 381 49 444 114 q 240 -15 317 -15 q 100 58 147 -15 q 53 254 53 132 q 97 481 53 378 q 233 647 142 585 q 458 710 325 710 m 436 660 q 281 600 342 660 q 195 453 221 540 q 169 278 169 367 q 193 112 169 174 q 269 50 217 50 q 388 145 331 50 q 483 380 446 240 q 528 642 521 519 q 436 660 492 660 m 408 844 q 305 885 356 844 q 233 1003 254 926 l 268 1015 q 330 947 288 975 q 418 919 372 919 q 508 947 465 919 q 576 1021 550 975 l 608 1006 q 522 885 575 925 q 408 844 468 844 z "},"ĝ":{"ha":719,"x_min":19,"x_max":636,"o":"m 458 710 q 555 703 507 710 q 635 686 603 697 q 599 231 628 572 l 581 19 q 472 -277 564 -178 q 225 -376 381 -376 q 138 -365 185 -376 q 56 -328 90 -354 q 19 -260 21 -301 q 38 -210 19 -231 q 85 -189 57 -189 q 129 -206 111 -189 q 147 -253 147 -222 q 139 -289 147 -271 q 179 -318 151 -308 q 235 -328 207 -328 q 385 -260 333 -328 q 456 -99 438 -193 q 486 146 474 -4 q 501 296 494 249 l 497 296 q 381 49 444 114 q 240 -15 317 -15 q 100 58 147 -15 q 53 254 53 132 q 97 481 53 378 q 233 647 142 585 q 458 710 325 710 m 436 660 q 281 600 342 660 q 195 453 221 540 q 169 278 169 367 q 193 112 169 174 q 269 50 217 50 q 388 145 331 50 q 483 380 446 240 q 528 642 521 519 q 436 660 492 660 m 601 818 l 428 975 l 425 975 l 236 824 l 206 860 l 439 1078 l 442 1078 l 636 854 l 601 818 z "},"ģ":{"ha":719,"x_min":19,"x_max":635,"o":"m 503 1044 q 456 953 469 990 q 443 879 443 915 q 449 811 443 861 l 350 789 q 339 846 339 818 q 374 958 339 900 q 468 1071 408 1017 l 503 1044 m 458 710 q 555 703 507 710 q 635 686 603 697 q 599 231 628 572 l 581 19 q 472 -277 564 -178 q 225 -376 381 -376 q 138 -365 185 -376 q 56 -328 90 -354 q 19 -260 21 -301 q 38 -210 19 -231 q 85 -189 57 -189 q 129 -206 111 -189 q 147 -253 147 -222 q 139 -289 147 -271 q 179 -318 151 -308 q 235 -328 207 -328 q 385 -260 333 -328 q 456 -99 438 -193 q 486 146 474 -4 q 501 296 494 249 l 497 296 q 381 49 444 114 q 240 -15 317 -15 q 100 58 147 -15 q 53 254 53 132 q 97 481 53 378 q 233 647 142 585 q 458 710 325 710 m 436 660 q 281 600 342 660 q 195 453 221 540 q 169 278 169 367 q 193 112 169 174 q 269 50 217 50 q 388 145 331 50 q 483 380 446 240 q 528 642 521 519 q 436 660 492 660 z "},"h":{"ha":794,"x_min":68,"x_max":776,"o":"m 279 979 q 253 813 257 846 q 230 608 243 742 q 211 400 217 474 l 215 400 q 347 643 281 576 q 489 710 413 710 q 604 659 567 710 q 642 529 642 608 q 618 263 642 436 q 603 118 603 153 q 610 71 603 88 q 640 54 618 54 q 694 87 667 54 q 742 189 722 119 l 776 179 q 719 49 764 113 q 600 -15 674 -15 q 513 17 538 -15 q 488 118 488 50 q 506 303 488 171 q 518 406 508 321 q 528 560 528 492 q 513 618 528 592 q 461 644 497 644 q 339 556 401 644 q 236 333 276 467 q 196 74 196 199 q 199 0 196 47 l 85 0 q 83 36 83 13 q 107 437 83 139 q 153 888 131 735 q 165 961 156 904 l 68 956 l 74 1011 q 193 1021 157 1011 q 250 1049 229 1031 l 290 1049 l 279 979 z "},"ĥ":{"ha":794,"x_min":24,"x_max":776,"o":"m 279 979 q 253 813 257 846 q 230 608 243 742 q 211 400 217 474 l 215 400 q 347 643 281 576 q 489 710 413 710 q 604 659 567 710 q 642 529 642 608 q 618 263 642 436 q 603 118 603 153 q 610 71 603 88 q 640 54 618 54 q 694 87 667 54 q 742 189 722 119 l 776 179 q 719 49 764 113 q 600 -15 674 -15 q 513 17 538 -15 q 488 118 488 50 q 506 303 488 171 q 518 406 508 321 q 528 560 528 492 q 513 618 528 592 q 461 644 497 644 q 339 556 401 644 q 236 333 276 467 q 196 74 196 199 q 199 0 196 47 l 85 0 q 83 36 83 13 q 107 437 83 139 q 153 888 131 735 q 165 961 156 904 l 68 956 l 74 1011 q 193 1021 157 1011 q 250 1049 229 1031 l 290 1049 l 279 979 m 419 1075 l 246 1232 l 243 1232 l 54 1081 l 24 1117 l 257 1335 l 260 1335 l 454 1111 l 419 1075 z "},"i":{"ha":450,"x_min":10,"x_max":432,"o":"m 264 1010 q 317 988 296 1010 q 338 931 338 965 q 315 874 338 896 q 263 853 293 853 q 210 874 232 853 q 189 931 189 896 q 211 988 189 965 q 264 1010 233 1010 m 185 710 q 272 671 242 710 q 301 565 301 632 q 278 375 301 511 q 256 228 264 288 q 249 113 249 169 q 292 54 249 54 q 346 88 318 54 q 393 189 374 121 l 432 181 q 372 45 415 106 q 260 -15 329 -15 q 135 115 135 -15 q 142 221 135 169 q 163 349 149 272 q 183 480 176 433 q 189 578 189 526 q 180 621 189 601 q 150 640 171 640 q 96 607 124 640 q 49 506 68 574 l 10 514 q 67 646 22 582 q 185 710 111 710 z "},"ı":{"ha":450,"x_min":10,"x_max":432,"o":"m 185 710 q 272 671 242 710 q 301 565 301 632 q 278 375 301 511 q 256 228 264 288 q 249 113 249 169 q 292 54 249 54 q 346 88 318 54 q 393 189 374 121 l 432 181 q 372 45 415 106 q 260 -15 329 -15 q 135 115 135 -15 q 142 221 135 169 q 163 349 149 272 q 183 480 176 433 q 189 578 189 526 q 180 621 189 601 q 150 640 171 640 q 96 607 124 640 q 49 506 68 574 l 10 514 q 67 646 22 582 q 185 710 111 710 z "},"í":{"ha":450,"x_min":10,"x_max":432,"o":"m 185 710 q 272 671 242 710 q 301 565 301 632 q 278 375 301 511 q 256 228 264 288 q 249 113 249 169 q 292 54 249 54 q 346 88 318 54 q 393 189 374 121 l 432 181 q 372 45 415 106 q 260 -15 329 -15 q 135 115 135 -15 q 142 221 135 169 q 163 349 149 272 q 183 480 176 433 q 189 578 189 526 q 180 621 189 601 q 150 640 171 640 q 96 607 124 640 q 49 506 68 574 l 10 514 q 67 646 22 582 q 185 710 111 710 m 151 832 l 260 1015 q 318 1060 286 1060 q 346 1049 335 1060 q 360 1015 360 1035 q 328 953 360 986 l 185 804 l 151 832 z "},"î":{"ha":450,"x_min":10,"x_max":432,"o":"m 238 1078 l 413 854 l 376 818 l 224 975 l 221 975 l 46 824 l 15 860 l 235 1078 l 238 1078 m 185 710 q 272 671 242 710 q 301 565 301 632 q 278 375 301 511 q 256 228 264 288 q 249 113 249 169 q 292 54 249 54 q 346 88 318 54 q 393 189 374 121 l 432 181 q 372 45 415 106 q 260 -15 329 -15 q 135 115 135 -15 q 142 221 135 169 q 163 349 149 272 q 183 480 176 433 q 189 578 189 526 q 180 621 189 601 q 150 640 171 640 q 96 607 124 640 q 49 506 68 574 l 10 514 q 67 646 22 582 q 185 710 111 710 z "},"ï":{"ha":450,"x_min":10,"x_max":432,"o":"m 185 710 q 272 671 242 710 q 301 565 301 632 q 278 375 301 511 q 256 228 264 288 q 249 113 249 169 q 292 54 249 54 q 346 88 318 54 q 393 189 374 121 l 432 181 q 372 45 415 106 q 260 -15 329 -15 q 135 115 135 -15 q 142 221 135 169 q 163 349 149 272 q 183 480 176 433 q 189 578 189 526 q 180 621 189 601 q 150 640 171 640 q 96 607 124 640 q 49 506 68 574 l 10 514 q 67 646 22 582 q 185 710 111 710 m 150 856 q 106 876 124 856 q 89 928 89 897 q 110 984 89 961 q 157 1007 131 1007 q 199 987 182 1007 q 215 938 215 967 q 196 880 215 904 q 150 856 176 856 m 354 856 q 310 876 328 856 q 293 928 293 897 q 314 984 293 961 q 361 1007 335 1007 q 403 987 386 1007 q 419 938 419 967 q 399 880 419 904 q 354 856 379 856 z "},"ị":{"ha":450,"x_min":10,"x_max":432,"o":"m 264 1010 q 317 988 296 1010 q 338 931 338 965 q 315 874 338 896 q 263 853 293 853 q 210 874 232 853 q 189 931 189 896 q 211 988 189 965 q 264 1010 233 1010 m 185 710 q 272 671 242 710 q 301 565 301 632 q 278 375 301 511 q 256 228 264 288 q 249 113 249 169 q 292 54 249 54 q 346 88 318 54 q 393 189 374 121 l 432 181 q 372 45 415 106 q 260 -15 329 -15 q 135 115 135 -15 q 142 221 135 169 q 163 349 149 272 q 183 480 176 433 q 189 578 189 526 q 180 621 189 601 q 150 640 171 640 q 96 607 124 640 q 49 506 68 574 l 10 514 q 67 646 22 582 q 185 710 111 710 m 203 -114 q 246 -134 229 -114 q 263 -183 263 -154 q 242 -237 263 -215 q 193 -258 221 -258 q 150 -238 168 -258 q 132 -189 132 -218 q 153 -136 132 -158 q 203 -114 175 -114 z "},"ì":{"ha":450,"x_min":10,"x_max":432,"o":"m 185 710 q 272 671 242 710 q 301 565 301 632 q 278 375 301 511 q 256 228 264 288 q 249 113 249 169 q 292 54 249 54 q 346 88 318 54 q 393 189 374 121 l 432 181 q 372 45 415 106 q 260 -15 329 -15 q 135 115 135 -15 q 142 221 135 169 q 163 349 149 272 q 183 480 176 433 q 189 578 189 526 q 180 621 189 601 q 150 640 171 640 q 96 607 124 640 q 49 506 68 574 l 10 514 q 67 646 22 582 q 185 710 111 710 m 154 953 q 122 1015 122 986 q 136 1049 122 1035 q 164 1060 147 1060 q 222 1015 196 1060 l 331 832 l 297 804 l 154 953 z "},"ỉ":{"ha":450,"x_min":10,"x_max":432,"o":"m 185 710 q 272 671 242 710 q 301 565 301 632 q 278 375 301 511 q 256 228 264 288 q 249 113 249 169 q 292 54 249 54 q 346 88 318 54 q 393 189 374 121 l 432 181 q 372 45 415 106 q 260 -15 329 -15 q 135 115 135 -15 q 142 221 135 169 q 163 349 149 272 q 183 480 176 433 q 189 578 189 526 q 180 621 189 601 q 150 640 171 640 q 96 607 124 640 q 49 506 68 574 l 10 514 q 67 646 22 582 q 185 710 111 710 m 251 1039 q 347 1014 313 1039 q 382 940 382 989 q 379 911 382 933 q 352 863 374 881 q 293 825 331 844 q 258 805 268 813 q 246 786 247 797 l 199 786 q 210 810 201 801 q 238 831 219 819 q 278 861 263 844 q 300 911 293 878 q 303 935 303 928 q 243 989 303 989 q 197 976 219 989 q 169 947 175 963 q 174 925 175 936 q 156 903 171 911 q 125 894 140 894 q 86 928 86 894 q 106 980 86 954 q 165 1022 126 1006 q 251 1039 203 1039 z "},"ī":{"ha":450,"x_min":10,"x_max":442,"o":"m 185 710 q 272 671 242 710 q 301 565 301 632 q 278 375 301 511 q 256 228 264 288 q 249 113 249 169 q 292 54 249 54 q 346 88 318 54 q 393 189 374 121 l 432 181 q 372 45 415 106 q 260 -15 329 -15 q 135 115 135 -15 q 142 221 135 169 q 163 349 149 272 q 183 480 176 433 q 189 578 189 526 q 180 621 189 601 q 150 640 171 640 q 96 607 124 640 q 49 506 68 574 l 10 514 q 67 646 22 582 q 185 710 111 710 m 69 896 l 74 974 l 442 974 l 438 901 l 69 896 z "},"į":{"ha":450,"x_min":10,"x_max":432,"o":"m 251 846 q 202 868 222 846 q 182 924 182 890 q 206 983 182 958 q 261 1007 229 1007 q 309 985 290 1007 q 328 932 328 964 q 305 871 328 896 q 251 846 282 846 m 389 7 q 242 -90 303 -26 q 182 -224 182 -153 q 203 -294 182 -268 q 265 -321 225 -321 q 371 -276 321 -321 l 390 -300 q 311 -362 357 -336 q 219 -387 265 -387 q 128 -351 161 -387 q 94 -256 94 -315 q 141 -123 94 -185 q 263 -15 188 -61 l 260 -15 q 135 115 135 -15 q 142 221 135 169 q 163 349 149 272 q 183 480 176 433 q 189 578 189 526 q 180 621 189 601 q 150 640 171 640 q 96 607 124 640 q 49 506 68 574 l 10 514 q 67 646 22 582 q 185 710 111 710 q 272 671 242 710 q 301 565 301 632 q 278 375 301 511 q 256 228 264 288 q 249 113 249 169 q 292 54 249 54 q 346 88 318 54 q 393 189 374 121 l 432 181 q 406 101 424 142 q 363 33 389 61 l 392 43 l 389 7 z "},"ĩ":{"ha":450,"x_min":10,"x_max":488,"o":"m 185 710 q 272 671 242 710 q 301 565 301 632 q 278 375 301 511 q 256 228 264 288 q 249 113 249 169 q 292 54 249 54 q 346 88 318 54 q 393 189 374 121 l 432 181 q 372 45 415 106 q 260 -15 329 -15 q 135 115 135 -15 q 142 221 135 169 q 163 349 149 272 q 183 480 176 433 q 189 578 189 526 q 180 621 189 601 q 150 640 171 640 q 96 607 124 640 q 49 506 68 574 l 10 514 q 67 646 22 582 q 185 710 111 710 m 344 857 q 292 867 314 857 q 239 897 269 878 q 199 922 217 914 q 160 931 181 931 q 106 914 135 931 q 58 868 78 897 l 24 886 q 89 968 43 935 q 175 1001 135 1001 q 228 991 207 1001 q 279 961 250 981 q 318 937 303 944 q 351 929 333 929 q 454 1000 408 929 l 488 983 q 424 888 463 919 q 344 857 385 857 z "},"j":{"ha":413,"x_min":-144,"x_max":335,"o":"m 260 1011 q 313 989 292 1011 q 335 932 335 967 q 313 876 335 897 q 260 854 290 854 q 208 875 229 854 q 186 931 186 896 q 208 988 186 965 q 260 1011 229 1011 m 200 710 q 285 674 256 710 q 315 568 315 638 q 301 267 315 410 q 254 -58 282 72 q 156 -282 226 -187 q -39 -376 86 -376 q -112 -358 -81 -376 q -144 -301 -144 -339 q -128 -256 -144 -275 q -85 -236 -112 -236 q -39 -256 -56 -236 q -26 -312 -22 -276 q 1 -319 -15 -319 q 114 -196 72 -319 q 169 42 156 -72 q 193 278 183 157 q 203 507 203 410 q 201 579 203 557 q 190 620 200 603 q 160 638 181 638 q 109 603 136 638 q 65 500 82 569 l 26 508 q 52 595 32 549 q 110 676 72 642 q 200 710 147 710 z "},"ĵ":{"ha":407,"x_min":-144,"x_max":413,"o":"m 238 1078 l 413 854 l 376 818 l 224 975 l 221 975 l 46 824 l 15 860 l 235 1078 l 238 1078 m 200 710 q 285 674 256 710 q 315 568 315 638 q 301 267 315 410 q 254 -58 282 72 q 156 -282 226 -187 q -39 -376 86 -376 q -112 -358 -81 -376 q -144 -301 -144 -339 q -128 -256 -144 -275 q -85 -236 -112 -236 q -39 -256 -56 -236 q -26 -312 -22 -276 q 1 -319 -15 -319 q 114 -196 72 -319 q 169 42 156 -72 q 193 278 183 157 q 203 507 203 410 q 201 579 203 557 q 190 620 200 603 q 160 638 181 638 q 109 603 136 638 q 65 500 82 569 l 26 508 q 52 595 32 549 q 110 676 72 642 q 200 710 147 710 z "},"k":{"ha":722,"x_min":68,"x_max":683,"o":"m 288 1049 q 257 849 276 993 l 253 813 q 213 400 228 619 l 217 400 q 342 642 275 574 q 489 710 408 710 q 590 666 556 710 q 624 560 624 622 q 594 456 624 508 q 503 363 564 404 q 356 307 442 322 l 356 306 q 428 283 403 304 q 478 208 454 261 q 533 97 513 131 q 581 63 553 63 q 618 83 603 63 q 644 149 633 103 l 683 142 q 631 30 669 75 q 533 -15 593 -15 q 447 26 482 -15 q 374 167 411 68 q 324 269 346 242 q 265 299 303 297 l 229 297 q 196 74 196 175 q 199 0 196 47 l 85 0 q 83 36 83 13 q 106 438 83 142 q 153 888 129 735 q 165 961 156 904 l 68 956 l 74 1011 q 191 1021 156 1011 q 247 1049 226 1031 l 288 1049 m 451 644 q 338 556 396 644 q 240 338 279 467 l 242 338 q 442 394 372 338 q 511 557 511 450 q 499 618 511 592 q 451 644 486 644 z "},"ķ":{"ha":722,"x_min":68,"x_max":683,"o":"m 288 1049 q 257 849 276 993 l 253 813 q 213 400 228 619 l 217 400 q 342 642 275 574 q 489 710 408 710 q 590 666 556 710 q 624 560 624 622 q 594 456 624 508 q 503 363 564 404 q 356 307 442 322 l 356 306 q 428 283 403 304 q 478 208 454 261 q 533 97 513 131 q 581 63 553 63 q 618 83 603 63 q 644 149 633 103 l 683 142 q 631 30 669 75 q 533 -15 593 -15 q 447 26 482 -15 q 374 167 411 68 q 324 269 346 242 q 265 299 303 297 l 229 297 q 196 74 196 175 q 199 0 196 47 l 85 0 q 83 36 83 13 q 106 438 83 142 q 153 888 129 735 q 165 961 156 904 l 68 956 l 74 1011 q 191 1021 156 1011 q 247 1049 226 1031 l 288 1049 m 451 644 q 338 556 396 644 q 240 338 279 467 l 242 338 q 442 394 372 338 q 511 557 511 450 q 499 618 511 592 q 451 644 486 644 m 219 -333 q 266 -242 253 -279 q 279 -168 279 -204 q 274 -100 279 -150 l 372 -78 q 383 -135 383 -107 q 349 -247 383 -189 q 254 -360 314 -306 l 219 -333 z "},"l":{"ha":393,"x_min":75,"x_max":376,"o":"m 282 950 q 261 813 265 853 q 219 435 239 650 q 199 126 199 221 q 206 73 199 92 q 236 54 213 54 q 290 87 263 54 q 338 189 318 119 l 376 179 q 347 95 369 140 q 287 17 325 50 q 197 -15 249 -15 q 113 15 139 -15 q 86 108 86 46 q 110 446 86 200 q 161 886 135 692 l 174 961 l 75 956 l 82 1011 q 200 1021 164 1011 q 258 1049 236 1031 l 297 1049 l 282 950 z "},"ĺ":{"ha":393,"x_min":75,"x_max":376,"o":"m 282 950 q 261 813 265 853 q 219 435 239 650 q 199 126 199 221 q 206 73 199 92 q 236 54 213 54 q 290 87 263 54 q 338 189 318 119 l 376 179 q 347 95 369 140 q 287 17 325 50 q 197 -15 249 -15 q 113 15 139 -15 q 86 108 86 46 q 110 446 86 200 q 161 886 135 692 l 174 961 l 75 956 l 82 1011 q 200 1021 164 1011 q 258 1049 236 1031 l 297 1049 l 282 950 m 124 1100 l 232 1283 q 290 1328 258 1328 q 318 1317 307 1328 q 332 1283 332 1303 q 300 1221 332 1254 l 157 1072 l 124 1100 z "},"ľ":{"ha":479,"x_min":75,"x_max":525,"o":"m 282 950 q 261 813 265 853 q 219 435 239 650 q 199 126 199 221 q 206 73 199 92 q 236 54 213 54 q 290 87 263 54 q 338 189 318 119 l 376 179 q 347 95 369 140 q 287 17 325 50 q 197 -15 249 -15 q 113 15 139 -15 q 86 108 86 46 q 110 446 86 200 q 161 886 135 692 l 174 961 l 75 956 l 82 1011 q 200 1021 164 1011 q 258 1049 236 1031 l 297 1049 l 282 950 m 374 797 q 425 982 425 896 q 413 1076 425 1031 l 508 1058 q 525 997 525 1024 q 493 880 525 939 q 410 769 461 821 l 374 797 z "},"ļ":{"ha":393,"x_min":75,"x_max":376,"o":"m 282 950 q 261 813 265 853 q 219 435 239 650 q 199 126 199 221 q 206 73 199 92 q 236 54 213 54 q 290 87 263 54 q 338 189 318 119 l 376 179 q 347 95 369 140 q 287 17 325 50 q 197 -15 249 -15 q 113 15 139 -15 q 86 108 86 46 q 110 446 86 200 q 161 886 135 692 l 174 961 l 75 956 l 82 1011 q 200 1021 164 1011 q 258 1049 236 1031 l 297 1049 l 282 950 m 78 -333 q 124 -242 111 -279 q 138 -168 138 -204 q 132 -100 138 -150 l 231 -78 q 242 -135 242 -107 q 207 -247 242 -189 q 113 -360 172 -306 l 78 -333 z "},"ł":{"ha":397,"x_min":-1,"x_max":381,"o":"m 290 979 q 264 813 268 846 q 243 642 254 746 l 233 556 l 363 646 l 358 571 l 226 478 q 201 126 201 222 q 209 73 201 92 q 240 54 217 54 q 294 87 267 54 q 340 189 321 119 l 381 179 q 351 95 374 140 q 290 17 328 50 q 200 -15 251 -15 q 115 16 142 -15 q 89 110 89 47 q 108 396 89 179 l -1 318 l 3 396 l 115 475 q 165 886 143 732 q 178 961 172 933 l 79 956 l 85 1011 q 204 1021 168 1011 q 261 1049 240 1031 l 301 1049 l 290 979 z "},"m":{"ha":1217,"x_min":11,"x_max":1200,"o":"m 921 710 q 1033 660 999 710 q 1067 529 1067 610 q 1060 412 1067 471 q 1039 263 1053 353 q 1021 118 1021 151 q 1028 71 1021 88 q 1058 54 1036 54 q 1113 87 1085 54 q 1161 189 1142 119 l 1200 179 q 1170 95 1193 140 q 1108 17 1147 50 q 1018 -15 1069 -15 q 931 17 956 -15 q 907 118 907 50 q 929 301 907 175 q 939 370 931 314 q 952 474 947 426 q 957 560 957 522 q 942 618 957 592 q 890 644 926 644 q 769 553 828 644 q 673 326 710 461 q 636 74 636 192 q 639 0 636 47 l 522 0 q 521 36 521 13 q 529 158 521 82 q 547 310 538 235 q 571 556 571 490 q 504 644 571 644 q 384 553 443 644 q 288 326 325 461 q 250 74 250 190 q 253 0 250 47 l 136 0 q 135 36 135 13 q 141 137 135 71 q 161 314 147 203 l 178 458 q 186 533 183 507 q 189 578 189 558 q 181 624 189 607 q 151 640 174 640 q 97 607 125 640 q 50 506 69 574 l 11 514 q 41 599 18 553 q 102 677 64 644 q 192 710 140 710 q 296 571 296 710 q 288 485 296 532 q 274 400 281 438 l 278 400 q 401 642 338 574 q 532 710 465 710 q 644 661 608 710 q 681 551 681 613 q 676 491 681 515 q 657 404 672 467 l 661 404 q 789 644 724 578 q 921 710 854 710 z "},"n":{"ha":854,"x_min":10,"x_max":838,"o":"m 550 710 q 665 660 628 710 q 701 529 701 610 q 675 263 701 436 q 660 118 660 153 q 667 71 660 88 q 697 54 675 54 q 751 87 724 54 q 799 189 779 119 l 838 179 q 808 95 831 140 q 747 17 785 50 q 657 -15 708 -15 q 569 17 594 -15 q 544 118 544 50 q 563 301 544 169 q 588 560 588 471 q 573 618 588 592 q 522 644 558 644 q 397 552 461 644 q 291 324 333 460 q 249 74 249 189 q 251 0 249 47 l 135 0 q 133 36 133 13 q 140 129 133 69 q 158 286 146 189 q 161 314 158 294 q 165 351 163 332 q 169 390 168 371 q 183 514 179 475 q 188 578 188 553 q 180 624 188 607 q 150 640 172 640 q 96 607 124 640 q 49 506 68 574 l 10 514 q 40 599 17 553 q 101 677 63 644 q 190 710 139 710 q 294 567 294 710 q 287 478 294 526 q 272 393 279 431 l 276 393 q 409 640 343 571 q 550 710 475 710 z "},"ń":{"ha":854,"x_min":10,"x_max":838,"o":"m 550 710 q 665 660 628 710 q 701 529 701 610 q 675 263 701 436 q 660 118 660 153 q 667 71 660 88 q 697 54 675 54 q 751 87 724 54 q 799 189 779 119 l 838 179 q 808 95 831 140 q 747 17 785 50 q 657 -15 708 -15 q 569 17 594 -15 q 544 118 544 50 q 563 301 544 169 q 588 560 588 471 q 573 618 588 592 q 522 644 558 644 q 397 552 461 644 q 291 324 333 460 q 249 74 249 189 q 251 0 249 47 l 135 0 q 133 36 133 13 q 140 129 133 69 q 158 286 146 189 q 161 314 158 294 q 165 351 163 332 q 169 390 168 371 q 183 514 179 475 q 188 578 188 553 q 180 624 188 607 q 150 640 172 640 q 96 607 124 640 q 49 506 68 574 l 10 514 q 40 599 17 553 q 101 677 63 644 q 190 710 139 710 q 294 567 294 710 q 287 478 294 526 q 272 393 279 431 l 276 393 q 409 640 343 571 q 550 710 475 710 m 379 832 l 488 1015 q 546 1060 514 1060 q 574 1049 563 1060 q 588 1015 588 1035 q 556 953 588 986 l 413 804 l 379 832 z "},"ŉ":{"ha":854,"x_min":10,"x_max":838,"o":"m 550 710 q 665 660 628 710 q 701 529 701 610 q 675 263 701 436 q 660 118 660 153 q 667 71 660 88 q 697 54 675 54 q 751 87 724 54 q 799 189 779 119 l 838 179 q 808 95 831 140 q 747 17 785 50 q 657 -15 708 -15 q 569 17 594 -15 q 544 118 544 50 q 563 301 544 169 q 588 560 588 471 q 573 618 588 592 q 522 644 558 644 q 397 552 461 644 q 291 324 333 460 q 249 74 249 189 q 251 0 249 47 l 135 0 q 133 36 133 13 q 140 129 133 69 q 158 286 146 189 q 161 314 158 294 q 165 351 163 332 q 169 390 168 371 q 183 514 179 475 q 188 578 188 553 q 180 624 188 607 q 150 640 172 640 q 96 607 124 640 q 49 506 68 574 l 10 514 q 40 599 17 553 q 101 677 63 644 q 190 710 139 710 q 294 567 294 710 q 287 478 294 526 q 272 393 279 431 l 276 393 q 409 640 343 571 q 550 710 475 710 m 207 1188 q 272 1157 247 1188 q 296 1079 296 1126 q 266 942 296 1021 q 182 803 236 863 l 147 831 q 200 924 175 864 q 225 1040 225 985 l 225 1051 l 222 1051 q 190 1046 207 1046 q 147 1065 165 1046 q 129 1110 129 1085 q 151 1167 129 1146 q 207 1188 174 1188 z "},"ň":{"ha":854,"x_min":10,"x_max":838,"o":"m 550 710 q 665 660 628 710 q 701 529 701 610 q 675 263 701 436 q 660 118 660 153 q 667 71 660 88 q 697 54 675 54 q 751 87 724 54 q 799 189 779 119 l 838 179 q 808 95 831 140 q 747 17 785 50 q 657 -15 708 -15 q 569 17 594 -15 q 544 118 544 50 q 563 301 544 169 q 588 560 588 471 q 573 618 588 592 q 522 644 558 644 q 397 552 461 644 q 291 324 333 460 q 249 74 249 189 q 251 0 249 47 l 135 0 q 133 36 133 13 q 140 129 133 69 q 158 286 146 189 q 161 314 158 294 q 165 351 163 332 q 169 390 168 371 q 183 514 179 475 q 188 578 188 553 q 180 624 188 607 q 150 640 172 640 q 96 607 124 640 q 49 506 68 574 l 10 514 q 40 599 17 553 q 101 677 63 644 q 190 710 139 710 q 294 567 294 710 q 287 478 294 526 q 272 393 279 431 l 276 393 q 409 640 343 571 q 550 710 475 710 m 268 1029 l 300 1064 l 469 906 l 472 906 q 558 974 508 932 q 629 1036 607 1017 l 667 1069 l 697 1033 l 465 806 l 463 806 l 268 1029 z "},"ņ":{"ha":854,"x_min":10,"x_max":838,"o":"m 550 710 q 665 660 628 710 q 701 529 701 610 q 675 263 701 436 q 660 118 660 153 q 667 71 660 88 q 697 54 675 54 q 751 87 724 54 q 799 189 779 119 l 838 179 q 808 95 831 140 q 747 17 785 50 q 657 -15 708 -15 q 569 17 594 -15 q 544 118 544 50 q 563 301 544 169 q 588 560 588 471 q 573 618 588 592 q 522 644 558 644 q 397 552 461 644 q 291 324 333 460 q 249 74 249 189 q 251 0 249 47 l 135 0 q 133 36 133 13 q 140 129 133 69 q 158 286 146 189 q 161 314 158 294 q 165 351 163 332 q 169 390 168 371 q 183 514 179 475 q 188 578 188 553 q 180 624 188 607 q 150 640 172 640 q 96 607 124 640 q 49 506 68 574 l 10 514 q 40 599 17 553 q 101 677 63 644 q 190 710 139 710 q 294 567 294 710 q 287 478 294 526 q 272 393 279 431 l 276 393 q 409 640 343 571 q 550 710 475 710 m 285 -333 q 331 -242 318 -279 q 344 -168 344 -204 q 339 -100 344 -150 l 438 -78 q 449 -135 449 -107 q 414 -247 449 -189 q 319 -360 379 -306 l 285 -333 z "},"ñ":{"ha":854,"x_min":10,"x_max":838,"o":"m 550 710 q 665 660 628 710 q 701 529 701 610 q 675 263 701 436 q 660 118 660 153 q 667 71 660 88 q 697 54 675 54 q 751 87 724 54 q 799 189 779 119 l 838 179 q 808 95 831 140 q 747 17 785 50 q 657 -15 708 -15 q 569 17 594 -15 q 544 118 544 50 q 563 301 544 169 q 588 560 588 471 q 573 618 588 592 q 522 644 558 644 q 397 552 461 644 q 291 324 333 460 q 249 74 249 189 q 251 0 249 47 l 135 0 q 133 36 133 13 q 140 129 133 69 q 158 286 146 189 q 161 314 158 294 q 165 351 163 332 q 169 390 168 371 q 183 514 179 475 q 188 578 188 553 q 180 624 188 607 q 150 640 172 640 q 96 607 124 640 q 49 506 68 574 l 10 514 q 40 599 17 553 q 101 677 63 644 q 190 710 139 710 q 294 567 294 710 q 287 478 294 526 q 272 393 279 431 l 276 393 q 409 640 343 571 q 550 710 475 710 m 571 857 q 518 867 540 857 q 465 897 496 878 q 425 922 443 914 q 386 931 407 931 q 333 914 361 931 q 285 868 304 897 l 250 886 q 315 968 269 935 q 401 1001 361 1001 q 455 991 433 1001 q 506 961 476 981 q 544 937 529 944 q 578 929 560 929 q 681 1000 635 929 l 714 983 q 650 888 689 919 q 571 857 611 857 z "},"o":{"ha":724,"x_min":54,"x_max":661,"o":"m 397 710 q 533 674 472 710 q 627 569 593 638 q 661 406 661 500 q 620 196 661 292 q 502 42 579 100 q 321 -15 425 -15 q 122 72 189 -15 q 54 296 54 158 q 96 504 54 410 q 215 654 138 599 q 397 710 293 710 m 375 658 q 269 615 314 658 q 200 495 224 571 q 176 326 176 419 q 214 124 176 211 q 336 38 251 38 q 452 92 407 38 q 518 225 497 146 q 539 379 539 304 q 502 577 539 496 q 375 658 465 658 z "},"ó":{"ha":724,"x_min":54,"x_max":661,"o":"m 397 710 q 533 674 472 710 q 627 569 593 638 q 661 406 661 500 q 620 196 661 292 q 502 42 579 100 q 321 -15 425 -15 q 122 72 189 -15 q 54 296 54 158 q 96 504 54 410 q 215 654 138 599 q 397 710 293 710 m 375 658 q 269 615 314 658 q 200 495 224 571 q 176 326 176 419 q 214 124 176 211 q 336 38 251 38 q 452 92 407 38 q 518 225 497 146 q 539 379 539 304 q 502 577 539 496 q 375 658 465 658 m 315 832 l 424 1015 q 482 1060 450 1060 q 510 1049 499 1060 q 524 1015 524 1035 q 492 953 524 986 l 349 804 l 315 832 z "},"ô":{"ha":724,"x_min":54,"x_max":661,"o":"m 397 710 q 533 674 472 710 q 627 569 593 638 q 661 406 661 500 q 620 196 661 292 q 502 42 579 100 q 321 -15 425 -15 q 122 72 189 -15 q 54 296 54 158 q 96 504 54 410 q 215 654 138 599 q 397 710 293 710 m 375 658 q 269 615 314 658 q 200 495 224 571 q 176 326 176 419 q 214 124 176 211 q 336 38 251 38 q 452 92 407 38 q 518 225 497 146 q 539 379 539 304 q 502 577 539 496 q 375 658 465 658 m 600 818 l 426 975 l 424 975 l 235 824 l 204 860 l 438 1078 l 440 1078 l 635 854 l 600 818 z "},"ố":{"ha":724,"x_min":54,"x_max":761,"o":"m 589 917 l 679 1068 q 726 1104 700 1104 q 750 1096 742 1104 q 761 1068 761 1081 q 735 1017 761 1044 l 617 893 l 589 917 m 579 782 l 414 867 l 413 867 l 251 783 l 232 818 l 422 956 l 425 956 l 601 817 l 579 782 m 397 710 q 533 674 472 710 q 627 569 593 638 q 661 406 661 500 q 620 196 661 292 q 502 42 579 100 q 321 -15 425 -15 q 122 72 189 -15 q 54 296 54 158 q 96 504 54 410 q 215 654 138 599 q 397 710 293 710 m 375 658 q 269 615 314 658 q 200 495 224 571 q 176 326 176 419 q 214 124 176 211 q 336 38 251 38 q 452 92 407 38 q 518 225 497 146 q 539 379 539 304 q 502 577 539 496 q 375 658 465 658 z "},"ộ":{"ha":724,"x_min":54,"x_max":661,"o":"m 397 710 q 533 674 472 710 q 627 569 593 638 q 661 406 661 500 q 620 196 661 292 q 502 42 579 100 q 321 -15 425 -15 q 122 72 189 -15 q 54 296 54 158 q 96 504 54 410 q 215 654 138 599 q 397 710 293 710 m 375 658 q 269 615 314 658 q 200 495 224 571 q 176 326 176 419 q 214 124 176 211 q 336 38 251 38 q 452 92 407 38 q 518 225 497 146 q 539 379 539 304 q 502 577 539 496 q 375 658 465 658 m 340 -114 q 383 -134 367 -114 q 400 -183 400 -154 q 379 -237 400 -215 q 331 -258 358 -258 q 288 -238 306 -258 q 269 -189 269 -218 q 291 -136 269 -158 q 340 -114 313 -114 m 579 782 l 414 867 l 413 867 l 251 783 l 232 818 l 422 956 l 425 956 l 601 817 l 579 782 z "},"ồ":{"ha":724,"x_min":54,"x_max":661,"o":"m 457 1058 q 428 1114 428 1088 q 440 1144 428 1132 q 450 1151 443 1149 q 465 1154 457 1154 q 518 1115 494 1154 l 617 949 l 586 922 l 457 1058 m 579 782 l 414 867 l 413 867 l 251 783 l 232 818 l 422 956 l 425 956 l 601 817 l 579 782 m 397 710 q 533 674 472 710 q 627 569 593 638 q 661 406 661 500 q 620 196 661 292 q 502 42 579 100 q 321 -15 425 -15 q 122 72 189 -15 q 54 296 54 158 q 96 504 54 410 q 215 654 138 599 q 397 710 293 710 m 375 658 q 269 615 314 658 q 200 495 224 571 q 176 326 176 419 q 214 124 176 211 q 336 38 251 38 q 452 92 407 38 q 518 225 497 146 q 539 379 539 304 q 502 577 539 496 q 375 658 465 658 z "},"ổ":{"ha":724,"x_min":54,"x_max":699,"o":"m 579 1160 q 667 1137 635 1160 q 699 1069 699 1114 q 696 1043 699 1063 q 671 999 690 1015 q 618 965 651 983 q 587 948 597 956 q 575 931 576 940 l 532 931 q 543 952 535 944 q 567 969 551 960 q 603 999 590 985 q 624 1043 617 1013 q 626 1065 626 1060 q 572 1114 626 1114 q 530 1102 550 1114 q 506 1076 510 1090 q 508 1060 508 1068 q 494 1038 508 1047 q 465 1028 479 1028 q 440 1035 450 1028 q 429 1058 429 1043 q 448 1106 429 1082 q 501 1144 467 1129 q 579 1160 535 1160 m 579 782 l 414 867 l 413 867 l 251 783 l 232 818 l 422 956 l 425 956 l 601 817 l 579 782 m 397 710 q 533 674 472 710 q 627 569 593 638 q 661 406 661 500 q 620 196 661 292 q 502 42 579 100 q 321 -15 425 -15 q 122 72 189 -15 q 54 296 54 158 q 96 504 54 410 q 215 654 138 599 q 397 710 293 710 m 375 658 q 269 615 314 658 q 200 495 224 571 q 176 326 176 419 q 214 124 176 211 q 336 38 251 38 q 452 92 407 38 q 518 225 497 146 q 539 379 539 304 q 502 577 539 496 q 375 658 465 658 z "},"ỗ":{"ha":724,"x_min":54,"x_max":661,"o":"m 501 968 q 458 976 476 968 q 414 1001 439 985 q 378 1022 392 1015 q 349 1029 365 1029 q 305 1015 328 1029 q 265 976 282 1000 l 236 992 q 290 1060 253 1032 q 361 1088 326 1088 q 406 1078 386 1088 q 446 1054 425 1069 q 478 1034 464 1040 q 508 1028 492 1028 q 592 1086 554 1028 l 619 1072 q 567 994 600 1019 q 501 968 535 968 m 579 782 l 414 867 l 413 867 l 251 783 l 232 818 l 422 956 l 425 956 l 601 817 l 579 782 m 397 710 q 533 674 472 710 q 627 569 593 638 q 661 406 661 500 q 620 196 661 292 q 502 42 579 100 q 321 -15 425 -15 q 122 72 189 -15 q 54 296 54 158 q 96 504 54 410 q 215 654 138 599 q 397 710 293 710 m 375 658 q 269 615 314 658 q 200 495 224 571 q 176 326 176 419 q 214 124 176 211 q 336 38 251 38 q 452 92 407 38 q 518 225 497 146 q 539 379 539 304 q 502 577 539 496 q 375 658 465 658 z "},"ö":{"ha":724,"x_min":54,"x_max":661,"o":"m 397 710 q 533 674 472 710 q 627 569 593 638 q 661 406 661 500 q 620 196 661 292 q 502 42 579 100 q 321 -15 425 -15 q 122 72 189 -15 q 54 296 54 158 q 96 504 54 410 q 215 654 138 599 q 397 710 293 710 m 375 658 q 269 615 314 658 q 200 495 224 571 q 176 326 176 419 q 214 124 176 211 q 336 38 251 38 q 452 92 407 38 q 518 225 497 146 q 539 379 539 304 q 502 577 539 496 q 375 658 465 658 m 314 856 q 270 876 288 856 q 253 928 253 897 q 274 984 253 961 q 321 1007 294 1007 q 363 987 346 1007 q 379 938 379 967 q 360 880 379 904 q 314 856 340 856 m 518 856 q 474 876 492 856 q 457 928 457 897 q 478 984 457 961 q 525 1007 499 1007 q 567 987 550 1007 q 583 938 583 967 q 563 880 583 904 q 518 856 543 856 z "},"ọ":{"ha":724,"x_min":54,"x_max":661,"o":"m 397 710 q 533 674 472 710 q 627 569 593 638 q 661 406 661 500 q 620 196 661 292 q 502 42 579 100 q 321 -15 425 -15 q 122 72 189 -15 q 54 296 54 158 q 96 504 54 410 q 215 654 138 599 q 397 710 293 710 m 375 658 q 269 615 314 658 q 200 495 224 571 q 176 326 176 419 q 214 124 176 211 q 336 38 251 38 q 452 92 407 38 q 518 225 497 146 q 539 379 539 304 q 502 577 539 496 q 375 658 465 658 m 340 -114 q 383 -134 367 -114 q 400 -183 400 -154 q 379 -237 400 -215 q 331 -258 358 -258 q 288 -238 306 -258 q 269 -189 269 -218 q 291 -136 269 -158 q 340 -114 313 -114 z "},"ò":{"ha":724,"x_min":54,"x_max":661,"o":"m 397 710 q 533 674 472 710 q 627 569 593 638 q 661 406 661 500 q 620 196 661 292 q 502 42 579 100 q 321 -15 425 -15 q 122 72 189 -15 q 54 296 54 158 q 96 504 54 410 q 215 654 138 599 q 397 710 293 710 m 375 658 q 269 615 314 658 q 200 495 224 571 q 176 326 176 419 q 214 124 176 211 q 336 38 251 38 q 452 92 407 38 q 518 225 497 146 q 539 379 539 304 q 502 577 539 496 q 375 658 465 658 m 318 953 q 286 1015 286 986 q 300 1049 286 1035 q 328 1060 311 1060 q 386 1015 360 1060 l 494 832 l 461 804 l 318 953 z "},"ỏ":{"ha":724,"x_min":54,"x_max":661,"o":"m 397 710 q 533 674 472 710 q 627 569 593 638 q 661 406 661 500 q 620 196 661 292 q 502 42 579 100 q 321 -15 425 -15 q 122 72 189 -15 q 54 296 54 158 q 96 504 54 410 q 215 654 138 599 q 397 710 293 710 m 375 658 q 269 615 314 658 q 200 495 224 571 q 176 326 176 419 q 214 124 176 211 q 336 38 251 38 q 452 92 407 38 q 518 225 497 146 q 539 379 539 304 q 502 577 539 496 q 375 658 465 658 m 415 1039 q 511 1014 476 1039 q 546 940 546 989 q 543 911 546 933 q 516 863 538 881 q 457 825 494 844 q 422 805 432 813 q 410 786 411 797 l 363 786 q 374 810 365 801 q 401 831 383 819 q 442 861 426 844 q 464 911 457 878 q 467 935 467 928 q 407 989 467 989 q 361 976 383 989 q 333 947 339 963 q 338 925 339 936 q 319 903 335 911 q 289 894 304 894 q 250 928 250 894 q 270 980 250 954 q 328 1022 290 1006 q 415 1039 367 1039 z "},"ơ":{"ha":724,"x_min":54,"x_max":685,"o":"m 569 647 q 638 547 614 608 q 661 406 661 485 q 620 196 661 292 q 502 42 579 100 q 321 -15 425 -15 q 122 72 189 -15 q 54 296 54 158 q 96 504 54 410 q 215 654 138 599 q 397 710 293 710 q 494 693 450 710 q 585 799 564 700 l 685 799 q 646 710 676 751 q 569 647 615 669 m 539 379 q 502 577 539 496 q 375 658 465 658 q 269 615 314 658 q 200 495 224 571 q 176 326 176 419 q 214 124 176 211 q 336 38 251 38 q 452 92 407 38 q 518 225 497 146 q 539 379 539 304 z "},"ớ":{"ha":724,"x_min":54,"x_max":685,"o":"m 569 647 q 638 547 614 608 q 661 406 661 485 q 620 196 661 292 q 502 42 579 100 q 321 -15 425 -15 q 122 72 189 -15 q 54 296 54 158 q 96 504 54 410 q 215 654 138 599 q 397 710 293 710 q 494 693 450 710 q 585 799 564 700 l 685 799 q 646 710 676 751 q 569 647 615 669 m 539 379 q 502 577 539 496 q 375 658 465 658 q 269 615 314 658 q 200 495 224 571 q 176 326 176 419 q 214 124 176 211 q 336 38 251 38 q 452 92 407 38 q 518 225 497 146 q 539 379 539 304 m 315 832 l 424 1015 q 482 1060 450 1060 q 510 1049 499 1060 q 524 1015 524 1035 q 492 953 524 986 l 349 804 l 315 832 z "},"ợ":{"ha":724,"x_min":54,"x_max":685,"o":"m 569 647 q 638 547 614 608 q 661 406 661 485 q 620 196 661 292 q 502 42 579 100 q 321 -15 425 -15 q 122 72 189 -15 q 54 296 54 158 q 96 504 54 410 q 215 654 138 599 q 397 710 293 710 q 494 693 450 710 q 585 799 564 700 l 685 799 q 646 710 676 751 q 569 647 615 669 m 539 379 q 502 577 539 496 q 375 658 465 658 q 269 615 314 658 q 200 495 224 571 q 176 326 176 419 q 214 124 176 211 q 336 38 251 38 q 452 92 407 38 q 518 225 497 146 q 539 379 539 304 m 340 -114 q 383 -134 367 -114 q 400 -183 400 -154 q 379 -237 400 -215 q 331 -258 358 -258 q 288 -238 306 -258 q 269 -189 269 -218 q 291 -136 269 -158 q 340 -114 313 -114 z "},"ờ":{"ha":724,"x_min":54,"x_max":685,"o":"m 569 647 q 638 547 614 608 q 661 406 661 485 q 620 196 661 292 q 502 42 579 100 q 321 -15 425 -15 q 122 72 189 -15 q 54 296 54 158 q 96 504 54 410 q 215 654 138 599 q 397 710 293 710 q 494 693 450 710 q 585 799 564 700 l 685 799 q 646 710 676 751 q 569 647 615 669 m 539 379 q 502 577 539 496 q 375 658 465 658 q 269 615 314 658 q 200 495 224 571 q 176 326 176 419 q 214 124 176 211 q 336 38 251 38 q 452 92 407 38 q 518 225 497 146 q 539 379 539 304 m 346 953 q 314 1015 314 986 q 328 1049 314 1035 q 356 1060 339 1060 q 414 1015 388 1060 l 522 832 l 489 804 l 346 953 z "},"ở":{"ha":724,"x_min":54,"x_max":685,"o":"m 569 647 q 638 547 614 608 q 661 406 661 485 q 620 196 661 292 q 502 42 579 100 q 321 -15 425 -15 q 122 72 189 -15 q 54 296 54 158 q 96 504 54 410 q 215 654 138 599 q 397 710 293 710 q 494 693 450 710 q 585 799 564 700 l 685 799 q 646 710 676 751 q 569 647 615 669 m 539 379 q 502 577 539 496 q 375 658 465 658 q 269 615 314 658 q 200 495 224 571 q 176 326 176 419 q 214 124 176 211 q 336 38 251 38 q 452 92 407 38 q 518 225 497 146 q 539 379 539 304 m 415 1039 q 511 1014 476 1039 q 546 940 546 989 q 543 911 546 933 q 516 863 538 881 q 457 825 494 844 q 422 805 432 813 q 410 786 411 797 l 363 786 q 374 810 365 801 q 401 831 383 819 q 442 861 426 844 q 464 911 457 878 q 467 935 467 928 q 407 989 467 989 q 361 976 383 989 q 333 947 339 963 q 338 925 339 936 q 319 903 335 911 q 289 894 304 894 q 250 928 250 894 q 270 980 250 954 q 328 1022 290 1006 q 415 1039 367 1039 z "},"ỡ":{"ha":724,"x_min":54,"x_max":685,"o":"m 569 647 q 638 547 614 608 q 661 406 661 485 q 620 196 661 292 q 502 42 579 100 q 321 -15 425 -15 q 122 72 189 -15 q 54 296 54 158 q 96 504 54 410 q 215 654 138 599 q 397 710 293 710 q 494 693 450 710 q 585 799 564 700 l 685 799 q 646 710 676 751 q 569 647 615 669 m 539 379 q 502 577 539 496 q 375 658 465 658 q 269 615 314 658 q 200 495 224 571 q 176 326 176 419 q 214 124 176 211 q 336 38 251 38 q 452 92 407 38 q 518 225 497 146 q 539 379 539 304 m 508 857 q 456 867 478 857 q 403 897 433 878 q 363 922 381 914 q 324 931 344 931 q 270 914 299 931 q 222 868 242 897 l 188 886 q 253 968 207 935 q 339 1001 299 1001 q 392 991 371 1001 q 443 961 414 981 q 482 937 467 944 q 515 929 497 929 q 618 1000 572 929 l 651 983 q 588 888 626 919 q 508 857 549 857 z "},"ő":{"ha":724,"x_min":54,"x_max":661,"o":"m 397 710 q 533 674 472 710 q 627 569 593 638 q 661 406 661 500 q 620 196 661 292 q 502 42 579 100 q 321 -15 425 -15 q 122 72 189 -15 q 54 296 54 158 q 96 504 54 410 q 215 654 138 599 q 397 710 293 710 m 375 658 q 269 615 314 658 q 200 495 224 571 q 176 326 176 419 q 214 124 176 211 q 336 38 251 38 q 452 92 407 38 q 518 225 497 146 q 539 379 539 304 q 502 577 539 496 q 375 658 465 658 m 190 843 l 322 1013 q 389 1056 357 1056 q 415 1046 406 1056 q 426 1019 426 1035 q 385 956 426 992 l 221 813 l 190 843 m 385 857 l 538 1014 q 607 1054 576 1054 q 639 1038 628 1054 q 646 1014 646 1026 q 597 951 646 983 l 410 825 l 385 857 z "},"ō":{"ha":724,"x_min":54,"x_max":661,"o":"m 397 710 q 533 674 472 710 q 627 569 593 638 q 661 406 661 500 q 620 196 661 292 q 502 42 579 100 q 321 -15 425 -15 q 122 72 189 -15 q 54 296 54 158 q 96 504 54 410 q 215 654 138 599 q 397 710 293 710 m 375 658 q 269 615 314 658 q 200 495 224 571 q 176 326 176 419 q 214 124 176 211 q 336 38 251 38 q 452 92 407 38 q 518 225 497 146 q 539 379 539 304 q 502 577 539 496 q 375 658 465 658 m 233 896 l 238 974 l 606 974 l 601 901 l 233 896 z "},"ø":{"ha":724,"x_min":47,"x_max":679,"o":"m 679 740 l 596 619 q 661 406 661 536 q 620 196 661 292 q 502 42 579 100 q 321 -15 425 -15 q 179 21 239 -15 l 92 -107 l 47 -72 l 135 57 q 74 160 94 99 q 54 296 54 222 q 96 504 54 410 q 215 654 138 599 q 397 710 293 710 q 546 665 481 710 l 622 781 l 679 740 m 372 658 q 267 614 311 658 q 199 494 222 569 q 176 325 176 418 q 201 156 176 222 l 493 589 q 372 658 453 658 m 232 94 q 336 38 269 38 q 453 92 407 38 q 519 226 499 147 q 539 381 539 304 q 524 517 539 456 l 232 94 z "},"õ":{"ha":724,"x_min":54,"x_max":661,"o":"m 397 710 q 533 674 472 710 q 627 569 593 638 q 661 406 661 500 q 620 196 661 292 q 502 42 579 100 q 321 -15 425 -15 q 122 72 189 -15 q 54 296 54 158 q 96 504 54 410 q 215 654 138 599 q 397 710 293 710 m 375 658 q 269 615 314 658 q 200 495 224 571 q 176 326 176 419 q 214 124 176 211 q 336 38 251 38 q 452 92 407 38 q 518 225 497 146 q 539 379 539 304 q 502 577 539 496 q 375 658 465 658 m 507 857 q 454 867 476 857 q 401 897 432 878 q 361 922 379 914 q 322 931 343 931 q 269 914 297 931 q 221 868 240 897 l 186 886 q 251 968 206 935 q 338 1001 297 1001 q 391 991 369 1001 q 442 961 413 981 q 481 937 465 944 q 514 929 496 929 q 617 1000 571 929 l 650 983 q 586 888 625 919 q 507 857 547 857 z "},"œ":{"ha":1107,"x_min":56,"x_max":1057,"o":"m 824 710 q 1025 558 1025 710 q 908 396 1025 454 q 621 321 790 338 q 665 117 617 181 q 783 54 714 54 q 906 98 843 54 q 1011 222 969 142 l 1057 196 q 924 36 999 88 q 754 -15 850 -15 q 628 20 685 -15 q 544 124 572 56 l 542 124 q 442 25 506 65 q 308 -15 378 -15 q 117 70 178 -15 q 56 296 56 156 q 94 504 56 410 q 206 654 132 599 q 381 710 279 710 q 501 672 450 710 q 575 564 551 633 l 579 564 q 679 665 611 621 q 824 710 747 710 m 803 663 q 715 617 756 658 q 650 510 675 575 q 621 369 625 444 q 828 432 743 386 q 914 563 914 478 q 884 642 914 617 q 803 663 854 667 m 357 658 q 221 564 268 658 q 174 322 174 469 q 206 122 174 204 q 322 39 239 39 q 461 127 415 39 q 511 344 507 215 q 488 563 515 468 q 357 658 460 658 z "},"p":{"ha":793,"x_min":25,"x_max":731,"o":"m 543 710 q 683 633 635 710 q 731 440 731 557 q 683 201 731 304 q 544 42 636 99 q 321 -15 451 -15 q 256 -11 288 -15 l 244 -186 q 243 -217 243 -196 q 233 -301 240 -271 l 321 -297 l 321 -354 l 58 -354 l 58 -312 q 108 -292 92 -312 q 131 -238 125 -271 q 142 -146 138 -206 q 143 -118 142 -128 q 181 303 156 29 q 203 567 203 532 q 196 622 203 603 q 165 640 189 640 q 112 607 139 640 q 65 506 85 574 l 25 514 q 55 599 32 553 q 116 677 78 644 q 206 710 154 710 q 311 564 311 710 q 292 406 311 503 l 296 406 q 410 645 349 581 q 543 710 471 710 m 514 644 q 417 577 465 644 q 331 402 368 510 q 275 181 293 294 q 260 49 267 132 q 344 32 310 32 q 497 90 436 32 q 584 235 557 147 q 611 415 611 324 q 589 583 611 522 q 514 644 567 644 z "},"þ":{"ha":711,"x_min":-15,"x_max":647,"o":"m 272 1049 q 240 814 253 931 l 221 610 q 210 503 214 553 q 201 415 206 454 l 206 414 q 323 651 254 593 q 474 710 392 710 q 606 637 564 710 q 647 453 647 564 q 552 115 647 246 q 263 -15 457 -15 q 179 -10 222 -15 l 171 -186 q 169 -217 169 -196 q 160 -301 167 -271 l 247 -297 l 247 -354 l -15 -354 l -15 -312 q 38 -289 21 -312 q 60 -231 56 -265 q 69 -119 64 -197 q 140 860 110 472 q 150 961 146 935 l 50 956 l 56 1011 q 175 1021 139 1011 q 232 1049 211 1031 l 272 1049 m 436 644 q 315 551 374 644 q 219 321 256 458 q 179 65 182 183 q 225 42 194 50 q 286 33 256 33 q 474 151 419 35 q 528 426 528 268 q 436 644 528 644 z "},"q":{"ha":719,"x_min":53,"x_max":640,"o":"m 460 710 q 554 706 497 710 q 640 696 611 701 q 606 314 628 535 q 561 -186 568 -81 q 547 -301 554 -272 l 635 -297 l 635 -354 l 372 -354 l 372 -312 q 422 -292 406 -312 q 445 -238 439 -271 q 456 -146 451 -206 q 457 -118 456 -128 q 500 289 474 86 l 496 289 q 380 49 444 113 q 239 -15 315 -15 q 100 57 147 -15 q 53 246 53 129 q 99 486 53 382 q 238 649 146 590 q 460 710 329 708 m 438 663 q 286 602 346 661 q 199 454 226 543 q 172 274 172 365 q 195 109 172 168 q 272 50 218 50 q 393 146 335 50 q 490 383 451 242 q 536 650 529 524 q 438 663 494 663 z "},"r":{"ha":632,"x_min":10,"x_max":635,"o":"m 538 710 q 608 688 581 710 q 635 629 635 667 q 617 583 635 603 q 571 563 599 563 q 528 578 546 563 q 507 621 510 593 q 492 622 501 622 q 378 529 433 622 q 288 303 322 436 q 253 60 253 169 q 256 0 253 47 l 140 0 q 139 36 139 13 q 161 321 139 121 l 179 482 q 188 578 188 554 q 180 624 188 607 q 150 640 172 640 q 96 607 124 640 q 49 506 68 574 l 10 514 q 40 599 17 553 q 101 677 63 644 q 190 710 139 710 q 268 675 244 710 q 292 575 292 640 q 271 407 292 511 l 275 407 q 397 642 332 575 q 538 710 463 710 z "},"ŕ":{"ha":632,"x_min":10,"x_max":635,"o":"m 538 710 q 608 688 581 710 q 635 629 635 667 q 617 583 635 603 q 571 563 599 563 q 528 578 546 563 q 507 621 510 593 q 492 622 501 622 q 378 529 433 622 q 288 303 322 436 q 253 60 253 169 q 256 0 253 47 l 140 0 q 139 36 139 13 q 161 321 139 121 l 179 482 q 188 578 188 554 q 180 624 188 607 q 150 640 172 640 q 96 607 124 640 q 49 506 68 574 l 10 514 q 40 599 17 553 q 101 677 63 644 q 190 710 139 710 q 268 675 244 710 q 292 575 292 640 q 271 407 292 511 l 275 407 q 397 642 332 575 q 538 710 463 710 m 261 832 l 369 1015 q 428 1060 396 1060 q 456 1049 444 1060 q 469 1015 469 1035 q 438 953 469 986 l 294 804 l 261 832 z "},"ř":{"ha":632,"x_min":10,"x_max":635,"o":"m 538 710 q 608 688 581 710 q 635 629 635 667 q 617 583 635 603 q 571 563 599 563 q 528 578 546 563 q 507 621 510 593 q 492 622 501 622 q 378 529 433 622 q 288 303 322 436 q 253 60 253 169 q 256 0 253 47 l 140 0 q 139 36 139 13 q 161 321 139 121 l 179 482 q 188 578 188 554 q 180 624 188 607 q 150 640 172 640 q 96 607 124 640 q 49 506 68 574 l 10 514 q 40 599 17 553 q 101 677 63 644 q 190 710 139 710 q 268 675 244 710 q 292 575 292 640 q 271 407 292 511 l 275 407 q 397 642 332 575 q 538 710 463 710 m 150 1029 l 182 1064 l 351 906 l 354 906 q 440 974 390 932 q 511 1036 489 1017 l 549 1069 l 579 1033 l 347 806 l 344 806 l 150 1029 z "},"ŗ":{"ha":632,"x_min":10,"x_max":635,"o":"m 538 710 q 608 688 581 710 q 635 629 635 667 q 617 583 635 603 q 571 563 599 563 q 528 578 546 563 q 507 621 510 593 q 492 622 501 622 q 378 529 433 622 q 288 303 322 436 q 253 60 253 169 q 256 0 253 47 l 140 0 q 139 36 139 13 q 161 321 139 121 l 179 482 q 188 578 188 554 q 180 624 188 607 q 150 640 172 640 q 96 607 124 640 q 49 506 68 574 l 10 514 q 40 599 17 553 q 101 677 63 644 q 190 710 139 710 q 268 675 244 710 q 292 575 292 640 q 271 407 292 511 l 275 407 q 397 642 332 575 q 538 710 463 710 m 90 -333 q 137 -242 124 -279 q 150 -168 150 -204 q 144 -100 150 -150 l 243 -78 q 254 -135 254 -107 q 219 -247 254 -189 q 125 -360 185 -306 l 90 -333 z "},"s":{"ha":594,"x_min":42,"x_max":525,"o":"m 315 710 q 459 672 397 710 q 521 574 521 633 q 504 527 521 544 q 463 510 488 510 q 423 526 439 510 q 407 565 407 543 q 419 608 407 589 q 383 649 411 633 q 311 664 356 664 q 223 633 263 664 q 183 554 183 601 q 219 482 183 514 q 331 407 256 450 q 432 342 393 371 q 498 275 471 314 q 525 188 525 236 q 492 83 525 129 q 400 11 460 38 q 264 -15 340 -15 q 108 25 174 -15 q 42 133 42 65 q 59 182 42 163 q 101 201 76 201 q 143 184 128 201 q 158 143 158 167 q 146 100 158 119 q 189 53 156 71 q 261 36 222 36 q 373 70 335 36 q 411 168 411 104 q 372 249 411 214 q 254 329 333 283 q 120 422 165 381 q 75 522 75 464 q 106 615 75 572 q 191 684 136 658 q 315 710 246 710 z "},"ś":{"ha":594,"x_min":42,"x_max":525,"o":"m 315 710 q 459 672 397 710 q 521 574 521 633 q 504 527 521 544 q 463 510 488 510 q 423 526 439 510 q 407 565 407 543 q 419 608 407 589 q 383 649 411 633 q 311 664 356 664 q 223 633 263 664 q 183 554 183 601 q 219 482 183 514 q 331 407 256 450 q 432 342 393 371 q 498 275 471 314 q 525 188 525 236 q 492 83 525 129 q 400 11 460 38 q 264 -15 340 -15 q 108 25 174 -15 q 42 133 42 65 q 59 182 42 163 q 101 201 76 201 q 143 184 128 201 q 158 143 158 167 q 146 100 158 119 q 189 53 156 71 q 261 36 222 36 q 373 70 335 36 q 411 168 411 104 q 372 249 411 214 q 254 329 333 283 q 120 422 165 381 q 75 522 75 464 q 106 615 75 572 q 191 684 136 658 q 315 710 246 710 m 225 832 l 333 1015 q 392 1060 360 1060 q 419 1049 408 1060 q 433 1015 433 1035 q 401 953 433 986 l 258 804 l 225 832 z "},"š":{"ha":594,"x_min":42,"x_max":543,"o":"m 315 710 q 459 672 397 710 q 521 574 521 633 q 504 527 521 544 q 463 510 488 510 q 423 526 439 510 q 407 565 407 543 q 419 608 407 589 q 383 649 411 633 q 311 664 356 664 q 223 633 263 664 q 183 554 183 601 q 219 482 183 514 q 331 407 256 450 q 432 342 393 371 q 498 275 471 314 q 525 188 525 236 q 492 83 525 129 q 400 11 460 38 q 264 -15 340 -15 q 108 25 174 -15 q 42 133 42 65 q 59 182 42 163 q 101 201 76 201 q 143 184 128 201 q 158 143 158 167 q 146 100 158 119 q 189 53 156 71 q 261 36 222 36 q 373 70 335 36 q 411 168 411 104 q 372 249 411 214 q 254 329 333 283 q 120 422 165 381 q 75 522 75 464 q 106 615 75 572 q 191 684 136 658 q 315 710 246 710 m 114 1029 l 146 1064 l 315 906 l 318 906 q 403 974 354 932 q 475 1036 453 1017 l 513 1069 l 543 1033 l 311 806 l 308 806 l 114 1029 z "},"ş":{"ha":594,"x_min":42,"x_max":525,"o":"m 525 188 q 465 51 525 107 q 304 -14 404 -4 l 271 -107 q 364 -81 313 -81 q 431 -103 407 -81 q 456 -162 456 -126 q 372 -280 456 -242 q 181 -333 289 -318 l 175 -290 q 303 -249 253 -276 q 353 -185 353 -222 q 340 -152 353 -162 q 306 -142 326 -142 q 242 -162 272 -142 l 194 -139 l 235 -14 q 98 32 154 -7 q 42 133 42 71 q 59 182 42 163 q 101 201 76 201 q 143 184 128 201 q 158 143 158 167 q 146 100 158 119 q 189 53 156 71 q 261 36 222 36 q 373 70 335 36 q 411 168 411 104 q 372 249 411 214 q 254 329 333 283 q 120 422 165 381 q 75 522 75 464 q 106 615 75 572 q 191 684 136 658 q 315 710 246 710 q 459 672 397 710 q 521 574 521 633 q 504 527 521 544 q 463 510 488 510 q 423 526 439 510 q 407 565 407 543 q 419 608 407 589 q 383 649 411 633 q 311 664 356 664 q 223 633 263 664 q 183 554 183 601 q 219 482 183 514 q 331 407 256 450 q 432 342 393 371 q 498 275 471 314 q 525 188 525 236 z "},"ŝ":{"ha":594,"x_min":42,"x_max":544,"o":"m 315 710 q 459 672 397 710 q 521 574 521 633 q 504 527 521 544 q 463 510 488 510 q 423 526 439 510 q 407 565 407 543 q 419 608 407 589 q 383 649 411 633 q 311 664 356 664 q 223 633 263 664 q 183 554 183 601 q 219 482 183 514 q 331 407 256 450 q 432 342 393 371 q 498 275 471 314 q 525 188 525 236 q 492 83 525 129 q 400 11 460 38 q 264 -15 340 -15 q 108 25 174 -15 q 42 133 42 65 q 59 182 42 163 q 101 201 76 201 q 143 184 128 201 q 158 143 158 167 q 146 100 158 119 q 189 53 156 71 q 261 36 222 36 q 373 70 335 36 q 411 168 411 104 q 372 249 411 214 q 254 329 333 283 q 120 422 165 381 q 75 522 75 464 q 106 615 75 572 q 191 684 136 658 q 315 710 246 710 m 510 818 l 336 975 l 333 975 l 144 824 l 114 860 l 347 1078 l 350 1078 l 544 854 l 510 818 z "},"ș":{"ha":594,"x_min":42,"x_max":525,"o":"m 315 710 q 459 672 397 710 q 521 574 521 633 q 504 527 521 544 q 463 510 488 510 q 423 526 439 510 q 407 565 407 543 q 419 608 407 589 q 383 649 411 633 q 311 664 356 664 q 223 633 263 664 q 183 554 183 601 q 219 482 183 514 q 331 407 256 450 q 432 342 393 371 q 498 275 471 314 q 525 188 525 236 q 492 83 525 129 q 400 11 460 38 q 264 -15 340 -15 q 108 25 174 -15 q 42 133 42 65 q 59 182 42 163 q 101 201 76 201 q 143 184 128 201 q 158 143 158 167 q 146 100 158 119 q 189 53 156 71 q 261 36 222 36 q 373 70 335 36 q 411 168 411 104 q 372 249 411 214 q 254 329 333 283 q 120 422 165 381 q 75 522 75 464 q 106 615 75 572 q 191 684 136 658 q 315 710 246 710 m 150 -333 q 197 -242 183 -279 q 210 -168 210 -204 q 204 -100 210 -150 l 303 -78 q 314 -135 314 -107 q 279 -247 314 -189 q 185 -360 244 -306 l 150 -333 z "},"ß":{"ha":903,"x_min":-175,"x_max":856,"o":"m 521 1056 q 668 1028 610 1056 q 753 958 726 1000 q 779 867 779 915 q 778 844 779 851 q 738 748 769 786 q 651 668 706 710 q 585 608 606 632 q 565 551 565 585 q 592 494 565 521 q 679 424 619 467 q 770 354 735 385 q 831 281 806 324 q 856 188 856 239 q 791 42 856 99 q 622 -15 726 -15 q 469 25 533 -15 q 406 133 406 65 q 424 182 406 163 q 467 201 442 201 q 508 184 493 201 q 522 143 522 167 q 511 100 522 118 q 551 53 521 71 q 619 36 581 36 q 742 168 742 36 q 708 251 742 214 q 607 339 675 288 q 501 433 536 393 q 468 525 465 474 q 496 606 472 574 q 565 675 519 638 q 642 754 615 717 q 674 853 669 792 q 638 963 679 915 q 514 1010 597 1010 q 366 954 418 1010 q 290 793 314 899 q 270 661 278 733 q 253 463 263 589 q 243 328 247 367 q 238 264 240 283 q 199 -75 221 51 q 115 -289 176 -201 q -64 -376 53 -376 q -147 -358 -118 -376 q -175 -304 -175 -339 q -160 -265 -175 -285 q -119 -246 -146 -246 q -78 -264 -93 -246 q -64 -311 -64 -282 q -44 -319 -57 -315 q -22 -322 -32 -322 q 55 -265 28 -322 q 93 -117 82 -208 q 115 149 104 -26 q 129 340 126 303 l 133 396 q 157 636 147 560 l 32 635 l 39 694 l 167 694 q 278 962 199 868 q 521 1056 357 1056 z "},"t":{"ha":506,"x_min":31,"x_max":497,"o":"m 276 694 l 497 694 l 493 642 l 271 639 l 261 550 q 231 176 231 286 q 243 89 231 122 q 296 56 256 56 q 426 153 368 56 l 463 129 q 373 20 419 56 q 263 -15 326 -15 q 152 31 186 -15 q 118 149 118 76 q 128 360 118 229 q 154 638 138 492 l 31 636 l 35 694 q 169 744 118 694 q 249 890 221 793 l 301 890 l 276 694 z "},"ť":{"ha":506,"x_min":31,"x_max":567,"o":"m 276 694 l 497 694 l 493 642 l 271 639 l 261 550 q 231 176 231 286 q 243 89 231 122 q 296 56 256 56 q 426 153 368 56 l 463 129 q 373 20 419 56 q 263 -15 326 -15 q 152 31 186 -15 q 118 149 118 76 q 128 360 118 229 q 154 638 138 492 l 31 636 l 35 694 q 169 744 118 694 q 249 890 221 793 l 301 890 l 276 694 m 415 857 q 467 1042 467 956 q 454 1136 467 1090 l 550 1118 q 567 1057 567 1083 q 535 940 567 999 q 451 829 503 881 l 415 857 z "},"ţ":{"ha":506,"x_min":31,"x_max":497,"o":"m 271 639 l 261 550 q 231 176 231 286 q 243 89 231 122 q 296 56 256 56 q 426 153 368 56 l 463 129 q 380 26 424 61 q 279 -15 336 -10 l 247 -107 q 340 -81 289 -81 q 408 -103 383 -81 q 432 -162 432 -126 q 349 -280 432 -242 q 157 -333 265 -318 l 151 -290 q 279 -249 229 -276 q 329 -185 329 -222 q 316 -152 329 -162 q 282 -142 303 -142 q 218 -162 249 -142 l 171 -139 l 213 -8 q 141 48 164 6 q 118 149 118 90 q 128 360 118 229 q 154 638 138 492 l 31 636 l 35 694 q 169 744 118 694 q 249 890 221 793 l 301 890 l 276 694 l 497 694 l 493 642 l 271 639 z "},"ț":{"ha":506,"x_min":31,"x_max":497,"o":"m 276 694 l 497 694 l 493 642 l 271 639 l 261 550 q 231 176 231 286 q 243 89 231 122 q 296 56 256 56 q 426 153 368 56 l 463 129 q 373 20 419 56 q 263 -15 326 -15 q 152 31 186 -15 q 118 149 118 76 q 128 360 118 229 q 154 638 138 492 l 31 636 l 35 694 q 169 744 118 694 q 249 890 221 793 l 301 890 l 276 694 m 126 -333 q 173 -242 160 -279 q 186 -168 186 -204 q 181 -100 186 -150 l 279 -78 q 290 -135 290 -107 q 256 -247 290 -189 q 161 -360 221 -306 l 126 -333 z "},"u":{"ha":824,"x_min":8,"x_max":818,"o":"m 185 710 q 269 675 240 710 q 297 575 297 640 q 275 367 297 525 q 263 273 274 354 q 251 138 251 192 q 266 77 251 104 q 317 50 281 50 q 439 142 378 50 q 540 369 500 235 q 579 621 579 504 q 576 694 579 647 l 693 694 q 694 658 694 682 q 688 556 694 625 q 667 375 681 486 l 653 260 q 646 193 651 242 q 640 117 640 144 q 678 56 640 56 q 732 88 704 56 q 779 189 760 121 l 818 181 q 788 96 811 142 q 727 17 765 50 q 638 -15 689 -15 q 557 18 583 -15 q 531 110 531 51 q 556 296 531 171 l 551 296 q 424 51 485 117 q 289 -15 363 -15 q 174 35 211 -15 q 138 165 138 86 q 144 286 138 225 q 165 433 151 347 q 175 498 168 449 q 182 575 182 547 q 174 624 182 607 q 144 640 167 640 q 93 608 119 640 q 47 506 67 575 l 8 514 q 66 646 21 582 q 185 710 111 710 z "}}}
